<mxfile host="app.diagrams.net" agent="Mozilla/5.0 (Windows NT 10.0; Win64; x64) AppleWebKit/537.36 (KHTML, like Gecko) Chrome/116.0.0.0 Safari/537.36" version="24.9.3">
  <diagram name="第 1 页" id="R4LzSaipiUCawsPXC8jR">
    <mxGraphModel dx="724" dy="368" grid="1" gridSize="10" guides="1" tooltips="1" connect="1" arrows="1" fold="1" page="1" pageScale="1" pageWidth="827" pageHeight="1169" math="0" shadow="0">
      <root>
        <mxCell id="0" />
        <mxCell id="1" parent="0" />
        <mxCell id="qm9onJdicJjvLXKeHIaW-220" value="" style="rounded=0;whiteSpace=wrap;html=1;dashed=1;dashPattern=8 8;" vertex="1" parent="1">
          <mxGeometry x="290.01" y="953" width="189.99" height="157" as="geometry" />
        </mxCell>
        <mxCell id="qm9onJdicJjvLXKeHIaW-221" value="" style="rounded=0;whiteSpace=wrap;html=1;dashed=1;dashPattern=8 8;" vertex="1" parent="1">
          <mxGeometry x="478" y="953" width="222" height="157" as="geometry" />
        </mxCell>
        <mxCell id="qm9onJdicJjvLXKeHIaW-219" value="" style="rounded=0;whiteSpace=wrap;html=1;dashed=1;dashPattern=8 8;" vertex="1" parent="1">
          <mxGeometry x="105.79" y="953" width="184.21" height="157" as="geometry" />
        </mxCell>
        <mxCell id="qm9onJdicJjvLXKeHIaW-21" value="" style="rounded=0;whiteSpace=wrap;html=1;fillColor=#CFCFCF;strokeColor=#36393d;strokeWidth=0;" vertex="1" parent="1">
          <mxGeometry x="120" y="444" width="570" height="160" as="geometry" />
        </mxCell>
        <mxCell id="qm9onJdicJjvLXKeHIaW-170" value="" style="rounded=0;whiteSpace=wrap;html=1;dashed=1;" vertex="1" parent="1">
          <mxGeometry x="230" y="330" width="170" height="40" as="geometry" />
        </mxCell>
        <mxCell id="qm9onJdicJjvLXKeHIaW-143" style="rounded=0;orthogonalLoop=1;jettySize=auto;html=1;entryX=0;entryY=0.5;entryDx=0;entryDy=0;exitX=0.812;exitY=0.25;exitDx=0;exitDy=0;exitPerimeter=0;edgeStyle=elbowEdgeStyle;" edge="1" parent="1" source="qm9onJdicJjvLXKeHIaW-144" target="qm9onJdicJjvLXKeHIaW-142">
          <mxGeometry relative="1" as="geometry">
            <mxPoint x="460" y="520" as="sourcePoint" />
            <Array as="points">
              <mxPoint x="470" y="500" />
            </Array>
          </mxGeometry>
        </mxCell>
        <mxCell id="qm9onJdicJjvLXKeHIaW-27" style="edgeStyle=orthogonalEdgeStyle;rounded=0;orthogonalLoop=1;jettySize=auto;html=1;exitX=1;exitY=0.5;exitDx=0;exitDy=0;entryX=0;entryY=0.5;entryDx=0;entryDy=0;" edge="1" parent="1" source="qm9onJdicJjvLXKeHIaW-14" target="qm9onJdicJjvLXKeHIaW-148">
          <mxGeometry relative="1" as="geometry">
            <mxPoint x="330" y="532" as="targetPoint" />
          </mxGeometry>
        </mxCell>
        <mxCell id="qm9onJdicJjvLXKeHIaW-29" style="edgeStyle=orthogonalEdgeStyle;rounded=0;orthogonalLoop=1;jettySize=auto;html=1;exitX=1.003;exitY=0.438;exitDx=0;exitDy=0;exitPerimeter=0;" edge="1" parent="1">
          <mxGeometry relative="1" as="geometry">
            <mxPoint x="373.1289999999999" y="531.834" as="sourcePoint" />
            <mxPoint x="421.51" y="531.7931034482758" as="targetPoint" />
            <Array as="points">
              <mxPoint x="398" y="532" />
              <mxPoint x="398" y="532" />
            </Array>
          </mxGeometry>
        </mxCell>
        <mxCell id="qm9onJdicJjvLXKeHIaW-32" value="&lt;font style=&quot;font-size: 11px;&quot;&gt;generate&lt;/font&gt;" style="edgeLabel;html=1;align=center;verticalAlign=middle;resizable=0;points=[];labelBackgroundColor=none;fontSize=8;" vertex="1" connectable="0" parent="qm9onJdicJjvLXKeHIaW-29">
          <mxGeometry x="-0.2113" relative="1" as="geometry">
            <mxPoint x="5" y="-15" as="offset" />
          </mxGeometry>
        </mxCell>
        <mxCell id="qm9onJdicJjvLXKeHIaW-34" value="" style="shape=image;verticalLabelPosition=bottom;labelBackgroundColor=default;verticalAlign=top;aspect=fixed;imageAspect=0;image=data:image/png,iVBORw0KGgoAAAANSUhEUgAAAgAAAAIACAYAAAD0eNT6AAAACXBIWXMAAA7DAAAOwwHHb6hkAAAAGXRFWHRTb2Z0d2FyZQB3d3cuaW5rc2NhcGUub3Jnm+48GgAAIABJREFUeJzs3XlgXWWdN/Dvc87db272NG2z0GLZlFFRtKm7Mjqi47wyCuPrwtK0VChZ2qZJaxnn6uirMCClZZmSmxYUxxnQcR0VhbEuSFtBBxUEwbK1Tdfk7vs5z/tHW6ZAk2a55znn3vv9/EOb3Dzfpybm/O6zChAREU2ip6enVgjRqWlah5RyvhCiQ0rZDqAFQAhALYD6Y/8NAfCd8OUmgNixP6cAxAHEhRBxAFEp5X4Ae4QQe6SULwB4PpPJjN5xxx0FRf+8qiXs7gARETnD1VdfXeN2u18vpXy1EOI1x/77agDzrcgTQsDn88Hn88Hr9cLj8cDn88HtdqNYLBaKxeIRwzCeKxaLjxcKhZ/X1dV9a+XKlUkr+lKNWAAQEVUncc0115yladpiIcQSIUSXlPJcALpVgW63GzU1NfD5fAgEAvD5fNA0bcpfL6VELpdLFQqFZwuFwk4p5b8PDQ391Kr+VjoWAEREVaKnp6dF1/X3AfgbKeX7ALRamed2uxEMBlFTU4NgMAiPx1PyjEKhYORyuefy+fz2fD4/cu211/665CEVigUAEVEF6+vre60Q4qNSyg8AOA/A1N9yz4DH40FtbS3q6uoQCASsjDqpQqGQz+VyjxYKheFdu3Ztvffeew3lnSgTLACIiCrMqlWr/kpKebGU8mIAZ1ud5/P5UF9fj7q6Okve5c9UsVg00+n0H3K53C3r16+P2N0fp2EBQERUAdasWdNsGMalUspuAK+2Os/tdqO+vh719fXw+Xyn/gKbFQqFQiaT2ZHL5b6wfv36n9jdHydgAUBEVMZ6e3vfqGnalVLKTwHwW51XU1ODxsZG1NbWQojyfITkcrl0JpO52+/3r6nmXQXl+d0jIqpiq1at8kspL5dSrgJwhtV5uq6jsbERjY2Njhrin61isWimUqmHstns1Rs2bPi93f1RjQUAEVGZ6OnpadE0bSmAPgDzrM5zuVxobGxEc3MzdN2y3YG2k1IilUrtzmaz/evWrfu+3f1RhQUAEZHDXXPNNfN1XV8PoBsKhvk9Hg/mzJmD+vr6sh3mn6l0Or0/lUqtXr9+/Tfs7ovVqus7S0RURlatWtVomuYggB4Alu+pc7vdaGlpQWNjY9U9+E8kpUQmkzmQSqX61q9f/x9298cq1fsdJiJyqMHBwVA2m10thFiNo+frW0rXdcyZMweNjY3TOpmvGiQSiWdzudyn1q1b9yu7+1JqLACIiJxD9PX1fRTAjQA6VAQ2NjaitbUVLpdLRVxZklIikUg8CuCDq1ev3mt3f0qFBQARkQOsWrXqfNM0NwFYoiIvFAph3rx58Hq9KuIqQrFYNBOJxLZUKnVlOBw27e7PbLEAICKy0VVXXdXgdruvF0IshcXH9AJH5/lbW1vR0NBgdVTFymQy8VQq9fF169b9l919mQ0WAERENunt7f2AEGILgHars4QQqK+vx9y5czncXwLHpgV2xOPxvwmHw3G7+zMTLACIiBRbs2ZNc7FY3ATg/6rI83g8aG9vRzAYVBFXVXK5XC6RSCxbt27d3Xb3ZbpYABARKdTf3/9hKeUWAHNU5NXV1aGtra2iD/Jxgng8/ksAf7N69eqM3X2ZKhYAREQKXH755b66urp/AbASCn736rqO9vZ21NZavouQjslms4lUKnXR0NDQA3b3ZSpYABARWayvr+8sAP8O4PUq8vx+Pzo7Oyvq3P5yYZqmjEajmwYHB/vt7supsAAgIrJQX1/fpQBuA2D5BLwQAk1NTZg7d25Vn+TnBMlk8o+FQqFr7dq1Kbv7MhH+hBARWSAcDrui0egNUso+FXmapqGjo4ND/g6SzWaT2Wz2XQMDA4/Y3ZeTYQFARFRix87w/3cA71WR53a7cdppp8Hvt/yeIJqmYrFojo2NLf3MZz5zl919eTkWAEREJbR69eozDcP4LoCzVeQFAgGcdtpp3NvvYKZpIhqN/uvg4OBVdvflRCwAiIhKpLe3991CiG8DqFORV19fj/b2ds73lwEpJWKx2H8PDAxcYHdfjuNPDRFRCfT29l4khPg3AD4VeU1NTZg/f76KKCqhRCLxWCwWe304HC7a3RcWAEREs9Tf379SSrkJCs7yF0KgpaUFra2tVkeRRVKp1Oj4+Pirw+Fw1M5+sAAgIpqF3t7eLwghNqjIEkKgra2NF/lUgEwmM5bNZs9Zu3btQbv6wAKAiGiG+vr6vgjgMyqy+PCvPNlsNl4oFM5etWrVqB35LACIiGZA9cO/vb0d9fX1KuJIITuLAMvnq4iIKk1/f/914MOfSsDn89W63e4/ffGLX1S+qIMjAERE06B6zn/+/PlobGxUEUc2ymQyY+l0esHQ0FBCVSZHAIiIpqivr+9qVQ9/AGhtbeXDv0r4/f5Gn8/3ZDgcVrKNFAB4dBQR0RT09fX9A4DNqvJaWlrQ0tKiKm7a8vk8crkc8vk8isUiCoUCisWjW9uP/xc4Ooqh6zqEEHC5XHC73fB4PHC73fD7/dA0vg89LhgMzjMM41EcPUVSWp3HKQAiolPo7e29QAjxQwBK7td10gl/hUIBiUQCqVQKyWQS2WwW2WwWhmGUpH2/349AIAC32w2fz4dQKIS6OiUHKTpWLBb72Zo1a95jdY79P11ERA62atWqvzJN81cAlFyzFwgEsHDhQtveGefzeUSjUUSjUcTjcWSz2ZK1LYSA1+t9cQTA7Xaf9N8ppYRpmtB1HYFAAE1NTXC73SXrh9MdOzZ488DAQK+VOSwAiIgmcOxWv10AXqUiz+PxYNGiRdB1XUXci9LpNMbGxjA2NoZEIgEpSzf6rGkavF4vfD4ffD7fjEc1DMOA1+tFc3MzAoFAyfrnVKZp4siRI8vXr18fsSqDBQAR0UmEw2HX+Pj4fQAsH4oFjj4oFy1aBK/XqyIO2WwWBw8exMGDB0v6Lh84+k7f7/fD7/db8u8xTRMejwdz586Fx6NkVsYWxWLRHB8f71q/fv1vrGifBQAR0Un09/dvklL2qMgSQqCjo0PJ3Pfhw4cxOjqKeDxe0nf6AOByuRAIBBAIBJRNYZimiYaGBjQ1NSnJUy2TyaQ0TZu7cuXKZKnb5i4AIqKX6e3tvUzVwx8AmpubLX34F4tF7N+/H6Ojo8jlciVv//hD345345qmIRaLYXx8HD6fD3PnzoXLVTmPNr/fH4zH478C8PpSt80RACKiE/T29p4hhHgEQEhFXk1NDRYuXGhJ24ZhYHR0FHv27HnJ1rxS8fv9CIVCjnrgmqYJt9uN9vZ25WsprHT48OFb161bd00p22QBQER0zOWXX+6rq6vbCeC1KvJcLhcWLVpU8hXupmli79692LNnT8m2653I6/WitrbW0SvzTdOE3+9HW1ub3V0pCSmlHBsbe+/Q0NADpWqTJzAQER1TV1d3IxQ9/AFg/vz5JX2ISilx8OBBPPzww3juuedK/vD3er1oaWkpi215mqYhl8vhqaeewv79++3uzqwJIUQwGPxuOBwu2RYI54zbEBHZqLe39yIAV6vKa2pqKum8fyqVwtNPP41EovRHyWuahpqaGtTU1JS8bavpuo50Oo2nn34a8+bNQzAYtLtLM+bz+YKhUOiHAN5VivYqZ4KEiGiG1qxZ0yyl/BEAJU8Hj8eD0047rSQn/ZmmiRdeeAFPPfWUJQv8fD4fGhsb4fMpO6LeEkIIJJNJJBIJ1NbWOuKUxZnw+XwL3va2t+396U9/+tvZtsUpACKqesVi8RYAc1Tltbe3l2SbXDKZxO9+9zs8//zzME2zBD37X7quo6mpCY2NjRWzmE4IAcMwsHv3bsTjcbu7M2OhUOjWcDg86/uhWQAQUVVbtWrVhwD8g6q8xsbGWQ9DSymxb98+/P73v0cmkylRz/7X8RP3VB1KpJqmaTh06BD27t1rd1dmxO12e0Kh0Hdn205llHVERDMwNDRUVygUfghF5/y73W4sWLBgVsPPhUIBf/rTnzA6Olryg3wAIBQKob6+vuJv6Ts+GjA2Noba2tqy+/d6vd7T3vrWt/7P/fff/+RM2yivfzERUQlls9kbASjbJ9bW1jarB00qlcKjjz6KaDRawl4dpWkampqaEAopOf7AMYQQeOaZZ8puSkAIgZqamq+Fw+EZL+ZnAUBEVam3t/eNAK5QlRcKhWb1cD18+DB+//vfl/zcfuDoyMScOXMqdsj/VHRdf/FehHLi8/lCwWBwxpcFsQAgomokhBC3QNHvQCEE5s+fP+Ov37dvH5544gnLDvVpamoquyHwUtM0DclksuzWBdTW1n7qxhtv7JjJ11b3d5yIqlJvb++lALpU5TU3N8/onHwpJf7yl79g9+7dFvTq6FG+fPi/VC6Xw3PPPWd3N6ZM13VNCPHNGX1tqTtDRORkg4ODIcMwvgNFZ/273W50dnbOaOHfk08+admwdDAYRH39rHeSVSQpJcbHx1FfX18W5wV4PJ62t73tbb+6//77n5nO17HsI6KqksvlBgDMU5XX0tIy7XfYUko88cQTOHz4sCV9CoVCSq4eLne7d+8u+fkKVhBCwOv1bp3u17EAIKKqsXLlyiYA/aryPB4PGhsbp/11Tz75pGUP/2AwWHUr/WdKCFE20wHBYLDzS1/60rTOs2ABQERVw+VyrYWiPf8AMHfu3GkNIUsp8fTTT1v28Pf7/XznP01SyrIoAoQQCAaDG6fzNVwDQERVoa+vrxXA1wFMfzXeDPh8vmmv/H/22WcxOjpqWX9mMhpBR4uARCLh+OLJ7XbXLFmyZO8DDzwwpXsCOAJARNViHRRd9gMcnfufjr1791q2Bc3r9aKhocGStqtFsVgsi2uFg8HgF6b6WhYARFTxVq1a1Qhguao8j8czrRX20WgUzzwzrQXcU6brOhoaGspiNbvTpVIpS05hLCW/39963XXXfXgqr2UBQEQVzzCMlXDou/9sNosnn5zxce6n1NDQwH3+JSKEwOHDhy25drlUju0IuGEqr+VPBRFVtJ6eHq8Q4mpVebquT/ndv2maePzxx1EoFCzpS319/YwOIKKJaZqGF154we5uTCoYDL7q85///JJTvY4FABFVNE3TPglgrqq86Zyst3v3bqTTaUv64ff7EQgELGm72mma5uidAUIIhEKhm071OhYARFTJBIDVKgOnutL+8OHDli0qc7lcPOXPYoZh4MiRI3Z3Y0KBQOBNX/7ylyfdtsACgIgqVk9PzzsAvFpVXm1tLdxu9ylfl8vl8NRTT1nWj3I5wrbcjY+PW3JBUynouq5pmnbdZK9hAUBEFUvX9W6Vec3NzVN63e7duy17cNTU1HDeXxGnTwUEg8GPT/Z5FgBEVJGGhobqpJQfUZXn8XimNOd+8OBBy4aOdV3nMb82cOpUgNfrDV133XV/P9HnWQAQUUXK5XIfB6BsFdxU9toXCgXL9vsDHPq3y/j4uGMvDXK73Wsn+hwLACKqSFLKpaqyhBBTWnT3/PPPW7blz+/3w+v1WtI2TU7TNDz//PN2d+Ok/H7/m7Zs2XLShSksAIio4qxevfpMAOerygsEAqecd0+n05ad8y+EQG2tsjuO6CQMw3DkAUFut1uPxWLXnOxzLACIqOIYhvFRlXlTefe/e/duy/KDwSB0nXe72UkIYdldDrPlcrk+fbKPswAgokqktAA41cK7eDxu2RnyQgjU1NRY0jZNj5QSyWTS7m68QjAYPCMcDvte/nEWAERUUa655pqFAM5TlRcIBE6599/KrWKhUIhn/TuEEAIHDhywuxuvoOu6CAQCr9gSy58aIqoouq5fojLvVHfER6NRxGIxS7J1XUcwqOyOI5oCIQTi8bjd3XgFt9t9+cs/xgKAiCrNh1SGnWrx3Z49eyzLDgQC3PbnQIcOHbK7C6/g9Xpf9/KPsQAgoooxODgYAvBmVXkej2fS1f/pdNqyd/8AeNmPgzltR4DH43F/6Utfev+JH2MBQEQVI5fLvRvAqQ/jL5FTLb7bu3cvpJSWZPv9fq78dyghhGUXPc2Gy+W67MS/swAgokpygcqwyVb/F4tFHDx40LJszv07W6FQcNzpgB6P520n/p0FABFVkveqDJvsIXzw4EHL3v273W5e+ONwmqY5bi2Az+drC4fDruN/ZwFARBWhv79/HoBzVOX5fL5Jh+CtfPfPuf/ykEgk7O7CS+i6Lrxe74sXZLEAIKKKYJpml8q8yd79p1IpSw+E8flecaYLOZCmaZbd/TBTLpfrw8f/zAKAiCrFm1SG+f3+CT93+PBhy3I9Hg8X/5URp00DuN3uNx7/MwsAIqoIQghl2/+AyYfhrbwffrLCg5wnnU7b3YWXcLvdncf/zAKAiCqBAPDGU76qRHRdn3ARXiaTsfSXPof/y4sQwlHTAF6v1/uVr3ylDWABQEQV4JprrjkLwKmv5CsRr9c74Ql8Y2NjluVy+L/8CCEsHRGaiUKh8BGABQARVQBN016rMm+yd+FW3foHHC08qPw4bRpA07QlAAsAIqoAQoizVeZNNg9v5dYv7v0vT4Zh2N2Fl9B1/RyABQARVYazVIZNNAIQj8dRLBYty2UBUJ50XUc+n7e7Gy86vhCQBQARVQKlBcBED2Ir3/27XC7e/FfGxsfH7e7Ci9xudx3AAoCIKsMZqoI0TYPL5Trp56w8/Ifv/subk9YBuFwu7Ytf/GIrCwAiKmvHjgCuVZU32YPYygKACwDLm5VTQzOh6/r5LACIqKxJKdtV5k1UABSLRWSzWcty3W5ltxyTBRw4ffM6FgBEVNY0TZurMm+iAiCbzVp2+x8A7v8vc5qmOWohoMvlOpsFABGVNdM0lRYAEz2IrXz3r2maE99B0jSlUim7u/AiTdMWsAAgorImpZyvMm+iBYCZTEZ5JpUXK39GpkvTtCYWAERU1oQQ81Tm2VEAcPi/MjjpTgAhRC0LACIqa1LKJpV5ExUAVq7y5ghAZXDSiYBCiAALACIqa0KIoMo8TTv5r00rF3hNlEnlxTRNu7vwIk3TfPypIqKyJoQIqMyb6GFs5fAuC4DKYOUukenSdd3DnyoiKmtSyhqVeRPNx1s5BcAdAFRqQgiWlURU9pSOAEz0MLZyeJcFAJWaEEKwACCicueINQBWDu+yAKgMTvo+CiF4GRARlT3bf49ZvbrbSQ8OmjknfR85AkBElUDpLSsne6dv9eIuJz04aOac9H3kCAARVQLbCwCrV+k7afU4zZyTvo+mabIAIKKy55zj1SzipAcHzZzDvo+SBQARlTulIwAnW+1v9WU9Dntw0Aw56ftomqbJAoCIyp3SAmAiVp7X76QHB1UGKSULACIqb1JKpVMAEz2MrTyvnwUAlRpHAIio7AkhYirzJjrwx8oCwElnyNPMOWkXAACDBQARlTUp5UGVeROd+e92uy3LZAFQGZxUAJimmWcBQERlTQhxSGXeRGf++3w+5ZlUXpx0rbNhGHEWAERU7pQWABOd+uf1ei3LZAFQGaz8GZku0zQPswAgorImhFA6BTDRw9jKX+5WHzVMavj9fru78CLDMPazACCisqZ6DcBED+NAwLpLCU3T5DqACmDlz8h0SSlfYAFARGXNNE1HLAL0+/2WHgnMUYDyJqW0dKHodEkpn2EBQETl7i8qwyYqADRNs3SId6JcKg8OPMvhSRYARFTWNm/efAjAmKq8XC434edqamosy83n85a1TdZz2Lt/FIvFh1gAEFEleEpVkGmaE74bZwFAE7HyZ2O6CoVCccOGDQdYABBR2RNC/Fll3kSjALW1tZZlFotFrgMoY/X19XZ34UXFYnEcAK8DJqLyJ6V0RAEQDAYtPeyF6wDKk2EYll4WNV2GYTwHsAAgogqgugCYbDi+rq7OllxyLic9/AGgWCw+BrAAIKIKIKX8o8q8bDY74ecaGhpsySXnCoVCdnfhJQqFwkMACwAiqgBNTU1PAIirykun0xN+rqGhwbJLX4rFIo8FLjOmaaKxsdHubryE1+v9IcACgIgqQDgcNqWUu1TlmaY54btxr9dr6YpvjgKUFyGEo6YA8vl8ds2aNS8ALACIqEIIIXaozMtkMhN+rrm52ZZcch4nbf8DgHw+/8zxP7MAIKJKsVNl2GTTAM3NzZZNAxQKBU4DlAkppaXF4Ezk8/kHj/+ZBQARVQTTNJUWAJO9E/d6vZaeCcBpgPJgmqajhv8BQEr578f/zAKAiCrCsSOBld0LkM1mJ72hb+7cuZZlTzb6QM5h5Y6QmTAMw8xkMj87/ncWAERUMYQQD6jKklIilUpN+PmmpibLDgUqFouT3klA9jMMw3Gr/7PZ7IFwOPxi1coCgIgqyY9UhiUSiQk/p2ka5syZY1l2Mpm0rG2aPauvh56JfD7/8xP/7qzeERHNQj6fvx+AsrfGkxUAANDe3m7ZYsBcLsfFgA4lpcS8efPs7sYr5HK5zSf+nQUAEVWM2267LQng16ry8vn8pEPxHo/H0lXgXAvgTJqmOW7xXy6Xy1x77bUv+f8GCwAiqjSOmQYAgLa2NstGAVKp1KQLEUk9KSVaW1vt7sYrZLPZ3778YywAiKiiSCmVFgCnmouvqamxbDGYlJJrARxGCIFAIGB3N14hn8/f+fKPsQAgooqyadOmPwJ4WlVeMpmEYRiTvua0006zLD+VSp0yn9SQUqKtrc3ubrxCsVg0c7ncnS//OAsAIqo4Qoivq8qSUiIWi036mkAggJaWFsvyTzUNQWroug6v12t3N14hm80+GQ6HX7FilAUAEVUcIcTdKvOi0egpX7Nw4ULLFoal02nuCLCZaZqOfPcPALlcbtPJPs4CgIgqzk033fQ0gN+oykun08jn85O+xuPxWPqAiMeV3YZMJ+Hz+eB2u+3uxisUCoViJpO542SfYwFARBVJSumoaQDg6LkAPp/Pkj5ks1neFGgTwzDQ3t5udzdOKpPJ/OrE0/9OxAKAiCqSx+P5BgBl4+JTmQbQNA2LFi2ybFtgLBbjgkAbWHnvw2xIKZHJZD4/0edZABBRRbrhhhsOAvixqrypvgOvr6+37Ihg0zQ5FaCYrusIhUJ2d+OkcrlcfMOGDT+b6PMsAIiokt2iMuzIkSNTet3ChQstWy2eyWR4XbAipmlausVzttLp9D2TfZ4FABFVrJtvvvknAP6kKi8ajU5pNb7L5cKZZ55pWT9isRhPCLSYlNLSy55myzAMM51Or53sNSwAiKiSSSHErcrCpMTY2NiUXltXV2fZwjHDMDA+Pm5J23SU1+tFbW2t3d2YUCKR2B4OhyddmMICgIgqWj6fvwvAqZfol8jY2BiklFN67WmnnYb6+npL+pHL5bgewCJSSseu+geO9i+Xy/Wd6nUsAIiooh27IXCbqrxCoTClLYHA0XPjzzrrLHg8Hkv6kkwmuR6gxAzDwMKFC+3uxqQSicSfN2zY8MdTvY4FABFVPE3TNgMoqMqb6mJAAHC73TjnnHMsOyVwfHycpwSWyPHT/jTNuY9OKSUKhcL6qbzWWRcWExFZYMeOHeOLFy/uFEK8QUVeoVBAIBCY8kp/r9eLQCCAw4cPW9KfXC4Hv99v2fkD1UBKifr6etTV1dndlUllMpn9a9asWTaV1zq3jCEiKiEhxD8DmPy83hI6cODAlNcCAEBTUxNOP/10S/pSLBZx5MiRafWHXqqmpgbNzc12d2NSUkqkUqn+qb6eIwBEVBV27twZ6+rqagdwvoq8YrE4rVEAAAiFQpBSWrJ4zzRNFAoFjgTMgNfrxbx58+zuximl0+k9AwMD3VN9PUcAiKhq6Lr+RQA5VXnTHQUAju4MsOrSoFwux+2B0+RyuRx7y9/LZbPZU678PxFHAIioajz00EPxxYsXzxVCvFlFXrFYhM/nm/YFQPX19SgWi0gmk5b0yTAMyy4lqiS6rjv6pL8TJZPJ3QMDA1dN52s4AkBEVaVYLH4BgLIN8jMZBRBC4FWvehU6Ozst6VM6nZ7WeQXVyOPxlM3D/9i+/yun+3UcASCiqvKb3/wmuXjx4qIQ4n0q8gzDgK7rCAQC0/7auro6CCEsWRNQLBaRz+fh8/m4JuBlAoEA5s+fb3c3piyRSOxau3btZ6b7dRwBIKKqk81mbwbwhKq8AwcOzHgvfkdHB84880xL9p7n83kcOXKE9wYcI6VEKBRy7PW+J1MsFk0Afz+Tr+UIABFVnUceecR8y1ve8qSU8lIVeVJKGIYx47Pjg8EgamtrMT4+XvKHtWmayGQy8Hq9lh1GVA5M00RzczOamprs7sq0RKPRWwYGBia99W8i1fvdJqKqtmPHjt1Lliw5D8DZKvJyuRxqamrgdrtn9PU+nw8tLS1IJBLI50t7nIGUEplMBrquz7h/5cw0TXR2diIYDNrdlWnJZrOxWCz27u3bt89oMQenAIioagkhVgPIqMiSUmLfvn2zWnjn9Xpx7rnnWnINrZQS0WgU0Wi0qhYH6rqOV73qVZbdx2AVKSWSyeRl4XB4xkNCHAEgoqq1Y8eO8SVLlqQAvF9FXrFYhKZps3qnqWkampqaEAwGEY1GSz4lUCgUkMvl4PV6HX3m/WyZpom6ujrMnz+/LBdBxuPxXw8ODg7Opo3K/e4SEU1BfX39JiHEz1XlHThwoCQ39DU1NeG8886z5Gz6QqGAQ4cOIZVKlbxtJzBNEx0dHY4/2nciuVwu4/P5/ma27XAEgIiq2vbt2+X555//c03TlgKY+rm9s5DJZNDQ0DDrd54ulwtz5syBz+dDPB4v+WhALpdDNpuFx+OpiAWCpmkiGAyis7MTLpfL7u7MiJQSY2NjH1+zZs3/zLat8v+OEhHN0q5du6JLliyJAvigirxisQghREkWnQkhUFNTgzlz5iCfzyOdTpegh//LNE2k02mYpgmv11uWw+XHdXZ2Ov42v1NJJBI/Ghwc3FCKtlgAEBEB2LFjxyOLFy9+qxDCmiv5XiadTiMUCpVs1b2u62hubkZ9fT1SqVTJdwoUCgVks1noul6ue586AAAgAElEQVRW754Nw0BzczPmzZtX9qMY2Ww2MT4+/obt27cbpWivvP/XICIqoTe96U0PaJr2SQA1KvJSqVRJpgJO5PV6MXfuXPj9fqTT6RkfQHQyx88MyGQy0DTN0VsGTdNEfX092tvbK+LeA9M0ZTwe/+C11177dKnaZAFARHTMrl27EkuWLHkYwCehYJG0YRgoFAqWDEsHg0HMnz8fXq/XkkIgm80il8s5bkTg+IFLHR0dMzp+2YmObdG8cWhoaEsp22UBQER0gh07djzb1dVVAPDXKvKOD6tb9bCqqanB/PnzEQwGkcvlSjo1YBgGMpkMcrkchBBwuVy2rRE4vq2vra0NNTVKBnCUSSQSOwYGBv6h1O2yACAiepmdO3c+2NXV9VoA56jIS6VSszolcCoCgQDmzp2LxsZGAEcLj1LtGjAMA9lsFul0GoZhwOVyKTlDQEoJXdfR2tqK1tZWBAKBsl6keDKZTGY8Go2+dvv27aUbwjmGBQAR0UksWbLkPgAXA2hUkZdMJlFfX2/5g9Pj8aCxsRHz5s1DIBA4fpVsSU7/k1KiUCi8ZBGiruslfShLKWGaJmpqatDe3o6GhgZHr0WYjWKxaEaj0bd+9rOf3WNF+5VVKhERlVBvb++5QohfAVCydywYDGLhwoXK38UWi0WMjY1hfHwc4+PjJV0vAAButxs+nw9+v39G6wVM04SmaaipqUFTU1PZr+afCtM0MTY2duW6deuGrcpgAUBENIn+/v53SSl/DEWHBNXX16Ojo0NF1EkdO2MesVgMsVgMiUSipAWB2+2G2+2Gx+OBx+M5aUFgmiaEEPB4PKipqUFdXV1FH0t8MmNjYzcMDg6utTKDBQAR0Sn09/f/Xynl16Hod2ZLS4tj7qQ/PkWQSqWQSqWQTqeRzWaRzWZnXRj4fD54vV74/f4XRwkaGhrK7mKeUotGo98ZGBi4yOocFgBERFPQ29v7T0KIsKq8tra2FxfsOVWxWEShUHjxv4VCAVJKSClhGAaEEC9uEzz+5+NXDlfC3nwrJBKJx1atWnWuiiwWAEREUyP6+vpGAFyhKnDBggUIhUKq4shmyWRybzQaXRAOh0u+4v9kqmtShYho5mRDQ8OVQoh7VAU+//zzFXsjH71UJpM5Eo1Gz1X18Ae4DZCIaMq2b99udnR0fDsUCp0JwPJhWiklYrEYAoFA1c+LV7J0Oj1WLBbPXL9+/bjKXBYARETT8Pjjj8vOzs7vqCwC4vE4i4AKlclkYrlc7uyBgYHDqrNZABARTdPjjz8uX/e6133P7Xb/FYCzrc47XgQEg0EWARUkm83G4vH4WevWrTtoRz4LACKiGXjkkUfMCy+88NvZbPY1UHBkMKcDKks6nR47cuTImZ/97GcP2dUHFgBERDO0fft2o7Oz81uhUKgZwJuszjteBHg8Hm6jK2PJZHLv+Pj42eFweMzOfnAbIBFRCfT29vYJIW6Cgt+rQgi0traipaXF6igqsXg8/mg8Hj9f5Wr/ibAAICIqkb6+vksBRAAouZ2mubkZ8+bNUxFFsySlRDQa/eHatWs/aHdfjuMUABFRiezcufPRJUuWPAzg76Dg7oB0Oo1CoYBQKFRx1+BWEiklxsfHbx4cHLzU7r6ciD8xREQltnr16jMNw/g2gFeryPP7/ejs7OTiQAcqFovG+Pj4p9evXx+xuy8vxxEAIqISe+ihh468853v/JphGGdCQRFQLBYRjUbh9/tZBDhIJpOJRaPRN3/mM5/5sd19ORmOABARWUf09fUNAvgiFL3hmjt3LhcHOkAymfxTNBo9PxwOp+3uy0RYABARWay3t/f9QoivAWhWkVdfX4+2tjZoGq97Uc00TRmNRjcODg6utrsvp8ICgIhIgYGBgTmFQmEYRxcIWs7j8aC9vR3BYFBFHAHIZrOJVCp10dDQ0AN292UqWAAQESl0bKvgrQBqVOQ1Nzdj7ty53CVgoWNHNf88kUi8LxwO5+3uz1TxJ4KISLFrrrlmoaZpdwkh3q4iz+fzoaOjg6cHWiCfz+disdgV69ev/4bdfZku7gIgIlJs165d0QsvvPBr2WzWAPAOAJZO1h/fJaBpGvx+P0cDSuDYu/5HxsfHz/3Hf/zHR+zuz0zwp4CIyEZ9fX2LAXwDwEIVeTU1Nejo6IDL5VIRV5GKxaIZi8X+eWhoKGx3X2aDBQARkc1WrlzZ5HK5vgrgAyry3G43Ojs7EQgEVMRVlEwmE4vH4+/asGHD/9jdl9niFAARkc1+85vfZDo7O/8jFAp1ADjP6jzTNBGLxeD3++H1Wn5iccVIp9MHi8XimUNDQ8/Y3ZdSYAFAROQAjz/+uNy5c+f3urq6agEssTrv+NXCXq+XiwOnIJVKPTc+Pn7m+vXr43b3pVRYABAROcjOnTvvW7x4cYsQ4s0q8uLxOHw+H0cCJpFMJp+PRqOLwuFwzu6+lBKPiSIicpjR0dE+AD9QkSWlxAsvvIB02rEn1toql8ulo9HoG8PhcNHuvpQaCwAiIoe59957Da/X+3EAf1SRZ5omnnvuORQKBRVxZaNQKBiZTOYd4XD4sN19sQILACIiB7r++usThmFcDCCrIq9YLOL5559XEVUWpJRIJBJXDgwMlOUe/6ngGgAiIofatWvX4SVLlpgALlCRVygUoOs6twcCSCaTDw8MDFxtdz+sxBEAIiIHq6+v/xcAyt6FHjhwAPl82Rxnb4l8Pl9Mp9N/a3c/rMYCgIjIwcLhcFFKuQKAqSLPNE3s27dPRZRjJRKJz27YsOGA3f2wGqcAiIgcbufOnaNdXV0LAbxeRV4+n0cgEKjKrYHpdPrAmjVrPmx3P1TgCAARUXlYByChKmx0dFRVlKOk0+kVdvdBFY4AEBGVgZ07d6YWL17sEkK8W0WeYRhwu93w+/0q4hwhHo8/unbt2lV290MVjgAQEZUJXddvEEI8pyrvwIEDMAxDVZytTNOUqVTqYrv7oRJHAIiIysSOHTuKXV1dhwD8vYo80zy67rCmpkZFnK2i0eh31q9ff7vd/VCJIwBERGVk48aN/wbgQVV5hw8fRi5XUUfgv0KhUCgEAoFL7e6HaiwAiIjKizRNcwCAVBImJfbv368iyjaJROK6lStXJu3uh2qcAiAiKjO7du3a09XVdQ6Ac1Xk5XI5BINBeDweFXFKZTKZ8dWrV7/f7n7YgSMARERlSNf1tQCUXeFXqdsCs9nsNXb3wS4cASAiKkMPPfRQfPHixTVCiLeryCsWi/B4PBW1LTCRSDy5Zs2aqtn3/3IcASAiKlM+n+9LAJS9Nd+/f/+LOwPKnZRSptPpj9ndDztxBICIqEw9+OCD+a6urjiAD6nIM00TQoiK2BYYj8d/OjQ0dIPd/bATRwCIiMpYQ0PDCIDfqso7fPhw2d8WWCgUjEQi8Qm7+2E3FgBERGUsHA6bUsoBVXmmaeLAgfK+KC+RSNwSDocP290Pu7EAICIqc5s2bfqZlPL7qvJisRjSaWUbEEoqm80m0+n0arv74QQsAIiIKoCUchUAJWPzUkqMjo5CSiVnEZWMlBKpVGptOByujJWMs8RFgEREFWDXrl3jS5YsaQbQpSKvUCjA6/XC5/OpiCuJZDL57MDAwKfs7odTcASAiKhC5HK5zwE4oiqvnLYFmqaJVCpV9Qv/TsQRACKiCvHwww9nu7q6sgAuVJFnmiZ0XUcwGFQRNyuJROKXQ0NDn7e7H07CEQAiogrS0NBwG4DHVOUdPHgQxWJRVdyMFItFE8D/tbsfTsMCgIiogoTD4SKAdaryymFbYDwev3P16tV77e6H07AAICKqMDfffPMPhBA/UZU3NjaGTCajKm5acrlcJp1OV+15/5NhAUBEVIEMw1gFQNnY/P79+1VFTUsqlQofGxWhl+EiQCKiCrRr165DXV1dHQDeqCIvn88jEAjA6/WqiJuSVCq1b82aNR+xux9OxREAIqIK5Xa7rwUQU5W3b98+xxwOJKVENpu93O5+OBlHAIiIKtSvf/3rVFdXFwD8tYo8wzCg6zoCgYCKuEklk8mHBwYGlC2GLEccASAiqmANDQ1fAfAXVXlO2BZoGIZMJpMfs7UTZYAjAEREFWz79u3G4sWL9wshLlaRJ6WElBKhUEhF3EnFYrF7169ff4dtHSgTHAEgIqpwmzZtukdK+UtVeUeOHEE2m1UV9xKFQiGfSqWusCW8zLAAICKqApqm9QNQdnC/XdsCk8nkF8LhcHneVawYpwCIiKrAjh07Rru6us4A8FoVeXZsC8xkMmOrVq36oLLAMscRACKiKqFp2joAKVV5KkcBpJRIp9PLlQVWAI4AEBFViR07diS6urq8AN6pIq9YLMLtdsPv91uelUwmHxsYGOixPKiCcASAiKiKZDKZ6wC8oCpv//79ME1rlx6YpinT6TS3/U0TCwAioipyxx13pIUQn1WVZxgGDh48aGlGPB7/rw0bNvzR0pAKxAKAiKjK1NfXfxXAw6ryDh8+jHw+b0nbhUKhkEwmP2FJ4xWOBQARUZUJh8OmlLIPgJKD+6WUOHDggCVtx+PxjeFwOG5J4xWOBQARURXatGnTrwF8W1VeNBpFOl3a7fm5XC6RyWR43v8MsQAgIqpSmqatBZBTlbdv376StheLxXrC4bCyw40qDbcBEhFVqR07dowvWbKkDsBbVOQVi0V4vV74fL5Zt5VMJv+ydu3a7hJ0q2pxBICIqIp5PJ7PA7Bmgv4kSrEt0DRNFAoFLvybJY4AEBFVsQcffDC/ZMmSFAAlR+iapglN0xAMBmfcRjwe/9nAwMD/K2G3qhJHAIiIqtzevXvvAPAHVXmHDh1CoVCY0dcWCgXDNE0e+lMCwu4OkP1Wrlx5mq7rbxBCnCmlPFMIcRaAJgBBADUA6nH0/PAUgJSU8rCmac9KKf8M4EnTNP/Q1NT0By7GISpfvb29Fwgh7leV19DQgPb29ml/3djY2L8ODg5eZUGXqg4LgCrU399fD+CDpmm+RwjxbgALS9DsmBDil6Zp/sw0ze/dcsstz5SgTSJSqK+v74cALlSVt2jRomndE5DNZtOHDx+uC4fDRQu7VTVYAFSJiy++WG9vb3+3lPJSKeVHAAQsjnxESvk1KeW/bd68+ZDFWURUAv39/edIKR8F4FaRFwgEcPrpp0OIqT2KxsbGrhkcHLzV4m5VDRYAFW5gYCBYLBZXSCnXAJivKtflcmHOnDlobW2V6XT6qXQ63TswMHCfqnwimpm+vr5bAVytKu+0005DbW3tKV+XTCZf6O/v71TQparhsrsDZI2BgYFgoVBYVSgU+gA0q8p1uVyYP38+WlpaoGkaAIja2toza2trf3zbbbc9k0gkPj40NLRDVX+IaHo0TfvHY4vsGlXkjY6OIhQKTToKIKVEKpW6TEV/qglHACpQf3//h6WUNwNQVi0LITBnzhy0tbVB1yfeXWqaJmKx2EOFQuFvV69ePaaqf0Q0dX19fWsA3KAqb+7cuWhpaZnw8/F4fMfq1auXqOpPteA2wArS09PT3tfX9wMp5beh8OHv9/txzjnnoLOzc9KHPwBomoaGhoYl9fX1+2+88cZ+RV0komloaGjYDOApVXkHDx5EsXjydX2GYZhSyktU9aWacASgQvT3939QSnknFA73A0Brays6OjqmvIjnRFJKRKPRHTU1Ne++4oorshZ0j4hmqLe39yIhxH+qymtsbERbW9srPj42Nnb34ODgp1T1o5pwBKDMhcNhV19f3/VSyu9D4cNf0zQsWrQInZ2dM3r4A0enDRoaGrry+fz+66+//vUl7iIRzcKmTZu+LaVUdi7A+Pg4stmXvg/I5XK5dDq9XFUfqg0LgDLW09PjHR8f/w8Aa6FwNMftduOcc85BQ0NDSdoLBoN1LS0tD19//fUXl6RBIiqJY7cFKjngS0qJ0dHRl3wsmUx+LhwOc3TQIrwLoExdddVVDS6X60cA/kZlrs/nwznnnFOS27xOpOu6FggEPvqOd7zj0H333febkjZORDOyY8eO/V1dXQsAnKciL5/PIxAIwOv1Ip1OH1izZs2HVeRWK44AlKFVq1Y1ejye7QDepjLX5/PhrLPOgsfjsaR9XddFc3PzrTfffPNKSwKIaCbWA4irChsdHYVpmkin0ytUZVYrjgCUmSuvvDLgcrl+DOB8lblerxfnnHOOZQ//44QQ8Pl8F7797W9//r777vsfS8OI6JR27tyZWrx4sfvYseGWMwwDuVzum5/97Gf/WUVeNeMIQBm58sor3X6//14ASvfD6rqOM844A263ktNBoWmaaGxsjNx4441KfuEQ0eR0Xb9BCPGcorjxsbGxTyvKqmosAMqI3+//CoAPqMwUQuCMM86Y1oUdpeByubS6uroffeUrX3nlviAiUuqmm27KANigIktK+blbb731iIqsascCoEz09fV9BMA1qnPb2toQCoVUxwIAfD6f1+/389hgIgfYuHHjvwF40OKYvzQ2Nt5ucQYdwwKgDPT19XUCuEN1bm1tLebOnas69iVCoVD7xo0bt9raCSICAGma5gAAaVWApmmrwuFw3qr26aVYADifkFLeDUUXcxynaRoWLFgw40N+Sqmpqenym266ieeAE9ls8+bNO4QQ37ao+Z/ddNNN37eobToJFgAO19vbe6kQ4u2qc9vb2+H1elXHnpQQQvh8vu/a3Q+iard169aWs88++6xjN32WkimEGCh1ozQ5FgAOdtVVVzUIIa5XnRsIBDBnzhzVsZMKhUItGzdu5LYgIpsMDw+3GobxgMvlek1TU1Opmx/ZuHHjb0vdKE2OBYCDeTyefwSg/Enc3t7uiKH/lwuFQms3bdrkjGEJoiqydevWDiHEL4QQfwUAc+bMgcvlKlXzCSHEP5WqMZo6FgAO1dPT0wJA+UlYtbW1qKurUx07JV6v12sYxi1294OommzduvV00zR/AeDM4x/TNK2UC4S/vHHjxtFTv4xKjQWAQwkhVgEIqM6dN2+e6shpqa2tvSwcDpfsrQcRTWxkZOQs0zR/DmDByz/X0NCAQGDWv6Iei8ViX5ltIzQzLAAcqKenp1YIcbXqXL/fb9ue/6nyer3uuro6JQeSEFWzSCRyrpRyO4D2iV7T0dEx46kAIURM07R/uPPOO3nbn01YADiQruuXAFA+Dt/a2urIuf+XCwQCyg9EIqomW7dufQOAnwGYdJzf4/Fg4cKF0z4mXAiRMgzj/TfddNNjs+gmzRILAAcyTfNS1ZlCCDQ0NKiOnZFgMNh8ww03vNHufhBVopGRkfNN0/wpgOapvN7n8+GMM85AfX39lNoPBoMHdF1/zebNm3nKp804l+ow/f39C6SUSq/5BYC6urpSruq1nMvluhbARXb3g6iSRCKRd0gpfwBgWnOBuq6jo6MDc+bMwfj4OFKpFLLZLEzThKZp8Hq9qKmpQW1t7cPBYPA93d3dCYv+CTQN5fMbv0qYpnmJsGEcvlze/R8XCATeY3cfiCrJ8PDwewF8B7NYfOz1eifbHfATwzAu6u7uTs+0fSotTgE4jKZpF6jOFEI4duvfRPx+f+2tt97aYXc/iCpBJBL5kBDie7Bu59H30+n0361YsYIPfwdhAeAgV155pVtK+VbVuX6/f9qLeOwmhEAul1O+U4Ko0gwPD38UwLcA+KxoXwjxTcMwPtLb25uzon2aOU4BOIjf718MIKg6t6amRnVkSXg8HuWjJUSVZHh4+JNCiG2w7llwdygUuvySSy4xLGqfZoEjAA4ipbRlZXswqLzmKAm3273I7j4QlatIJLJMCHEXrHv4D+/Zs+cyPvydiwWAgwghzrIjtwSnednC6/VObd8REb3EyMjIpwFsgUXPACnlv+7Zs+fT4XDYtKJ9Kg0WAM5yth2hPp8lU3+Wc7lcYvPmzT1294OonEQikUEp5e2w7vf/9cuXL7+KD3/nYwHgLGee+iWlpes6LLjbWxld1zdFIpGfRSKRc+3uC5HTRSKRIQDXWRhx3bJly4YsbJ9KqHx/81emFtWBHo9HdaQV3gXgt5FI5F9GRkacfZkBkU0ikch1AL5sYcTQsmXL1lnYPpUYCwCH6Onp8QJQ/jTWdV11ZEmZ5oujjG4AA1LKJ0ZGRj4hpXT+pQZECkgpxfDw8CYAg1ZFCCF6ly1bdr1F7ZNFWAA4hMfjseWda7kXACcxX0p598jIyPbh4eHX2t0ZIjtJKcXWrVs3CyGsWisjpZQ93d3dmy1qnyzEAsAhDMOwZTN+Oc//A5js9sJ3CCEeGRkZuXnbtm3cLUBV55577tFHRkbuklKutCjCkFJeunz58lstap8sVt6//SuIEKJgR66U0o5YVVxSyl7TNJ8cHh6+gtMCVC22bNnijsfj3wDwKYsiClLKjy1fvvxui9onBVgAOITH40nakWsY5X1Gx1QKGCnlHCHE1pGRkV8PDw/zGmGqaJs2bfLquv4tABdbFJED8JHly5d/06L2SREWAA6xe/fuJADlb8fLfQRgmhcndgkhdg0PD99+1113NVnVJyK7bNmyJRAIBL4H4EMWRaSFEH+3bNmy71vUPinEAsAh7r33XgOA8puyCgVbZh5KZgY3J2tCiE8XCoUnI5HIinA4zP8PUEUYGRkJaZr2QwDvsygioWnaB7q7u39iUfukGH/5OctzqgPz+bzqyJKaxSLGJgD/2t7evmt4eLirhF0iUm7btm31UsqfCCHeaVFEVEr5vqVLl/7covbJBiwAnOUJ1YFSyrIdBZBSlmIb4xuFEL8eGRnZevvtt88pRb+IVLrrrruaisXiAwCsKmQPa5p2wfLly3dY1D7ZhAWAs/zZjtBMJmNH7Kzl8/mZTAGcjJBSXuF2u5+MRCJ94XCY12RTWRgeHm4tFAr/LYR4g0URB6SUFyxduvS3FrVPNmIB4CBSysftyE2lUnbEzpoF0xf1ADa2t7c/Mjw8/PZSN05USsPDw+1CiJ8DsOrAqz1CiHcuX7789xa1TzZjAeAgpmn+yo7cdFr52sOSOOEY4FJ7rRDiFyMjI9/funVrh1UhRDMViUROE0L8DIBVV4g/ZxjGu7q7u5+0qH1yAB6M4jB9fX3PAFigMtPlcuG8885TGVkS8XhcxWVGCSnl50zT3LRixYryXCxBFWXbtm1nGIbxAACritOnNE27YOnSpS9Y1D45BEcAnGe76sBisVh20wCGYai6yTAkhLhB1/VHI5HIBSoCiSaydevWVxuG8XNY9/B/3DCMd/LhXx1YADjPj+0IjcfjdsTOmA3TFucAuH9kZOT7kUjkNNXhRHfcccfrTdPcDmCeRRH/o2nau1asWDFqUfvkMCwAHCYWi30XQEx17pEjR1RHzophGIftyJVS/i2Ax0ZGRj6zadMmrx19oOoTiUTerGnafwNosShiVz6ff8/SpUsPWdQ+ORALAIe58847s1LKb6nOzWQyZbMYsFgsSk3TzpRSDgCwY+giKKX8YiAQ+MPIyMiFNuRTFRkZGXkbgJ8CaLAo4pc+n++9V1999bhF7ZNDsQBwICnlV+3IPXzYljfV05ZMJn979dVXjy9fvvxGwzDOBvA12HCPAoAzpJQ/PLZb4HQb8qnCbd269Z1Syh8BqLWifSnlz3O53Ac++clPltccIJUEdwE4VF9f38MAlN5cp2kaXv/615fidD3LSCmxd+/ed65bt+4XJ358eHj47UKIW2DdnuhT9SsjhNiUy+W+sHLlSltudqTKMjIycqFpmt8SQvgtivhRbW3tRy655JLyPAmMZo0jAA4lhPiy6kzTNHHw4EHVsdOSTCb3vPzhDwDLly//5Z49e84TQlwGQPlQxrFf0kNer/dPIyMjl6rOp8oSiUQ+JKX8toUP/++n0+mL+PCvbiwAHKq+vv4/ATymOvfAgQNWHrAza4lEYvVEnwuHw2Z3d/dXAZwlhNgEwI5/SLuU8q5IJHL/1q1bX21DPpW5SCTyMQDfAmDVItN/NwzjI729vTmL2qcywSkAB+vt7b1ECPEfqnPb2towf/581bGnFI/H/3L11Vcvmurrh4eH33hsWsCu2/4KQojbAVzb3d2dsKkPVEZGRkY+IaW8E4BV91HcvWfPnivC4XDRovapjHAEwME2bdp0j5TyftW5o6Ojjrsh0DRNmc/nPzGdr1m+fPkj3d3dbzk2LWDH9ia3lLJXSvnEyMjIpVJKFtw0oUgksuLYAmCrHv5b9uzZcxkf/nQcfyE5XG9v7xlCiD/AuuHAk2poaMCiRVN+s225sbGx7/X29v6fmX79bbfd1uD1esNSypUA7FrluB1Az7Jly/5oUz45VCQSGQBwPaz7nXxDd3f3oBDCjt0y5FAsAMpAf39/WEr5T6pzFy1ahIYGq7YeT102m03put58xRVXZGfbViQSOQ/AZgBvnX3PZqQohLjN6/X+I7deEQBEIpEhAFYu+r1u2bJl6yxsn8oUpwDKQH19/ecB/Lfq3GeffdaKK3enxTRNOTY29tFSPPwBYNmyZb/r7u5++7FpgQOlaHOaXFLK3mw2y2kBQiQS+Rysffj/Ex/+NBH+8ikTq1atajNN83ew7ijQkwqFQjjrrLMghD0/KkeOHLm9r6/vaiva3rZtW71hGOsArAKg5Gahk/illPIa3rleXaSUYmRk5EYc/dmzJALAmmXLlt1kUftUAVgAlJGhoaGP53K5r0updhqvpaUFCxYsUJoJAOPj4w/39PS8yeqcLVu2nK3r+iYA77U6awImgK8bhrF6xYoV5XEcI82YlFJEIpGbhRA9VkUIIfq6u7s3W9Q+VQgWAGUkEon8KBqNvv+FF9Tf1NnZ2YnW1lZleclk8uD+/fs7wuGwsjmISCTyIQC3AOhUlfkyYwA+v2fPns3hcNi5hzHQjN1zzz16IpEYllJeYVGEIaVcvnz58m0WtU8VhAVAmRgZGemWUkaAozf37du3T2m+EAILFy5EU1OT5VnpdDoWi8XOXLt2rfJjCb/v2bwAACAASURBVL/61a8Gc7ncWiHEOijeeXGCR45NC+ywKZ8scM899+jxePxOAJ+0KMKQUl6+fPnyuy1qnyoMC4AyMDIyMl9K+UeccBvYwYMHceCA2jVsKooAOx/+J9q2bdsZhmFsAvB+m7ogAdytadoaXtFa/u655x5PPB7/BoC/tygiL4T4WHd397ctap8qEAuAMhCJRL4D4BV74MfHx7Fnzx6lfRFCoLOzE3PmzCl524lEYv+BAwf+KhwOO2Ye/Ni0wCYAC2zqwjiAz9XW1t5yySWXGDb1gWZh06ZN3kAgcA+Av7MoIieEuKS7u/t7FrVPFYoFgMNFIpHLANw50edjsRj27Nmj/Pz+efPmoa2trWS7A2Kx2B8PHTr0RpVz/lO1ZcuWgKZpg0KIIQA+m7rxOxw9ROhBm/JpBo5NKX1HCPHXFkWkNE378NKlS5WfGErljwWAg23ZsmWerut/BNA42etyuRyef/55ZLMl2So/ZbW1tTj99NPhdrtn3IZpmhgbG/t2f3+/VUOjJbNly5ZX6bp+M4AP2tQFCeBuKeXa5cuX23GGAU3Dli1b6lwu1w+llG+xKCJmmuYHrrzyyl9b1D5VOBYADjY8PPyfQoiLpvJa0zSxb98+jI+PW92tl/B4PDj99NMRCoWm/bXZbDYbjUY/MTAw8J8WdM0yx6YFNgI43aYuRAF8uba29qZLLrnEcSMmdPToaY/H8yMAiy2KGNc07cKlS5futKh9qgIsABxqeHj4k0KIr0336+LxOEZHR5We4CeEQEtLCzo6OqBppz5cUkqJWCz2q1Qq9YGhoaGyvCXv2KKuqwB8AUCNHX0QQjxhmmbv8uXLf2pHvkoXX3yx3tbWNkcIETQMo07TtJAQwmUYxrimaelCoZBuaWkZdcIU0u233z7H7Xb/BMDrrGhfCHEQwPu6u7sftaJ9qh4sABxo69atLaZpPoYZnvpnmiYOHTqEQ4cOQeWhQW63G+3t7Whubp7wNclkcn88Hu8eHBz8obKOWWh4eLhdCPH/AHzKrj4IIX5QLBZXrlix4nm7+lBKg4ODoXw+/45jQ+dnAzgLwCKceltmEcBzAP4M4AkAD7nd7p/fcMMNynaUbNu2ba5hGD8FcK5FEfsBvJcXSlEpsABwoEgk8k0AH5ltO4VCAYcOHcLY2FheSqnsqNtAIID58+e/5CKhVCo1nkwmw2vWrNmkqh8qDQ8Pv0cIsRnAq23qQkpKeUMmk/lSb29vzqY+zNjq1avPNAzjEzh6GuObULorcSWAx4UQ90spv3HzzTdbNmS+ZcuWTl3XH8DRYsUKzwO4YNmyZU9b1D5VGRYADhOJRD4G4Bulak8Ise33v//9eill37ELcOaXqu1T8fl82Xnz5u0uFovXDwwM3KUq1y5btmxx67p+NYB/BjD9RRGl8RSA3mXLlv3Ypvwp6+npqdU07ZM4OnrSpSJTSvnnQCDw3ebm5v8YGBh4pFTtbtu2bYFhGA/AunUhz2qadsHSpUt3W9Q+VSEWAA6yZcuWZpfL9ZiUslSb7Efz+fxrrr766nHg6Dzq3LlzL9A07VM4uie5tkQ5JzIAbJdSfl1K+a3NmzdX3ZW3xw5u+jKOnvhmy//HhBA/0DSt54orrnjWjvzJrFy5ssntdvdJKa/BCYdbWc3n86G1tRXNzc0QQiCRSPwlm82uWb169Xdn0+6WLVvO1jTtfiFEW6n6eiIhxBMul+uvL7vssr1WtE/ViwWAg4yMjNwrpfxoCZu8aNmyZd852SfC4bDryJEj52ua9h4p5buFEOcBmMkRf1kAfwDwCwDbfT7fL6+77rrYLPpcMbZu3fpO0zRvgXXzwaeSllL+i8vl+nKprlOejYGBgWA+n99w7BIcZQsnXS4X5s+fjzlz5pz03IpEIvFsLpf7WH9//7SnB7Zu3fpq0zTvBzCvFH09iccNw/jrFStWjFrUPlUxFgAOMTw8/H+EECd9WM/Q15YtW3bpdL5g5cqVTbqunwXgDCHEHBz9JR0UQoQA5KSUKQBRKWVMCPGXYrH455aWlhd4cc3EwuGwq729fSWAzwGos6kbfwHQt2zZsv+yKR+9vb0XCSE2QuFFS0IItLa2Yv78+dB1fdLXmqaJaDR6XygU+vBUi6WtW7e+wTTN+wBMvOp1FqSUv/V4PO+77LLLjljRPhELAAe46667mgqFwmMASnXd3n4Ar1m2bNlYidqjWTq2Ovx62DwtIIToUzmP3NPT0yKEGBFCfEhVJgD4/X4sXLgQwWBwWl+XyWTSsVjssoGBgW9O9rpIJPJWAP8F64q6Bw3D+OCKFSs4mkaWYQHgAJFI5BsAPlaq9qSUH1m+fHlZHa5TLe644443aZp2C4A329SFvBDiX7PZ7IaVK1cmrQzq6+t7B4B/A2DJ3PhEmpqasGDBgimdSXEypzqdMhKJvAPAD2DdQs9fCCH+tru7uyzPyKDywQLAZsdOlSvZJR5CiG90d3d/vFTtUemFw2Gto6Pjk1LKG2HR8PEU7BFCbOju7v6qFY339fWtw9HdEKXazndKpb6oKh6P7z548OB54XD4xYWskUjk/VLK/xRC+EsS8ko/rq2t/ftLLrkkY1H7RC9iAWCjbdu21ReLxT+WcPXw4UKh8JqrrrrK1qt0aWoikUijEOKfpJQrAUw+SW0RIcR/CyF6li5d+nipmuzr67sR/7+9e4+Oq7rvBf7d58xIlqyHbfmBjI19IWAnQBcJNBiyICWProY0aZrWuk1uEiPNjB2wZTSyHF654XBzS0NzjbGNcayXi4FSnHT10pCm0AChvWHZTW/DTRMSTDE4sY0BWzOaGc1T5/zuH34sP2RrJO3ZZ0b6fv4DS7/fb81a9v7NPmf/NhDVFK8otm3jkksuQWOj3h35dDqdTCaT16xbt25vd3f3H1qW9V2U6EKo4yc3lpfDC5s0NbAB8FFvb+9jOPZMWAsRWR6JRM777JLKT09Pz9VKqYdh6Cz8CApKqW0Avj6RbWfHcari8fhjItKisbZRBQIBLFmyBLW1tSWJn81mc4VC4Z5gMPgXAMZ/89V5iMguz/O+tGrVqkIp4hONhA2AT3p7ez+NY88RtRCRXZFI5L/qikdmiYjq7+//MoBva5wDMVaHlFJ3tbW1PaaUGtMMacdxAvF4/Hsi8kelKm4ktm1j6dKlJVv8T8jlchgeHh71NME4/fWBAwdWOI4zXIrgROcyvrdkaEK2b9/eCOA7GkMeAbBWYzwyTCkloVBoZy6XW6qU2oxjA5VMmy8ij/b29r64Y8eOK8fwe2pgYGC76cXfsqySfvM/VXV1NWzbhufpPfGqlOo+cODAl7n4kx+4A+CD3t7evwKwQlc8EfmzSCTylK545L/u7u6rjp8W+IhPJQwrpR4ZHh7+xmhH0W6//fa/AHCnobpOet/73nfafRMmDA0NIRAI6Lpk65FQKLRmrLstRLqwATCsv7//E57nPQd9n/3fh8Nho9+8yIwTjwVE5C+hb0bEWB1WSt1xrscCa9eubVFKGW8+FyxYgObmUg3fO79EIoGqqgnfrfVAOBw23jQRnYoNgEGPP/54Qzab/QWAhZpCHrVt+4rW1tbDmuJRGdq5c+f0XC63Xil1FwBjtzqeSin1UxFZEw6H//XE/2tvb7/Esqz/C8MTDhsbG3HZZZeZTHmWeDyOadPGfRiAiz+VBTYABvX09PQqpUK64imlvhQKhZ7QFY/KW19f3xIR2Qzg930qwQPwhOu6nW+//XYiFou9DOBqkwUEAgFcccUVCAZL8jJ+0YaHh5HNZhEIjGnMgSilukKh0IOlqotoLNgAGNLb2/txAP8ETZ+5UuqZUChkdLwqlYfjw6MehsG5+mcY2L9//+5EInGz6cQXX3wxmprGc2eVfqlUaiwNgIhIRyQS2VzKmojGgqcADNi5c+d0AN3Q13ANep53q6ZYVGHC4fD3Xdd9v4jcByBnOn+hUJiVSqWML/6NjY1ls/gDQF1dHXK5oj5+F0CYiz+VGzYABuTz+Q0ALtYVTym1NhKJHNAVjyrPqlWr0pFIxLFt+0oAPzSZ++DBg9qPw43mxJjfclNbWzvaZ+EqpdrC4XC/qZqIisVHACXW19d3k4g8D32f9T+Ew+FPa4pFk8TxxwKbASwuZZ5UKoU333yzlClGNHfuXCxatMh43mKc54XAvIh8gRdzUbniDkAJ7dy5c7qI9EDj1r9lWV/VFIsmkXA4/P2GhoYPHH8sULJZ8keOHClV6HOyLMu3I3/FqKurG2kuQE5EWrj4UzljA1BChULhAQCXaAzZ2dbW9luN8WgSaWlpyUQiEcd13SuUUtrGTJ+QyWSQSpX0BuERNTU16Th3XzKBQODMdwHSIvKZSCTytF81ERWDjwBKpL+//6Oe570IfZ/x86FQ6JOcGkbF6u/v/4SIbBGRpTri/eY3v8Hg4HmHApbE5ZdfbmTc70Tk8/kT7wKklFKfDYVCL/pdE9FouANQAtu3b6/1PK8P+hb/hOu6bVz8aSza2tp+ZFnWB0XkGwDSE4nlui4SiYSmyorX0NBQ9os/AFRVVSGXy2UAfJyLP1UKNgAlYNv2/dC49S8i61etWvUbXfFo6mhtbc1GIpFvAviAiPzdeOMMDg7qmn8/JrNmzTKec7yUUgOnTkokKnd8BKBZX1/fdSLyLwC03BuqlHqhra3tE/z2Tzr09PR87Phtg5eP5ffeeOMNpNMT2kQYM6UUrrrqqrFO2/ON53myb9++uY7jmH9TkmgcuAOg0a5du2pE5FFoWvwBDA0PD6/k4k+6RCKRF1zX/SCADgDJYn7HdV1kMpnSFjaC+vr6iln8AcCyLNXQ0NDudx1ExWIDoFEymfwmgEs1hvzaqlWr3tAYjwirVq0qhMPhTcFg8P0A/ma0n0+lUr5s/zc0NBjPOVHBYJA3c1LFYAOgSU9PzzIR6dAY8sehUGibxnhEp1mxYsXBcDj8Bcuyfk9E/uNcP+fH0T/g2OjfSlNbW6vlxAWRCWwANNixY8c0y7J2QOPWv2VZIW79kwltbW0vHTx48EMAOgGcdc5vaGjIeE2WZaGmpsZ43omqqqqq3rp1q67rvolKig2ABq7r3qfrrDUAiMjdbW1t+3TFIxqN4zjD4XB4o23bS0VkJwABAM/zkM/njddTU1MDpSrvHWWlFLLZ7B/7XQdRMdgATFBvb++HAazTFU8p9fLBgwcf1hWPaCxaW1sPRyKRFZ7nXQvgX/P5vC/P/yvh7P+52Lb9e37XQFQMNgATsHnz5moA/dC39Z+2LOsWx3HMXrVGdIaVK1f+tKGh4fpYLNbnR/7q6mo/0mph2/Ziv2sgKgYbgAmoqan5BsZ4nnoUX29tbX1dYzyicWtpaXGPHj3qyymUcp79P5pAIDDX7xqIisEGYJx6enquVkp9TVc8pdTLBw4c2KQrHpEmM/xIWskNgG3blXd8gaYkNgDjsGvXrioAOwDomlKSBdDGrX8qNyJS70dey6rcf5ps266c6UU0pVXu3zIfJRKJe5RSV+qKp5T6RigUek1XPCKN2ACMkVJK1ztBRCVVuX/LfNLd3X0VgLs0htxTX1//oMZ4RDr5chi/Eo8AnsAGgCoFG4AxcBwnYFlWL4CgppA5z/NCLS0trqZ4RFqJSNanvH6k1UJE+CiPKgIbgDFYsGDB3QCu1hjyvpUrV/5SYzwirZRSRV0YpJvnVe4a6nkeG3qqCGwAirRjx44rAdyjMeS/HThw4Nsa4xGVgi8NgOtW7hoqIgW/ayAqBhuAIjiOE3Bdtx+ArrNJedu22xzHGdYUj6hU4n4kLRQqdw0tFAoJv2sgKgYbgCIsXLjwawCu0Rjym62tree8fY2oXIjIf/qR14/7B3RxXfcdv2sgKgYbgFF0d3dfLiLf0BjyZ67rPqAxHlHJiIgvx1MrvAHY73cNRMVgA3Aeu3btsm3b3gFA12DyYcuywqtWrarc/U2aUgKBwF4Axt/I8+MKYl1c133J7xqIisEG4DwSicQ6EfldXfFE5M/b2tr+XVc8olLbuHFjBoDx+wAymUxFHgUUEViW9b/9roOoGGwAzmH79u1LAdynMeTPGxsb79cYj8gIETH+jdbzPGQyGdNpJ6xQKOSj0ehbftdBVAw2ACM4vvXfD2CappDDlmW1trS0VO6DTZqylFIv+pF3cHDQj7QTkk6nOdKbKgYbgBEkEokogOs0hvwWt/6pUh1vAIzvxyeTvowgmJBcLveM3zUQFYsNwBm6u7svE5H/oTHkr2zb/nON8YiMeuihh94G8G+m8yYSiYoaCOR5Hmzb5pXeVDHYAJzCcRzLsqxepZSuC1CGPc9b0dra6ss8dSJdROQxH3IiFouZTjtuqVRqf0dHB2cAUMVgA3CKhQsXrgVwg8aQ3165cuVPNcYj8kUwGHwSgPF3WI4ePWo65bhlMpm/8rsGorFgA3BcT0/PfxGRb+qKp5T6tW3bOh8lEPlmw4YNRwD8wHTeZDKJbLb8N9ByudxwMpnkKR+qKGwAcGzrH8AOAHWaQnoiEubWP00yxidYigjeeaf8d9VTqdQPHMfhKR+qKGwAACxYsOA2pdRHdcUTkQ3hcPgnuuIRlYNNmzbtAfCC6bxHjhzB8HD53pvluq64rrva7zqIxmrKNwA7duxYDEDn1t1rjY2N92qMR1Q2RMT4NrfneTh06JDptEWLx+M/7OzsPOh3HURjNaUbABFRrut2A6jXFNJTSoVbWloqb4QZURE2b978PIB/NJ333XffRS6XM512VIVCwY3FYiv8roNoPKZ0A9Db2/tVAJ/UGHJTKBT6PxrjEZUdy7LaARh9v0VEsH9/+V2yF4vFtjmOc8TvOojGY8o2AL29vYuUUjpfanozl8vpvDaYqCxt3LjxPzX/3SnK4OAg4vG46bTnlEqljnZ2drb7XQfReE3JBkBElFJqOzRu/QO4ZfXq1SlN8YjKWjwe/xaAn5vO+9Zbb5XFC4Gu60o8Hv+833UQTYTtdwF+uOiiiyIiEtUVTym1JRwOb9cVj6jcvfLKK8PXXnvt80qpWwBUm8rreR6y2SxmzZoFpZSptGc5evToI+vXr9/mWwFEGky5HYBHH330QhH5S40h38pms/dojEdUETZv3vw6gNtM543H477OBkgkEq9Go9E1vhVApMmUawAKhUIPgBmawomIrOTWP01VmzZtelwpZfwCnAMHDvjyPkA6nY4PDQ192HhiohKYUg1AT09PK4BPaQy5LRKJ/JPGeEQVZ8aMGZ0AnjSZU0Swb98+pNNpYzlzuVxucHDwQ+vXrx8ylpSohKZMA9DX1zdfKbVBY8j9Sqk7NcYjqkiO43gzZ868RSn1nMm8ruti7969yGRKP3Yjn8/n4/H4devXr3+z5MmIDJkyDYCIbAUwU1c4z/NWhUKhpKZ4RBXNcZy8UupzIvJ9k3kLhQJee+21kjYB+Xw+PzAwcP26det+VrIkRD6YEqcA+vr6vgLgLl3xlFI9kUjkIV3xiCaD3bt3D1900UW76uvrmwFcbSqv53kYGBjA9OnTUV2t90BCOp0eisfj13R1dRk/8khUapO+AdixY8cFnuf9PYAaHfFE5KBt259/+umnedMf0RleffVV2bNnzzPLli1TAG4AYOSsnud5iMViqK6uRm1trZaYiUTi0OHDh5fefffd5TeCkEiDSf8IwHXdrQBm6YqnlAq3traWzzgyovIjmzZtulcp9UkAh00l9TwP+/btw759++B53rjjiAgGBgZeevfddxdyzC9NZv5N0jCgt7f3iwCe0BVPRPoikUhYVzyiyW7NmjXzbdveCeDjJvNOnz4dixcvHvNuQDabzQ0ODt62bt26/hKVRlQ2Jm0D0N/fP0dEfiEiczWFPJTP56+47bbbYpriEU0VqqOj44si8r8AXGAsqVJobm5Gc3MzLOv8m50iglgs9pOBgYGbHcdJGCqRyFeTtgHo7e39HoA/0RVPRD4XiUSe1hWPaKq54447GrPZrAPgqwCmmcpbVVWF5uZmzJkzZ8TxwalU6u1kMvml9evXv2CqJqJyMCkbgL6+vhYReUpjyEfD4fAtGuMRTVkdHR3NIrIOxxqB6aby1tbWorm5GTNnzoRSCslk8uDQ0NBdXV1dj5mqgaicTLoGYPv27bNt2/4FgHmaQr4N4IpwODygKR4RAVi3bt3s4eHhVgBfBnClobQH6+rq/mHmzJnf7erq4hRPmtImXQPQ09PzlFKqRVc8pdTnQ6HQ3+mKR0Rn6+jouArAfxOR38exZkDbv01Kqf0i8iMReXLWrFkvOo4z/iMCRJPIpGoA+vr6Pisi2p7Ti8gTkUjkS7riEdHo2tvb5yilblJKfUQptRTAEhG5CMX9e/UOgNdEZC+Alz3P+/HDDz/M8b1EI5g0DcCjjz7aVCgUfgl9W//vWZZ1eVtb23ua4hHROEWj0RoAF7qu2wigwbbtOtd1A7ZtJwHERWSourr60AMPPDDoc6lEFWPSNAC9vb1PAPiirnhKqT8NhUJ/qyseERFROZkUkwC7u7v/EBoXfwB/w8WfiIgms4pvAB555JGZlmV1awz5nmVZazXGIyIiKjsV3wBUV1ffA6BZY8jVfO5PRESTXUW/A9DX11fved47SiktN/0B+NtwOPynmmIRERGVrYBfiVevXr0oEAhco5S6DMeO+SwFMAdAA45NBzuxqMcBpAEkAexTSu0F8Jrruq/m8/nmYDCoa/E/KiKrNcUiIiIqa8Z2ANrb2xts2/60iHwcwE0ALp5oTKXUcG1tbaCurg719fWoqRl/LyAiX4xEIk9OtCYiIqJKUNIGYPny5XZzc/MnlVJfBvA5AGO7m3OMqqurMWPGDMyYMQNVVVVj+dWnw+Hw50pVFxERUbkpySMAx3GqYrHYnwH4OoBLS5FjJK7rwrIs1NTUIJfLwfO8YhqBeDAY5NY/ERFNKVobAMdxquLx+JpYLNYFvW/mn5dlWZg/fz7mzZt38t7vYDAIABgaGoLneSf/ewRrV6xYcdBMpUREROVB2yOAjo6Oj4nIVgBLdcUcjVIKTU1NWLhwIQKBc/cyIoJUKgXLsmDb9qm//0woFPqMiVqJiIjKyYR3AFavXt0UCAS2iMgXdBRUrOrqaixevBgNDQ2j/qxSCvX19XBdF6lUCtXV1QAw6HnerSUvlIiIqAxNqAHo6Oj4iIg8CWChpnqK0tTUhMWLF5/c7i+WbdtobGxEMpmE67qda9asOVCiEomIiMqaPfqPjEjdfvvtdwDYCWCmxnrOn1QpLF68GAsWLIBS4396UV1dDaXUzTfeeOOvnnvuuVc1lkhERFQRxryKLl++3J4/f/42AJES1HNOtm3j0ksvRX19vbaYnufJ0aNH74tGo/dpC0pERFQBxtQARKPRGhF5UkT+qFQFjSQYDGLJkiUTGvRzLiKCI0eObI9Go1/VHpyIiKhMFf0IIBqN1nie9wMAf1DCes4SCASwdOnSkiz+wLHHCtOnT7/mhhtuaH722WefKUkSIiKiMlNUA+A4TiCbze7CJFv8T1VbW3vNjTfeOOPZZ599tuTJiIiIfFbMa/QqFot9x/S2v1IKl1xyiZHF/0S+2bNnd2zYsKHDSEIiIiIfjdoArF27dj2AkIFaTlPsGX+djg8W2vDggw9+1GhiIiIiw877EmA0Gv2w53n/AmBMN+tM1Ny5c7Fo0SKTKU+TyWTS+Xx+3urVq1O+FUFERFRC59wBuPXWW2d6nvcUDC/+NTU1WLjQ6FyhkWqoFZEXfC2CiIiohM7ZAASDwS0AFpsr5ZjxTPgrhcbGxt/duHEjRwUTEdGkNOIjgGg0eoPneS+d689LZd68ebjoootMpjyvbDaby+Vys/kogIiIJpuzvmqvXLky6Hned2B48Q8Gg7jwwgtNphzVtGnTqoeHh5/yuw4iIiLdzmoAampqbgXwAdOFzJ8//7SresvFzJkzP7Vx48aL/a6DiIhIp9MagPb29moA600XMW3aNMyZM8d02qJYlqUCgcATftdBRESk02kNgFJqBYAFpouYN2/ehG73K7XGxsZrt27d6u/RBCIiIo1ONgCO41hKqa+ZLiAQCGD27Nmm046JZVlqeHh4i991EBER6XKyARgYGLgJwCWmC5gzZ05ZHPsbTX19/c2O45R/oUREREU4uaAppb7iRwFNTU1+pB2zqqqqYENDw0q/6yAiItLBAoCurq7pAD5vOnltba2xy350qKqqWuN3DURERDpYAFAoFG4GUGc6+YwZM0ynnJC6urr38zEAERFNBicWs4/5kbyxsdGPtOMWCASs+vr65X7XQURENFEnGoCbTCe2bRvTp083nXbCAoGAL+9KEBER6WStWbNmPoAlphPX1dWV9dn/c6murv6Q3zUQERFNlBUMBq/2I3Ftba0faSesqqqqPEcWEhERjYHled5lfiSu4AbA3rBhgy+fGRERkS6WiCz1I/G0adP8SKuFiNzodw1EREQTYSmlfPk2W1VV5UdaLQKBgPHbEomIiHSyABh/pm1ZVlle/Vssy7KMj0wmIiLSyQJQbzqpbdsVeQLgBKVUZU0wIiIiOoMvDUAlXP5zPkqpyplfTERENAILgPFpPGwAiIiI/GUBGDad1PM80ym1EhHjnxkREZFOFoCk6aQiYjqlViKS8bsGIiKiifClAZgEOwBsAIiIqKJZABKmk7quW9FNgOd5B/yugYiIaCIspdR+00lFBIVCwXRabTzPe83vGoiIiCbCEpFf+5E4n8/7kVYL13X/w+8aiIiIJsJSSu31I3EmU5mP0T3Pw9DQ0PN+10FERDQRluu6r/qReGhoyI+0E5bL5YYcx0n7XQcREdFEWE1NTf8OwPiClk5X5hpaKBSMvzNBRESkm+U4Th7AT0wnTqfTFfkiYC6Xe87vGoiIiCbKAgCl1It+JE8kjJ9AnDDXdbf7XQMREdFEnRjK/0M/kg8ODvqRdtzS6XSqq6vLl1MTVYbbBgAABQhJREFUREREOlkA8NBDD70CwPjRtlgsVlEDgTKZzD/6XQMREZEOp17L94Tp5J7nIR6Pm047LiKCfD5/n991EBER6XCyAbAs63EArukC3nvvPdMpxyWZTB5av379L/yug4iISIeTDcDGjRsPAvie6QISiURFHAnM5XL3+10DERGRLtYZ/30/AON39b7zzjumU45JNpsdikajW/2ug4iISJfTGoBNmzb9XESeMV3E0aNHy3o0cDwe/5bfNRAREel05g4AROReGH4XQETw9ttvm0xZtHQ6PdjV1fU//a6DiIhIp7MagC1btvwMwDbThQwMDCCVSplOe14igkQi0e53HURERLqd1QAAgOd59wA4ZLIQEcFbb70FEeOvIJzT4ODgK11dXY/5XQcREZFuIzYAW7ZsSYhI1HQxmUymbB4F5PP54UKhcLPfdRAREZWCfa4/2LNnzy+vvfbaBUqpD5ksKJVKoaGhAVVVVSbTnkZEMDAwsLqzs/PHvhVBRERUQiPuAJxg2/ZaGB4RLCLYt28fhoeHTaY9TSwWe66zs/M7vhVARERUYudtADZu3JhxXbcFQMxQPQCAXC6HN954w5f3ARKJxG8HBgY+ZTwxERGRQedtAADg4Ycf/rVS6jMAjB7UTyQS2L9/v8mUSKfTqXffffd3HMepnBuKiIiIxuGc7wCcavfu3b9dtmzZ/wPQgiKaBl3S6TQ8z0NjY2PJc+Vyuczhw4c/eO+99xo9/UBEROSHohoAANizZ8/eZcuW7QXw2bH83kSdmA3Q0NBQshyZTCY7ODh41Z133vl6yZIQERGVkTEt5Hv27Pnldddd9zKAPwZQXZqSzpZMJuG6bkl2AtLpdCqZTH5w3bp1e7UHJyIiKlNj/ia/e/fuN6+//vofichnAdSVoKYRDQ0NIZPJYMaMGVBKaYmZTCYPHD58+NK77777oJaAREREFWJcW/m7d+8+dMMNNzzmed7vAHif5prOKZvNIhaLoaGhAcFgcNxxRASxWOylI0eOXO04TvnfRUxERKTZhL5KL1++3G5ubv66Uuq/w+B7AbZtY9GiRWhqahrz7+bz+UI8Hl/Lc/5ERDSVadlL7+jouEpEHgFwnY54xWpsbMTixYuLmhp4/GKfXxUKhZs6OjreMVAeERFR2dLzMB2A4zhWLBaLALgfwCxdcUdjWRaam5txwQUXwLJGPqE4NDQUGxoaWtPZ2fnXpuoiIiIqZ9oagBPa29sbLMu6DUAUwFzd8c8lGAxi/vz5mD179slGIJ1OJ4eGhjZEo9H7TNVBRERUCbQ3ACesXLmytqamJgwgDODKUuU5UzAYzDc3N79uWda2aDS61VReIiKiSlKyBuBUx98R+AqA5QAWlCCFC+AnIvJEoVD47rZt24zeXUBERFRpjDQAp7r99tuXKKU+JiI3AbgGwCKMfbxwGsCrIvLPtm3/uKqq6p8feOCBQe3FEhERTVLGG4Aztbe3V1uWtUQpdZnnebOVUo0AGnBsyFAOQArAkFIqBuAty7Jef/DBB3/rZ81ERERERERERERERERERERERERERERERERERERERERERERERERERERERERERERERERERERERERERERERERERERERERERERERERERERERERERERERERERERERERERERERERERERERERERERERERERERERERERERERERERERERERERERERERERERERESTw/8HkJg4pNLpJjMAAAAASUVORK5CYII=;" vertex="1" parent="1">
          <mxGeometry x="80" y="760" width="90" height="90" as="geometry" />
        </mxCell>
        <mxCell id="qm9onJdicJjvLXKeHIaW-35" value="" style="shape=image;verticalLabelPosition=bottom;labelBackgroundColor=default;verticalAlign=top;aspect=fixed;imageAspect=0;image=data:image/png,iVBORw0KGgoAAAANSUhEUgAAAMgAAADICAYAAACtWK6eAAAAAXNSR0IArs4c6QAAElJJREFUeF7tXVuO1MgStUXvY5iVACuZ24vokviC/kIqFnFhJUOvZJh9UPJVGLuvu7oeGSdPpLOcp6QRaEjn40ScjEe++k4/ISAEziLQCxshIATOIyCCSDuEwAUERBCphxAQQaQDQgBDQBYEw01fNYKACNKIoDVMDAERBMNNXzWCgAjSiKA1TAwBEQTDTV81goAI0oigNUwMAREEw01fNYKACNKIoDVMDAERBMNNXzWCgAjSiKA1TAwBEQTDTV81goAI0oigNUwMAREEw01fNYKACJIg6C9fvry9u7t7++vXr59z8Y8fPz7/PaEKFblRBESQI8Ht9/v/dF33ruu6913Xvb0i1x993//ouu7JyCPS3CgLLnRbBOm6biLFXxMpcqRshHkUWXIgrOvbpgkyEeNTgqXwSs2syvfdbvfN+6HK14VAkwT5+vXr+2EY/htAjGPp/jgcDvdyvepSek9vmiPIfr//m+BKeTDu+r7//OvXr+8iigu2Kgo3QxDLRL1588ashgXfa/xkTdZAPbPNJggykeOfTKwYn/88HA4fZEkYUJapY/MEqYgcs0RFkjK6TWll0wSpkBwiCUVty1WyaYKsEZCnis4C94eHh8fU8iq3DgKbJcjXr18/DcPweR1Y01oVSdJwWrPUJglSsWv1StaHw+FPBe1rUuBy25skyH6/t4zVtX1UKVKZV8KfrHDf9z+HYXjb9/0fwzDYnq3sNmRFUsSwXpnNEYTkWn07HA6P12b2aUV+3sMFk0VWZD0CXGt5cwTJtB7QYh5h68q33W53f01Y+vfyCGyKIJmxx4/dbvchRwT7/d5W6s31cv9kRdyQFflgUwTJcK+yyTFLCyWJYpEi+u5uZFME2e/3gxuBrvu52+3+BL47+wno5tFIyhxL63VthiCoe9X3/YeHhwc7v0H7TTGJ7Rp2/eRmueAqUngzBAHdq7BZG3S17nXIqojeJzeyGYIg20oirMeMPGhFlM1KVt0yBVsmCD32OBYZEIuIIGX0PrmVLRHEG6CHuVeLjJb39GJ4n5I1QwVHBFomSPhsDcQh4VZNeu9DoFmClFh3EEF8ylhj6WYJ0nVduAUBMmuyIJWxRAQJFIgsSCC4hareEkG8W9zDA2IgixXep0J6tZlmWiZIF7lyjazsl4iLNqO5hQayJYK4d9JGKiQQf4wXzOmceiHNT2xmSwSxbeZGEs8v5AoexHqMOfeAfWEeMFT2NQKbIQi4tSNk1kasRxewq1gKn4/AZghiUABB8e/VUuLMjRK16zoF6Pn6TK9hUwQBZ+4RVEbAjrpWk1S1k5eu3vkVboogk4La/if0AgVYSTMsh0lRC4T5uhxSw6YIMrlZ7mzWEbJJN5rM30yktEd4oLPok4un7FWIeudXujmCEKzIjOq3vu+/n3tObfGWIUyMqSFZj3w9DqthcwQxpHJikTNI24u29t/suqEu3Kvqt7z2YZPIdMneSdzsAdRhGP49HA4/rt1BFsaAKxVvkiA5Ga3Cgthc5mraf5byQvApqKt7BHWzBCFc5hbNlZBFyuhOn6qf+ErwsnpXLBg17s0SJMjVosmBufZC65SzomkSsgRF2LN2a7/vuGmCVEwSOJ3s1OGw4sglGRmd+dn3/T37eqaU/myeIKTUbwqWSWVuPSgvYTXOAbmGNWmCIBVZkpu2HJmLoUkTSEIh6ILxhHpPFmmGIAuSUN71AAAPP+IL9Cn5k0rIMfe3GEmaIshEkvfDMNhqO20tI1XLGPu9UttilquMHEVJ0hxBZnSn1KRlYIoR5Rbjj8wNmEyevqqrBJ7NEmQtotySFSFu2wkjSjRJmifILDnWc2oJmnAzgXrAlp0EePxFIicdEeSEPIws0/9+Z492HrlhtidrftATCfhvYnNikGsVtactLAEigvgnrOcvMmbY6q0IejrzCE57Jfjp3GbEaSKySQiZaF40FbUzQQTJIIh9CipS1ZsUCdZj3HToWfnO3ORoogjBVATJJAhqRSL95swhGem9t9I/N5kTNOduMI3AVATJ1CY005OjSJldvvh5jvVguTmgVbZx0WMREYSgbcAdvGOrETNe7nBQi8gkPDrpRGAqguRq1O8TjLY67360k6lUhGGMVYDuFT0zNy3kei8CpF7hNGYrWcC2Xk+OW7A4T2Ep5TGNPP1sm7e9wPt07mw8E3fUvWK5VsdjQTBlTzoiCEnD0BnP2byR5XvUGW7QEtKtx4wJ2B9qNksEcWropeLIjJfRPP1IKhJ/sGdshhXZ7XY0vaZVlCHozXyKKBhh8DSiIP1nKuMpLJAECDP5IYIQNHRZRWErsoxVso+kAsoY5l7NA0NcVxGErNTM6sAsEKULuUdSgb5XSRBm0kAWhKKavysBFIzY+u+qckgC9J8aEJ8CAwnURRC6WuVXCChXfqNnakBJAoxBFiRMihuqGFCs8NF7SJJz8RvT3z9jQT4Nw/DZAxgzcSAXy4P8ibJI5iezyeTPL6Vgc0ix7EA0QZDJRwRJVpHYgoh/HNuj17Uv/XEWKZatRK6DgCv7VLdPFgTUWFB4YGtZn82n+KKuBw27Yxi0ztQdvSIIqHug8M61ZltIlkd552O+x8d9wd7GfhZhRdAJiN0XEQTQHVR4R00l7avKPUQEDA/6hB2LAIuWY7/Z/RBBAHUgWA/3mfQ17vFyQkNztZDV86mv1PjD6hRBnFqQaT2ybinPOUjkHCZaPPtK0JzJh+1eiSCAGmQIkDa7rbTfKxUteBJAUrrLTjHTu3O9siCpYp/KgUKkuR/WjRuwJNbNZGuS4VI9Sy/CesiCOMmBulcRwsuwZM5RZxe3K4DGxzr7vh8zddNlfPbXv0ivU9Gs8/FoZUEc8geVMkx4BVyt5cu+DqTKFo2YgORiATJECBIpPIZrcgKG59sQ7+7u3q71VIRDPKE7imVBHJJAcvMRgeOyyyQrcvaKUGRScECaWzTMOsuCAKIBAvRwAWYQ5OK9uUcktOt37P7cqn7Mcx/nBiYL4hD5fr8fHMWtKHVf0Km2EauGrDZnENEJWVrxEuRQFitNFs+lvASJjD/mTiEEQd0+pC0nxEnFS5FDBEkSx/8LAbNouAUBYoQst29lksCLkE5RPxeXi+VArkaCAAqbRRCDa6V9YaHZKsUgDiKcKwoE6eFCXatP06KpBe9R50yWYnBv7iSIe6xCFsSBJKCM9O3Xy+6CK/tUt2/ajm+vBUcQhdpXh6jlYiFgAe6MNRM2+wHxx3gt0MPDwyMy/kvfEB9BHdPPu93O/lz9JwviEAF4Bp26UXHZXSAmCiPIsl+LtwfNqlw7FTmfpjz7lqFDRPSiIogTUm+qd6qebkUQ62F9QVO8TpheFTd30Lau2DMO8z9+/Phx+dRDbhMh34sgTliRWduaQBbnznUNjD2suvCkgRPO6ouLIE4RoTO3XcpwOBw+MGZNJFlgw4yKP5wQ3lRxEQQQF2pFPIeITnUrN7W6lnsFQFzNJyIIIAowm7Vs6d77ShRpazvtLREAtpv8RAQBxEZSVjtp93jt7cGA2xCTj8IC0GzuExHEKdKMGORSS2Oq046kLo6jzilSZw+Ti9Mza8kt31BBEcQhLIJr5WgtvqjnBvj43tTZggiSKBc0c5RY/ZrF5HJdQF8ESVDNDZNjHj0tBZ0A500VEUEuiCs3rXpTmvC7s4pLjoQmgpzRYnDf1Q1y4mWXFZcc4XHzEg0YQKvkWEBJj0vmvVjWxrwfi7GrIED8L6qUBTlCWOR4AQjkctnaTd/3fwzDYKnqa+dExgd+UtaEoslwqn4RZIEKeY2j6K2EdpGBzcxv3rz5e9piTtGnVJdrcR4k93qgpHdTKINLqEQEmUBirnEslHU+aWdnIqJ+r07dMccydfqsyxV4otAmmEfvlhw2yCLI70sIbNa95gqkYP/q1o2FAl07OJRS/7LMxX1VARcrvEoFE3G7NPZVidI8QYhCvnglzRSk/jUMg7kgqEUZj6EeDofHlAA36Pm2+0mb7cKGkr9VNlo2SxDyGofrINJ0JNWU690UyC4JM//dZk7zx+2XdRw1wOUqSYxlW8UXNKskyOQejAq0cH2WSjQ/bWyHgEyJnq7til2iTM5UucixlmZNCYgc67VW11+12+TNihMpZkKgLsjVDEiL5Jg1LMjlWoU4pUiyugUJOO8wCuxUepJJjls9vnojz7clkY55zv9cg6sRJDA9eDzW8fTe3d2dBcifk5C/XghaQLtebbkSG4lLwmOSVQiygnBoi3alTHsJqmwhLkldyETxLEoQcuYIHTP6XfGbxdGOer7bSFwSZtGLEYTp/3sUgFR2k+RYYhNs1cfrRKfYcDxWvNirxVhADXO1ihDkxslxE2lcxkRAdrnGSykeHh7mtZyzXWS0G5U0CSdIxi2ADJnn1tEMOYipYNjaZlqxECsSSpAbTyk2R46ZJOD9w/Z59jmSHGsSYUVCCULc55RrCVzfRwDt6sCKhTMsfvbLVQsr9glMydMntTCCkC5XK64qW0rjIuChZ2LYuKH9YC8ehhAkYxY6J9NxF6tdrGZ/Ljb4oVtSTrbDFjKioGt/g9w7HGVxkb6wL54IIQjK/iPluJoFWTzUwtiEF5ZLX1vpU9sHJzaaa3XcT1CPqM+20QkCgrzEBsqCTBmQnOs6mycIko6Psh6LhME/zvMzVMLSCQKyfsYjK8jKXBXOajt1lq65HCK7aLcUSfQwn3mgEwT0G01vKKYxJ7XMDvBqJsOpviEEYSojq09MOVIJkuFeUc0iIugpCRDyAuytEAVYqKPK7RROSDa0WoKgiskc0MJ3tTPT3itomnazAHcmHC8wLvqQssUlZeKiWhAA4LB381BXK4KsKYKooQxgQcIJglgQZlzEJsjgFXSkDwsI3AhLm328WKxdHsAr3MVCvBKmTtEIAsYfoQAjsw97oWltpfe0jyhjtMVF+rQZgkTn0E05gI13lGyaRzFrKVvjhALIjzrp0iwIEkyVmK2BtHOzBAFlGIZXDV4JjSDI7FPC3wcIEh541mIxzqRVvSvXdtPjnyk3PXrHXUPSpwWCeO/dbZ0gUHr8cDjcM0kCWjN6koVGEHBA4fufAAsS5jJ4Z9A1yiOeAHuRFXStrBvU+GMcF0sIIEFClREEOrRPLLyj6gHlOHeHMuEhrhWbpPOAaAQBM0ah7gwi7BKZtSjlZtULrIc8N51zT1XutVARMS2bINUEeCYxJIceATJLcUvVg0wsR327epbneCyIrI7b3O12H9gYsQniDYijt5oYYV0/5iKTq+HKCudYkcVQRqKcu3mfdGH52FxUJo1KEHQWiBgc2Bd6kFeZ3id3B93LdqGB5ycrpgNQzOPSYa46myDvh2EwK+L9Ue80Ql0ExR8vxQZOMl7ZZ5ePmGBDgvQpUHfHIfYdSznBzNWIh+KP17oKpMmzFd5TQbTMqBbEBpY562S9Q4dajkkgcq9OaGaAq+XR/4tlWZPqpUboBMmxIlNH3RkQAjFpFowm/YoqqpQkYXHHEvoQgmRakbl/FzMgcyF05fdI/2Q9rhAy50rQAK4XIcfodgd0fqyS7LvaDeF2HdB4df7U55wrfl4Mu4SpjsK5ZL2Zt8awulp0p0MYQUhWhAXqpXqKzUYlBhPdxpruVnRAfgq7MIJMVsS9cBgt4OP6I1OEpcdSsj3CRX2e7kKXCXoaOFc2lCBrzjYp4KwxI6X061bKFHqIlbIBEsU0lCDWqVpJorgDVZnX3wURZVVizKMMJ4g1VElwt5Rs0UCPp4p117S4THxOoHi3k3zr+/47604rBlpFCFITSWQ5GGqTVsc0Mc4Pds6PdY5PWEwZyX/t7/aOPfM0Ylrv0koVI0glJKnCbKeJRqVqQKAoQeYBk7ZSe/BbLQvi6aTK1ofAKgQpaU3kUtWndLfUo9UIsrAmdsH0J+cjKSkYZ218TGlAZbaPwOoEmSFepArnYA5B394yfNrtduObhvoJgVwEqiHIciAn0oX2z8cpQ8uG2B4t+z3VnAnJFZK+Xw+BKgmyHhxqWQi8REAEkUYIgQsIiCBSDyEggkgHhACGgCwIhpu+agQBEaQRQWuYGAIiCIabvmoEARGkEUFrmBgCIgiGm75qBAERpBFBa5gYAiIIhpu+agQBEaQRQWuYGAIiCIabvmoEARGkEUFrmBgCIgiGm75qBAERpBFBa5gYAiIIhpu+agQBEaQRQWuYGAIiCIabvmoEARGkEUFrmBgCIgiGm75qBAERpBFBa5gYAiIIhpu+agQBEaQRQWuYGAIiCIabvmoEgf8BS49Qbm3LwDQAAAAASUVORK5CYII=;" vertex="1" parent="1">
          <mxGeometry x="155.01" y="710" width="30" height="30" as="geometry" />
        </mxCell>
        <mxCell id="qm9onJdicJjvLXKeHIaW-36" value="" style="shape=image;verticalLabelPosition=bottom;labelBackgroundColor=default;verticalAlign=top;aspect=fixed;imageAspect=0;image=data:image/png,iVBORw0KGgoAAAANSUhEUgAAAMgAAADICAYAAACtWK6eAAAAAXNSR0IArs4c6QAAEmVJREFUeF7tXe2RGzcMpSpxUkniLuRfjitJXImdX94uYlcSp5LLQEeeaZ2kJR4ALnf5NJOJZ45f+4BHgCBInhJ/RIAI3EXgRGyIABG4jwAJQu0gAg8QIEGoHkSABKEOEAEMAVoQDDfWmgQBEmQSQfMzMQRIEAw31poEARJkEkHzMzEESBAMN9aaBAESZBJB8zMxBEgQDDfWmgQBEmQSQfMzMQRIEAw31poEARJkEkHzMzEESBAMN9aaBAESZBJB8zMxBEgQDDfWmgQBEqRB0Ofz+ZeUkvz3vRRfluXl3w1NsMhOESBBrgR3Pp//SCn9dkrp90yKR6L9+pTS15TSNyEPSbNTFjwYNgmSUhJSnFJ6n55JYfkJYT6SLBYIx6o7NUEyMf5ssBRaqQlR/l6W5bO2IsuPhcCUBDmfz7+fUvoUQIxr6QpRPtD1GkvpNaOZjiDvzud/HFwpDcbpKaW/0rNF4cJehdz2hachiESistWwrjNQqdGaoMhtWG8KgmRy/LshzqXr708pvaUlGUASjUM4PEEGIgdJ0qiUIxU7NEEGJAdJMpL2N4zl0ATZYkHegPmliCzcl2WRPRP+BkbgsAQ5n89/np6jR8P+SJJhRfMysEMSZGDX6pVGPKX0Kxft4xLlkAR5dz5LxEqSC02/p5TKTrjkWslP9jGk3TenlCRny6MPulomKcVWPhxBPFyrTIyPazO77MinlN43JjbelSStSKySW1o/HEGM1gPazLOmrgghl2X5YBEk68YgcCiCGNceX78sy1sLzOfz+VN2vdTN0IqoIetS4WgEQSNXZnIUaaEkYUSri76rOzkUQd6dz09qBFL6/mVZfgXq3a0CunluJPX8ltnbOgxBUPcq50bJqUC3X16TSNaw6kc3SwVXl8JHIgjiXoXN2oirlc+O8JBVF9Vv6+QwBEHSSiKsR7UWkUNZKivCaFab0vYsNTNB3Nce14LTrkVIkJ6q39bXkQiiXaCHuVcFesCqhY+pTS1YqiAwLUF6zNbAOiTcqlH1dQjMTJDwHCgSRKeMI5aemSDh6R1AXhgtyGAsIUECBUILEghup6aPRBBtinv4glgbxUophY+pk14dppuZCSLHXsMOKyE7+8zHGo9XhyEI4M6EngsH1h+h4xlP9fYxoiMRRC6glutENb+Qe6oQ6yGDjtzZ14DCsj8QOBJB1KkdWSndw72I9ZDjvN5ZxVR0OwKHIYhAASyKLwh6ztxoJi8X6HZljmjhUAQBZ+5CEvOCHXWtMknlFnhm8kZouaHNoxFELqiWDFrothFLurnBcoj46F4ZlDiy6qEIIkAh0awa4NYbTUqd/H6hnEWRa4CgH8O7EGxdKh2RICYrUlDPRPn73nNq1VuGMDFyX7QeXVQd6+RwBMlWBDld+AhBuTCuXBon5SAX7lYHR7YeeRJ5U/A6XeGWH0D9TwIUa3eQYeptr3VIglgiWnZIVS0cLrUku7gtLwTfAmq4R1APSxDrZW4qNccKh2xSYkOx1XJ8JfhlINq1oO0L7tc+LEGCXC03OXjuvbgNStlQnoTkleCwZ+22ft/x0AQZlSSWcLJSh8OKA8eJLWMRayv7RK7XM7UM6PAEySSBrwRtAVFTZu+L8h5W4x6eW1iTKQgyiiXZu+UwboZq5pFHZaELxtHOpyFIRRKXdz20gPe4JEI7Jk35QchRhtyNJFMRJJNEsn4lLd5tL6NV0SIPaLWOASk3GDm6kmQ6ghR0c2hSIjDdiLLH9YclARMho6ZODzynJchWRNmTFcnkgJM/NcqOlo0myfQEqYji8pzamqD3tFC3HB9Yw8Hz75GTDglyQ1L57UH5y2/igtU5RE/POVny+w4+5LmL5MQg1yokpy0yAEKCGKYydIbdgxVBT2fWcOZ0EXkh+GYyYp6IfgMnmp8kF5WZQIIYCCJVQUUaOknRwXpckg41O9/GJEcRRQimJIiRIAYrYj7iaxz63eqWNBLLotmaYBqxFiFBjFqGRnosimQc8sPqFuvh5eaAVlku33C/b5kEcdA29JhvxIxn/RyDRXS7PgmddOTbvTElQawa9XwOfpg7uayfA7pX7pG5vJGrvQjQ9QonwZIEsWpUrm9xC04/zlPIrn4JI19CyflYqkSCvkcfS0XdKy/X6loUCKberisJ4kQQdMZTdi/RIblIIuQMN2gJ3a1HwQQcj2s0iwRRauij4siMh3YfcSQVWX94z9geVuTLsrjptVtDqKCPVA9RMOv3exIFGb+nMt7CAgmAeC7USRCrhl7V72lFqq5djqQCyhjmXlVulvrWfhLEWak9mwOjQC5DsB5JBcY+KkHeanbxH4FPC+Kims+NAArm2PtzUxaSAON3XRDfcbHUIXTPqBoJ4qSigHI59fy6GZQkwDfQgoRJ8UANA4oV/vUaklgufvP09+9YEPU1sp6BA1oQo6oikR9jl83VH4VgLaSoBxBNEGTyIUGaVSS2ILiRFTuoq9Zrf9yLFFcEccvBugYG3Nl3dftoQUB1BYUH9maqVk7xRV0PGnbHMGKdvTN6SRBQ9xDhPehKUkhejvJWx3wlN6vbrSsgFCHPV6MTkPfOPgkCaAUqvKuumvKqrIeIgM+DqnivRYBNyxLmdj2IRoIA6mC1HsiZ9C3u8VJC4+ZqGRI/Xdcf8v0kiFILjNbDlBJiOUik/Ey0uPlKUMvk4+1ekSCAGhgE6Da7bZTv1YoWPAkgId16UJ7h3dIuLUir2HM5UIhu7ocMYweWRIbZbE0MLtWL9CKsBy2IkhyoexUhPIMlU361ubgQRR6+kcc6S6TuEpk7pfTe6XUqN+t8/bW0IAr5g0oZJrwOrlb9sq8Cqb5FIyYguliADBGCRArPwzW5hqG+DTHvx2zyVIRCPKEZxbQgCkkgsfmIhWM9ZA8r8uiKUGRSUEBqLRpmnWlBANEAC/RwAaIEWbs3t4YHmRgAeNVVPM993OucFkQhlnfn85OieMhNf9f9I8qL7HqjRNTgpSnbgxyMYmkk8nxiUEuQsEzXMnSEIKjbh/SlhLipeC9ykCBN4vhRSDuLemeW3housEYwuX0bkwTehFSK+qU4XSwFcoMSRPsGvIkgAtdGeWGh0SquQRREuFcUWKSHC3WrMeVNUwkBR50zeREDktzpIO5LE7QgCiQBZXS/bfwquiTPw/2r+AT3wEFOx5fXgt2J0sNFXcOOBFlDqPo74n9Hzn7A+iPkcFN2u1weQS3h52VZPitEE1aUBFFAC55Bd01UrIerXRNJ3cid/SqyJmSRtwfl/2unIstpyrtvGSpE5F6UBFFCqg31ZqX84D0jItZDxoKGeJUwvSoua5ZMlpfnHaKfc7COmWsQAEFk1s4kcTsKimYVRz10CcC4myq0IEpRoTN3fgxH7oytH8hR9v5cHAkW9HKvoA8auBIJAggHtSKaQ0S3hmUNrW7lXgEQD1OFBAFEgUSz6m4ksqV9Jcojtd3zLREAtl1WIUEAsXkoa7YmH9feHgy4DbH5KCwAzeGqkCBKkRrWII96KqHOlxN8VYhUOcK24pH7M20j2EcpEkQhJ6trpeiqS1HNDfBdBjRgJyRIo1DQyFFj81sWo8v1AH0SpEE1D0yO8vVhu/0N8A5dhAR5IB5rWHVoyd8YHNclr0EhQe5oMZh3tTdOvBov1yU/Q0KC3FDpWclRQeG+LqlysaSbSzaBR1ZB9IxEglwhTHL8AAR1uWTvJqX0Joeq186JXB74eUppdU8omgy32idBKlSc9zi63kooFxmIop1S+sfz0Z1Wl0smlpTS+1NKQg7Lr+ndFEsHmrokSEbLc4+jKGtKSV5oLWciNHJpLnvr1J3nt+SB3HW5Ak8UFqvydUtXjAQxZMfe0OJXt25UCrR2cKiZFFJwLa8q4GKFV6HgTuHvTYkyPUEchfzwSpq8SC0uCPTuYCaF8ONjy6wa8XxbTrSUywzkwoZuv7UJIWog0xLEeY9DdXtJ9tdFpvWx1CLjQh4hnDwbID/TcdQAlytKH9fa7b6hOSRBchSkViD5dz3rlqeNxdUQJRIF+t4yq0pDzpEqFTnWNCDq7zkAIQtoyHpFjQtpd8qbFTMpbs2oGgxXIyAzkqMAGOFyaYTjWbYXSTa3IAHnHS5yuBWe9CRHj9tBPBWqIoncpeUaCo4YZ0ubyCXcLe3WZTYjSGB48CcMyum9HKP/SwvQrfLoBppH315tHGRdEr4m2YQgGwjHbdOul2n3IsKjdo6wLmndyETx7EoQ58gR+s1ove43i6MD1dQ7wrok0qJ3I4in/69RAKeyhyRHjU2kVa9es5IuizUvuVoeG6hhrlYXguycHLsI43pMBM4ul0QUZUOz7OXcHaJHv1FBk3CCGG4B9JC5tY1pyOEYCoatrdGKhViRUIJkcuw1pDgdOQpJkPuHc13zORKLNYmwIqEEccxzsloCVf0IoFUD2LCwweKbX66qrJhkQSMhefdJLYwgTperdVeVI4VxEfDQMzHeuBnG4XZJuOAXQhDDLHRTplUW6+WoZuO7E2r98BayegADVEDuHY6yuOBYXJ+aiCIIaiJrFVmNguSsWMnfMifhRcbSB9D7piGAE5uba3U9SMSKeD/b5k4QEOQaGygKkiMg8Ok9EgTLco6yHlXAQN5g1GQguxI2giAW62FaZBl3hU19N03RgxcCZ2x582R1rwP9dCTQ4/nMgztBEL9RwPMyjZbQco/sUFRRetRDCOKpjLe+ERmTpxxdCWJwr1zNIgJqJulfy7LI9TNT/oCNOle53SHIH9rjvSMTBHKvPD+oiqV/Aq6gmdrNAtyZcLyQNCXPaKSrBQEADnuWGHW1Isi6F3MEWJAeBEEsiNu6yJsgT1pliPRhAYELYd3A1WKxdXkArx4ultor8dQpN4KA649QgJHd/JnDvcjaLdriImM6DEGiY+gyI2sT77yiaVtbA6T/EScUrfzkvMmXZfkV+f5bdTwtyO/5MoDmsfWYrbVh58kJgsjw87Is8mqv+28Er8STIJsupu5JR0sQeX32y7LIRdBT/gC8ZN3mmiBYgB8h6DMDQeQ8ytoV/DUZpiYIsFAX7MznQK5nIyS8m/eyXIMsngRBzLNr5uWtKV87I87sYgl+yDokK6bbJivoWskwXNcf0uDWBAnzX7Ow5ZI0SXZr/pEgZ/VEV8D1WlMirpU3Scs3uRFEGgQiDqHuDGKme0TWmtm6UUHQzbqM1nJPlfVaqIg9LG+CaFOTwxZ42YKoN5kiQN5Iz+FukYnlqrPVszw31hxqWV33GRFc8SaIdkEcnWqicq8EcM9NJlhDB6hosSLV8C9EuXfzvtOF5cVyhUTSXAmC7Hpms+z+ceBY3Bd5A+g6NAQ0l+1BZy9PVuQDUJpDUGvfEOaqexMEXeC53mmEughcf/ysh+Aks6bM7n+P2oeRgboSJC/U1esQzwiEIUQ4daLiPa3VhsndtX+lweg1oztBLLOO9R061HJkGdC9uqGMAa6WG4d6WHx3glisSEZOHQFBI1a1pHqA7aYZnRsalCRh644a3hCCWKxIawSklEN3fq90jNZjhXSWK0ED+NyFHCFrkAKGs+8qVqVEQS7Rj+ryODP+tB5tEBpvjWnrZH3NEZp9cd19iAXxcHlc0GxrpNts1DacsUtt6W5FL8hvIR9GkLwWUW8c9laPyBBh72/p2Z/1oj7lWKHLBJV93CweSpAtZ5sWcLaYkVrGtZcyPR5i9UqARDENJUh2tYZ8dpjrDlRlXteLIMrWxChfGU6QTBLZYf+kvGPVT4JXLc2e0h4FbHWZeLkjWZVOkvfB/o68ylT77V0IMhJJaDm0KoKXz4QRkryRyfGU0i85GimNSlTyv9z612VZLk9bjPbrRpARSDKK2R5NCTie+wh0JUgZhlMqtUaum0VBNINk2fEQ2IQgPa0JXarxlG5PI9qMIJU1keuC/vRewFsTH/ckRI41DoHNCVIRRSJdhSiq6EdpI5Pi27Isn+MgY8szITAMQWrQb4QL5c/XpJF1RXnZ6JvczTRqJGQmhTratw5JkKOBzO/ZLwIkyH5lx5F3QIAE6QAyu9gvAiTIfmXHkXdAgATpADK72C8CJMh+ZceRd0CABOkAMrvYLwIkyH5lx5F3QIAE6QAyu9gvAiTIfmXHkXdAgATpADK72C8CJMh+ZceRd0CABOkAMrvYLwIkyH5lx5F3QIAE6QAyu9gvAiTIfmXHkXdAgATpADK72C8CJMh+ZceRd0CABOkAMrvYLwIkyH5lx5F3QIAE6QAyu9gvAiTIfmXHkXdAgATpADK72C8CJMh+ZceRd0CABOkAMrvYLwL/A/4dLlASUPl7AAAAAElFTkSuQmCC;" vertex="1" parent="1">
          <mxGeometry x="314" y="460" width="30" height="30" as="geometry" />
        </mxCell>
        <mxCell id="qm9onJdicJjvLXKeHIaW-45" style="rounded=0;orthogonalLoop=1;jettySize=auto;html=1;exitX=1;exitY=0;exitDx=0;exitDy=0;entryX=0;entryY=1;entryDx=0;entryDy=0;" edge="1" parent="1" source="qm9onJdicJjvLXKeHIaW-39" target="qm9onJdicJjvLXKeHIaW-50">
          <mxGeometry relative="1" as="geometry">
            <mxPoint x="488.01" y="683" as="targetPoint" />
          </mxGeometry>
        </mxCell>
        <mxCell id="qm9onJdicJjvLXKeHIaW-47" style="rounded=0;orthogonalLoop=1;jettySize=auto;html=1;exitX=1;exitY=1;exitDx=0;exitDy=0;entryX=0;entryY=0.5;entryDx=0;entryDy=0;" edge="1" parent="1" source="qm9onJdicJjvLXKeHIaW-39" target="qm9onJdicJjvLXKeHIaW-46">
          <mxGeometry relative="1" as="geometry" />
        </mxCell>
        <mxCell id="qm9onJdicJjvLXKeHIaW-49" style="rounded=0;orthogonalLoop=1;jettySize=auto;html=1;exitX=1;exitY=0.5;exitDx=0;exitDy=0;entryX=0;entryY=0.5;entryDx=0;entryDy=0;" edge="1" parent="1" source="qm9onJdicJjvLXKeHIaW-39" target="qm9onJdicJjvLXKeHIaW-51">
          <mxGeometry relative="1" as="geometry">
            <mxPoint x="488.01" y="703" as="targetPoint" />
          </mxGeometry>
        </mxCell>
        <mxCell id="qm9onJdicJjvLXKeHIaW-39" value="" style="rounded=0;whiteSpace=wrap;html=1;fillColor=#f8cecc;strokeColor=#b85450;" vertex="1" parent="1">
          <mxGeometry x="440.51" y="693" width="14" height="14" as="geometry" />
        </mxCell>
        <mxCell id="qm9onJdicJjvLXKeHIaW-43" style="edgeStyle=orthogonalEdgeStyle;rounded=0;orthogonalLoop=1;jettySize=auto;html=1;exitX=1;exitY=0.5;exitDx=0;exitDy=0;entryX=0;entryY=0.5;entryDx=0;entryDy=0;" edge="1" parent="1" source="qm9onJdicJjvLXKeHIaW-40" target="qm9onJdicJjvLXKeHIaW-39">
          <mxGeometry relative="1" as="geometry" />
        </mxCell>
        <mxCell id="qm9onJdicJjvLXKeHIaW-40" value="" style="ellipse;whiteSpace=wrap;html=1;fillColor=#dae8fc;strokeColor=#6c8ebf;" vertex="1" parent="1">
          <mxGeometry x="407.51" y="693" width="14" height="14" as="geometry" />
        </mxCell>
        <mxCell id="qm9onJdicJjvLXKeHIaW-46" value="" style="rhombus;whiteSpace=wrap;html=1;fillColor=#fff2cc;strokeColor=#d6b656;" vertex="1" parent="1">
          <mxGeometry x="472.51" y="714" width="17" height="17" as="geometry" />
        </mxCell>
        <mxCell id="qm9onJdicJjvLXKeHIaW-50" value="" style="rounded=0;whiteSpace=wrap;html=1;fillColor=#f8cecc;strokeColor=#b85450;" vertex="1" parent="1">
          <mxGeometry x="474.01" y="670" width="14" height="14" as="geometry" />
        </mxCell>
        <mxCell id="qm9onJdicJjvLXKeHIaW-51" value="" style="ellipse;whiteSpace=wrap;html=1;fillColor=#dae8fc;strokeColor=#6c8ebf;" vertex="1" parent="1">
          <mxGeometry x="474.01" y="693" width="14" height="14" as="geometry" />
        </mxCell>
        <mxCell id="qm9onJdicJjvLXKeHIaW-61" value="" style="group;movable=0;resizable=0;rotatable=0;deletable=0;editable=0;locked=1;connectable=0;" vertex="1" connectable="0" parent="1">
          <mxGeometry x="540" y="646.5" width="82" height="61" as="geometry" />
        </mxCell>
        <mxCell id="qm9onJdicJjvLXKeHIaW-52" style="rounded=0;orthogonalLoop=1;jettySize=auto;html=1;exitX=1;exitY=0;exitDx=0;exitDy=0;entryX=0;entryY=1;entryDx=0;entryDy=0;" edge="1" parent="qm9onJdicJjvLXKeHIaW-61" source="qm9onJdicJjvLXKeHIaW-55" target="qm9onJdicJjvLXKeHIaW-59">
          <mxGeometry relative="1" as="geometry">
            <mxPoint x="80.5" y="13" as="targetPoint" />
          </mxGeometry>
        </mxCell>
        <mxCell id="qm9onJdicJjvLXKeHIaW-53" style="rounded=0;orthogonalLoop=1;jettySize=auto;html=1;exitX=1;exitY=1;exitDx=0;exitDy=0;entryX=0;entryY=0.5;entryDx=0;entryDy=0;endArrow=classic;endFill=1;" edge="1" parent="qm9onJdicJjvLXKeHIaW-61" source="qm9onJdicJjvLXKeHIaW-55" target="qm9onJdicJjvLXKeHIaW-58">
          <mxGeometry relative="1" as="geometry" />
        </mxCell>
        <mxCell id="qm9onJdicJjvLXKeHIaW-54" style="rounded=0;orthogonalLoop=1;jettySize=auto;html=1;exitX=1;exitY=0.5;exitDx=0;exitDy=0;entryX=0;entryY=0.5;entryDx=0;entryDy=0;" edge="1" parent="qm9onJdicJjvLXKeHIaW-61" source="qm9onJdicJjvLXKeHIaW-55" target="qm9onJdicJjvLXKeHIaW-60">
          <mxGeometry relative="1" as="geometry">
            <mxPoint x="80.5" y="33" as="targetPoint" />
          </mxGeometry>
        </mxCell>
        <mxCell id="qm9onJdicJjvLXKeHIaW-55" value="" style="rounded=0;whiteSpace=wrap;html=1;fillColor=#f8cecc;strokeColor=#b85450;" vertex="1" parent="qm9onJdicJjvLXKeHIaW-61">
          <mxGeometry x="33" y="23" width="14" height="14" as="geometry" />
        </mxCell>
        <mxCell id="qm9onJdicJjvLXKeHIaW-56" style="edgeStyle=orthogonalEdgeStyle;rounded=0;orthogonalLoop=1;jettySize=auto;html=1;exitX=1;exitY=0.5;exitDx=0;exitDy=0;entryX=0;entryY=0.5;entryDx=0;entryDy=0;" edge="1" parent="qm9onJdicJjvLXKeHIaW-61" source="qm9onJdicJjvLXKeHIaW-57" target="qm9onJdicJjvLXKeHIaW-55">
          <mxGeometry relative="1" as="geometry" />
        </mxCell>
        <mxCell id="qm9onJdicJjvLXKeHIaW-57" value="" style="ellipse;whiteSpace=wrap;html=1;fillColor=#dae8fc;strokeColor=#6c8ebf;" vertex="1" parent="qm9onJdicJjvLXKeHIaW-61">
          <mxGeometry y="23" width="14" height="14" as="geometry" />
        </mxCell>
        <mxCell id="qm9onJdicJjvLXKeHIaW-62" style="rounded=0;orthogonalLoop=1;jettySize=auto;html=1;exitX=0;exitY=0.5;exitDx=0;exitDy=0;entryX=1;entryY=1;entryDx=0;entryDy=0;" edge="1" parent="qm9onJdicJjvLXKeHIaW-61" source="qm9onJdicJjvLXKeHIaW-58" target="qm9onJdicJjvLXKeHIaW-55">
          <mxGeometry relative="1" as="geometry" />
        </mxCell>
        <mxCell id="qm9onJdicJjvLXKeHIaW-58" value="" style="rhombus;whiteSpace=wrap;html=1;fillColor=#fff2cc;strokeColor=#d6b656;" vertex="1" parent="qm9onJdicJjvLXKeHIaW-61">
          <mxGeometry x="65" y="44" width="17" height="17" as="geometry" />
        </mxCell>
        <mxCell id="qm9onJdicJjvLXKeHIaW-59" value="" style="rounded=0;whiteSpace=wrap;html=1;fillColor=#f8cecc;strokeColor=#b85450;" vertex="1" parent="qm9onJdicJjvLXKeHIaW-61">
          <mxGeometry x="66.5" width="14" height="14" as="geometry" />
        </mxCell>
        <mxCell id="qm9onJdicJjvLXKeHIaW-60" value="" style="ellipse;whiteSpace=wrap;html=1;fillColor=#dae8fc;strokeColor=#6c8ebf;" vertex="1" parent="qm9onJdicJjvLXKeHIaW-61">
          <mxGeometry x="66.5" y="23" width="14" height="14" as="geometry" />
        </mxCell>
        <mxCell id="qm9onJdicJjvLXKeHIaW-63" value="" style="group;movable=0;resizable=0;rotatable=0;deletable=0;editable=0;locked=1;connectable=0;" vertex="1" connectable="0" parent="1">
          <mxGeometry x="540" y="646.5" width="82" height="61" as="geometry" />
        </mxCell>
        <mxCell id="qm9onJdicJjvLXKeHIaW-64" style="rounded=0;orthogonalLoop=1;jettySize=auto;html=1;exitX=1;exitY=0;exitDx=0;exitDy=0;entryX=0;entryY=1;entryDx=0;entryDy=0;" edge="1" parent="qm9onJdicJjvLXKeHIaW-63" source="qm9onJdicJjvLXKeHIaW-67" target="qm9onJdicJjvLXKeHIaW-72">
          <mxGeometry relative="1" as="geometry">
            <mxPoint x="80.5" y="13" as="targetPoint" />
          </mxGeometry>
        </mxCell>
        <mxCell id="qm9onJdicJjvLXKeHIaW-65" style="rounded=0;orthogonalLoop=1;jettySize=auto;html=1;exitX=1;exitY=1;exitDx=0;exitDy=0;entryX=0;entryY=0.5;entryDx=0;entryDy=0;endArrow=classic;endFill=1;" edge="1" parent="qm9onJdicJjvLXKeHIaW-63" source="qm9onJdicJjvLXKeHIaW-67" target="qm9onJdicJjvLXKeHIaW-71">
          <mxGeometry relative="1" as="geometry" />
        </mxCell>
        <mxCell id="qm9onJdicJjvLXKeHIaW-66" style="rounded=0;orthogonalLoop=1;jettySize=auto;html=1;exitX=1;exitY=0.5;exitDx=0;exitDy=0;entryX=0;entryY=0.5;entryDx=0;entryDy=0;" edge="1" parent="qm9onJdicJjvLXKeHIaW-63" source="qm9onJdicJjvLXKeHIaW-67" target="qm9onJdicJjvLXKeHIaW-73">
          <mxGeometry relative="1" as="geometry">
            <mxPoint x="80.5" y="33" as="targetPoint" />
          </mxGeometry>
        </mxCell>
        <mxCell id="qm9onJdicJjvLXKeHIaW-67" value="" style="rounded=0;whiteSpace=wrap;html=1;fillColor=#f8cecc;strokeColor=#b85450;" vertex="1" parent="qm9onJdicJjvLXKeHIaW-63">
          <mxGeometry x="33" y="23" width="14" height="14" as="geometry" />
        </mxCell>
        <mxCell id="qm9onJdicJjvLXKeHIaW-68" style="edgeStyle=orthogonalEdgeStyle;rounded=0;orthogonalLoop=1;jettySize=auto;html=1;exitX=1;exitY=0.5;exitDx=0;exitDy=0;entryX=0;entryY=0.5;entryDx=0;entryDy=0;" edge="1" parent="qm9onJdicJjvLXKeHIaW-63" source="qm9onJdicJjvLXKeHIaW-69" target="qm9onJdicJjvLXKeHIaW-67">
          <mxGeometry relative="1" as="geometry" />
        </mxCell>
        <mxCell id="qm9onJdicJjvLXKeHIaW-69" value="" style="ellipse;whiteSpace=wrap;html=1;fillColor=#dae8fc;strokeColor=#6c8ebf;" vertex="1" parent="qm9onJdicJjvLXKeHIaW-63">
          <mxGeometry y="23" width="14" height="14" as="geometry" />
        </mxCell>
        <mxCell id="qm9onJdicJjvLXKeHIaW-70" style="rounded=0;orthogonalLoop=1;jettySize=auto;html=1;exitX=0;exitY=0.5;exitDx=0;exitDy=0;entryX=1;entryY=1;entryDx=0;entryDy=0;" edge="1" parent="qm9onJdicJjvLXKeHIaW-63" source="qm9onJdicJjvLXKeHIaW-71" target="qm9onJdicJjvLXKeHIaW-67">
          <mxGeometry relative="1" as="geometry" />
        </mxCell>
        <mxCell id="qm9onJdicJjvLXKeHIaW-71" value="" style="rhombus;whiteSpace=wrap;html=1;fillColor=#fff2cc;strokeColor=#d6b656;" vertex="1" parent="qm9onJdicJjvLXKeHIaW-63">
          <mxGeometry x="65" y="44" width="17" height="17" as="geometry" />
        </mxCell>
        <mxCell id="qm9onJdicJjvLXKeHIaW-72" value="" style="rounded=0;whiteSpace=wrap;html=1;fillColor=#f8cecc;strokeColor=#b85450;" vertex="1" parent="qm9onJdicJjvLXKeHIaW-63">
          <mxGeometry x="66.5" width="14" height="14" as="geometry" />
        </mxCell>
        <mxCell id="qm9onJdicJjvLXKeHIaW-73" value="" style="ellipse;whiteSpace=wrap;html=1;fillColor=#dae8fc;strokeColor=#6c8ebf;" vertex="1" parent="qm9onJdicJjvLXKeHIaW-63">
          <mxGeometry x="66.5" y="23" width="14" height="14" as="geometry" />
        </mxCell>
        <mxCell id="qm9onJdicJjvLXKeHIaW-168" style="edgeStyle=orthogonalEdgeStyle;rounded=0;orthogonalLoop=1;jettySize=auto;html=1;exitX=0.5;exitY=1;exitDx=0;exitDy=0;entryX=0.5;entryY=0;entryDx=0;entryDy=0;" edge="1" parent="1" source="qm9onJdicJjvLXKeHIaW-142" target="qm9onJdicJjvLXKeHIaW-167">
          <mxGeometry relative="1" as="geometry" />
        </mxCell>
        <mxCell id="qm9onJdicJjvLXKeHIaW-142" value="&lt;font style=&quot;font-size: 11px;&quot;&gt;Forward Search&lt;/font&gt;" style="rounded=0;whiteSpace=wrap;html=1;fillColor=#eeeeee;strokeColor=#36393d;" vertex="1" parent="1">
          <mxGeometry x="492.01" y="464" width="80" height="44" as="geometry" />
        </mxCell>
        <mxCell id="qm9onJdicJjvLXKeHIaW-144" value="Alert" style="shape=image;verticalLabelPosition=bottom;labelBackgroundColor=none;verticalAlign=top;aspect=fixed;imageAspect=0;image=data:image/png,iVBORw0KGgoAAAANSUhEUgAAAMgAAADICAYAAACtWK6eAAAAAXNSR0IArs4c6QAACmxJREFUeF7tnW2S2zYMhqlJe4+4uUhyknbPEe/EGTvn6PYkzUWazUHaccder9dfMiQKFAHi2b8mZfIFHkN4RSVd4g8FUKBXgQ5tUAAF+hUAELIDBe4oACCkBwoACDmAAnkKUEHydGNWEAUAJEig2WaeAgCSpxuzgigAIEECzTbzFACQPN2YFUQBAAkSaLaZpwCA5OnGrCAKAEiQQLPNPAUAJE83ZgVRAECCBJpt5ikAIHm6MSuIAgBiLNDPq9X7xWr109iywi4HQAyF/nm5/LJbzmKz+WpoWaGXAiBGwr+rHNt//3veLaf75d2CKmIjMABiIw5pVz22qVvtAUnbFVXERmAAxEAcTqvH63KoIgYCs/+x4q+6Aj+Wj3+nlD5eLOT7b5v1p+qLC74AAKmcAKe3VpdL6br0sFivnyovMfTXA0jF8N+6tTpbzjb97H5994mGvV6QAKSe9meNed8yaNgrBogepJ74YvU4WRoNe704UUEqad/TmN9czXabnj58Wz9UWmrorwWQCuF/Xi4/blO3c64G/1FFBkulOhBAVOUcdrEfnx+fU5feDxt9GEXDPkourcEAoqXkwOvcs3WlS9CwSwrpfw4g+pr2XnFMY97ranFOa8aI8SR9VrGnVI/XhVJFZg0ZR03mklujehwhoYrMFTYAmUvpMbbugDVxTmuASBpD6EE0VBSukWPrSsvinJakkM7nAKKj492rZNm60rqwfSWFVD4HEBUZ+y+i0Zj3Olq8WFU4erhYRQXWbMyxfYuGqvfiVJCCupesHti+BQN3cmkAKaTzHNUD27dQ8ACkvLDKtq60YGxfSaHMz6kgmcLdmzbHrdXl92P7FggkL0zpizrnrdXZ6rF99YMJIPqa1qgeNOz6cXzTtNy1w125WvU4bSo5p6Wad/QginLO3JjfXDmv5yoGlFssPTFLnLfKXR2v5+Yqdz2PCqKkZZHzVrlro2HPVe5qHoAoSFmzMe9bPi9WKQSWW6zpIlpozHshoWGfHGAqyEQJLVYPbN+JQT11BfUuFe9KlqvHERKqyKTEpIJMkM+CrTtg+ZzTGiBSfy83YXLkqZZsXSkOnNOSFOr/nAqSqZ0pW1faA7avpFDv5wCSIZ3lxhzbNyOgd6YAyEg9PTTm2L4jgwogeoJ5rB7Yvvnxp4KM0M5z9cD2HRFonoPkieXE1pU2h+0rKQQgIxQ6DPV8a3W5W2zf4fHnFmuAVi3cWp1tE9t3QNRfhgDIAKlaqh407AMCzi3WcJGaqx6nweeclpgIVBBBokYa85u75PVckQ9use5J5Om8lRzq2yN4Pfe+clSQO/q4Om+VSwgN+13lAKRHnhYb875M4PXcfkYA5IY2LTfmvZDQsN+UBkBuAbJcftmmbpV71+JxHlWkp0fzGMySa45YPY7PRqgiV6lFBbmQpGVbd8APC+e0LkQCkBNBIti6EiSc0zpXCEBO9Ahh60qEYPueKQQgBzki2boSIzTsbwoBSEopcmOO7cuTdOkHM1E9riWiirxoEr6CUD3uPEXG9gWQ4LauVF3D276hKwi3VhIfKUW3fcMCwq2VDMd+RHDbNy4gAc9bDUTixnGL7Wqx2XzNne95XkhAqB7jUzbqi1UhAanYmH/vuvTX+PR8m7Hdpt9TSh+nXCNnbtTXc8MBUvO8lUaS/fP58c+uS3/kJPnUORGrSDhAap638g5IxIY9FCC1bV33gOyfLMdq2MMAYqExbwGQ/fGLQE/Y4wBiwNZtBpBAVSQEIBaqx/6Z2zY9ffi2fpjSLNds0k/XHaWKhACkoq17xkJLgKSUQpzTah6QmrbuZaVoDJAQ57SaB6Smrds6IBFs36YBqW3rNg9IANu3WUCsNOankLR2i/W6t5Yb9nYBMWDrRqggL6+ltvvwsElALFaP1mzeS/hbrSJNAmLF1o1SQQ77bNL2bQ4Qa415hB7k2It06WGxXj9NeRBqbW5TgFi9tXoNeqtN+jGpG3w9ty1ADDbmkSpIiw17M4BYrx6tN+mtntNqBhCrjXm0CqL1Q2ClF2kCEEvnre4Ftvke5GTzrdi+TQBi6bwVgBwUaKRhdw+IZVs32HOQq9+GFp6wuwbEQ2MesQdpqWH3DYhxWzd6BWnB9nULiLfqoeXuWHnldozL5LlhdwuIB1uXCnJUwO05LZeAeLF1AeRNAa//jYJLQLzYugByooBT29cdIJ5sXQA5V8Cj7esKEI+NeXSb9/JHwlvD7gsQZ7YuFeTa6/JWRdwA4r16RLZ5PVcRN4B4tHVvPCtw+x/ojHnuMWCsG9vXBSCeG/MByRJyiBfb1zwgLdxahSRA2rQT29c+IM4bcylPIn/uoWE3DQjVo318rNu+pgFppDFvP8sn7FDjLcsJXy9ONQuI1/NWouIMuFLAchUxC4jX81bkf4YChht2k4Bg62YkmfMpVht2c4DQmDvP9AnLt3irZQ8QbN0JKeZ7qsUqYgoQqofvBNdYvbUqYgoQbF2NFHN/DVPntMwAgq3rPrHVNmDpnJYZQLB11fLL/4UM2b4mAMHW9Z/T2juw0rBXB4TGXDu12rmehYa9PiCxbF1emBrBr4UqUhWQaNVD42Cex39ZcQQT5s5pVQUkmq0LIFmoVLV9qwESsTEHkCxAUk3btwog0W6tXtMCQPIASRVt3zqAxGrMj1kBIJmApJRqNeyzAxK1euxSA0DyAdnNrGH7zg5ItMb8NCUAZBogGvqNXcGsgEQ/b6UR4Gg272VCz11FZgUk+nkrABn7+31j/MwN+2yARLR1L8MLIAqAzNywzwJI5MacHkQHilq3WvMAEtTWpYKUgWPvaKXtarHZfC33DS9XLg4I1eMthNxi6abzHA17cUAi27pUEF0gblyt+DmtooBEt3UBpDggxc9pFQUkuq0LIOUBKX1Oqxgg2LozJAdfcWikyzXsRQChMSdz51agVMNeBhBs3bnzI/z3lbJ91QGheoTP1WoClKgi6oBg61bLD744JXXbVxUQGnNytLYC2q/nqgHCrVXt1OD79woon/bVA4TGnAw1ooBmw64CCNXDSGawjKMCWg27CiA05mSmNQU0Dobu9jQZEM5bWUsN1vOqgEYVmQwI561ISLMKKDTskwDB1jWbGizsoMDUhj0bEBpzctCLAlNutfIBwdb1kh/h1zmlimQBQvUIn3PuBMitIlmAYOu6yw8WnHlOazQg2LrkmlcFcs5pjQYEW9drerDunHNaowDB1iXJvCswtmEfDAiNuffUYP05T9iHA4KtS4Y1osCYKjIIEKpHI5nBNo4KDLV9BwGCrUtmNajAoNdzRUBozBtMDba0V2CI7SsCgpYoEFkBAIkcffYuKgAgokQMiKwAgESOPnsXFQAQUSIGRFYAQCJHn72LCgCIKBEDIisAIJGjz95FBQBElIgBkRUAkMjRZ++iAgAiSsSAyAoASOTos3dRAQARJWJAZAUAJHL02buoAICIEjEgsgIAEjn67F1UAEBEiRgQWQEAiRx99i4qACCiRAyIrACARI4+excVABBRIgZEVgBAIkefvYsKAIgoEQMiKwAgkaPP3kUFAESUiAGRFfgfBzC3FBgjFbYAAAAASUVORK5CYII=;fontSize=12;" vertex="1" parent="1">
          <mxGeometry x="421.51" y="513" width="40" height="40" as="geometry" />
        </mxCell>
        <mxCell id="qm9onJdicJjvLXKeHIaW-145" style="edgeStyle=orthogonalEdgeStyle;rounded=0;orthogonalLoop=1;jettySize=auto;html=1;exitX=0.5;exitY=0;exitDx=0;exitDy=0;entryX=0.5;entryY=0;entryDx=0;entryDy=0;spacingBottom=0;" edge="1" parent="1">
          <mxGeometry relative="1" as="geometry">
            <mxPoint x="441.51" y="507" as="sourcePoint" />
            <mxPoint x="347.5" y="508" as="targetPoint" />
            <Array as="points">
              <mxPoint x="442" y="486" />
              <mxPoint x="348" y="486" />
            </Array>
          </mxGeometry>
        </mxCell>
        <mxCell id="qm9onJdicJjvLXKeHIaW-146" value="&lt;span&gt;&lt;font style=&quot;font-size: 11px;&quot;&gt;Backward Search&amp;nbsp;&lt;/font&gt;&lt;/span&gt;" style="edgeLabel;html=1;align=center;verticalAlign=middle;resizable=0;points=[];labelBackgroundColor=none;fontSize=8;" vertex="1" connectable="0" parent="qm9onJdicJjvLXKeHIaW-145">
          <mxGeometry x="-0.0842" y="-1" relative="1" as="geometry">
            <mxPoint x="-4" y="-15" as="offset" />
          </mxGeometry>
        </mxCell>
        <mxCell id="qm9onJdicJjvLXKeHIaW-148" value="Alert Detector" style="shape=image;verticalLabelPosition=bottom;labelBackgroundColor=none;verticalAlign=top;aspect=fixed;imageAspect=0;image=data:image/png,iVBORw0KGgoAAAANSUhEUgAAAMgAAADICAYAAACtWK6eAAAAAXNSR0IArs4c6QAAFMlJREFUeF7tXVtyG7cSBRh5HZFXImslItcQ3ar7ZZL5SlXkNUhaieWVhFmHfYlbADnDITlDvE43HgP+KPFg8Gj06T7deIwU7RctgT//87ocVqLU4nf9/0qp++7fF1KY/94rsdN/pZTm7+G/9//2z+4Ozzd/rfrn0R1sFQRLQAa/ObMXN8+vX7SSa+XXii+F+CKOSk8iCiV2UoqdEvLDgE3sf4g7sWvAIZH2ZKUNIBOi0V5hv5cP5EAImG8pxIcGjrrbvzfABAjQ45UGkKOwcgaEbT4bYGwSCn8+a4BoUKi9XJNSpfC5CX5TKfEmpHpvlCxYhP2LswOICaiVfFI6hqj81zxL/ATPAiA9fZLiLNsUL75yamhgCZurqgGy+ePtVc4YFFMqocGyF2q7eVmZDFn7TUugOoBs/vt6L37KdQOGXe0bUJxkZC9UQokGjPBZ6oDSgvprGRbvQcwCnpDrOQTd4RBwe1MDRWe/9r+Jj7a+cpBZ0QD58/ntewOGm/L7lGrU6yStIgFi1i+UfPWZ9FbWXwIGKHdqNWdvUhRAGp3yV3LEG1Kq1VxpVzEAaXQKoerhdcyVdmUPkEanwpWa4k2zjeWT2s6FdmUNkOY1KFQcUKcSOyXVag4LjVkCRMcaUgfhlOctAHrSqpCb2rfcZweQ7fP7Wgi1acpXhgRqz3RlBZAqKNXxJKBW7+547aWqd8dv9b8rdTiKW7S3rJhyZQGQ0iiVsZoGCHKnz5PrFKjW8djAVcvhgJXFgz7WezjiK+7LAU99lCs5QAw4hPyeM6HQmRsNBn0uPEVg2gHHbKnJHjB1gSQpQHIFR392IhEgbMYid8DUFJckA0iO6xul5vj7HQYZeZdaQJIEIDkdZOrOb6egTjZP4ftcb/mXvxZPQqllFnGLDt4/qcfY2MxXDsjy7ADJJVOl9xd9/Xv1hhRmTnVls2+tcJCwAiQ5OHTmaaG2NQPjEqRZ0K+CQcIGkJTg6A4CzQkYY0DRt7mkvAhP3anPpdEtFoCkjDmUUI81xBco+paUehXoScgBkmrriA6+N9+WK5Ri1VZPskvzCgMJKUBSpHLnem4hFMDGu1NfxH3RuZJSwGQASbEIWHtmKhQEtvfSbPUpY8WdBCDc4GhewwYBt+f8saLcrF+etm69S1MKDpDDYpX8h2s4LdbASpo/NskbJHCAcKZzW4YKC46uNmPkfsrvXKvxOad/oQDhylg1SkUDjKu1E667jTPObMEAwhV3aHB8fVk+8qhIa4XL6OVKlSEA4Yo7GjjSANaAhGUDZH7xCAQgHHFHA0cacPRxCdNFGrnFI9EA4XDBubrftCrL3zrLeklm8UgUQHjijvzcLr9q5tMiT4YrnzmPAsj2j7d/KFOBzXPkA4xhTzhAksuuiGCAUFOrFnPkCY6uV+QLiplQrSCAUGetagKH+fLV8VfaWQgbRKmNpBDpqVYYQCgXkJTYrb8tP9smJ+fnU1/VrfELTtQgSZ3V8gYIqfcoHBxaNotf8tX61avKbiKkBUlaL+INEMrAvOS9VSGGI7V1RHphUr1IeFTXCyA1W4pYZQldLK0FJKSZrYQBuzNAQiykq9KVHpTHGY60FMJ1jlzKxcnB1kIaOTkDhGzwpccdgLuFa/EiWsUp9STFJXQeAHlTNoyHPC857jAKAVksTWMdQ+bL5R2MTK5bSrF46AQQMquQQZ7bZcKnyiDlUpMXoYpHUlBxN4BArOSFmpVOrcBHi1NYxxjjYHsXaTyGbXHLyQoQqqt7SqdWoVmrKcWqcd8ZBdXi9iJWgNQwSJu1831OZR1rollapmTGlXFd5CZAqFK7JSsClUy0QnHTB1/DEFIe7Wl1Hzi97W2AkOy5KjtjQzHhneJxTnyIsoe8QxWwcxnZSYCQWMrSA3PAmodNybgm3tYP5HMaSspjaCcBUvKgkJM7rGv7TLMWlDJLQyWrYb0UXoQrWJ8GCDq1W7j3oDEYI4thlV5rRHGtKYe3HQUICb0qeFGQRh7Ttptj4jk8B7UX4ThQNQoQCmu5fllaU8rck+baHmVgPt4HHn7tOn5UObgXYdjlOw4QNL0q2HtQGAubwnHxa1s/0M8pbsGhXnC+AggFnSiVMlDIwlXpSpWZbXxob0ydGr8CCNxiFhycoyfTpjznz+ukWRSr65TG5BogjV4ZPaWgA14AKdiw2MaJ3r5ESbPOAEJBKUoMzinkYFOaseeUljGkP6h34ME6YYx7DhDwSnGpwSacZgZrVp00C+2dKfXsDCB4xShvgmHe43i1jxTyezA+9MY8xp2rMf30fRdOs4jkdAYQaFBaKIdGTVyn2LH1UfJrX6VGlkfTLCo59QCBWc6jFCndHnKihnXhPOjJc8bWSZ3GpJKlrV44zZJq9fXv1ZutXd/nJ4CA4w+ObQC+g71VHmYgLjwnQhEazbLPNJVB7gESa+kuh0Dl8uyiCiuBopdj446lWTUepNKzhJJ5N+MUhqQHCLSzhcUfqMWrKToUa3xqpVmxcrkyygSB+sCD4M46ULm7MN9w+y0qajVsFdEGhXWkkKdPnQj6OWyPwtMagCAm8Fww5aR3cVbs9pgbzRqHTqxcigRIKfEHyoK5eMxYILq04WO9cymLBAgFFTUeBMXBO6GXsr0ENTmu9Ce2Pdd2clF+l34g10MojIgBSKx1OxNEIQE6bszudDI+EeLeloty5lAmd+N8iEGA1/tQoBg9kbCYy9MYxCpDCbL1nSsUzaVK9R4o1vPbd+tnw5xHnr+VQ403JNZqNOtckWDG6lgtmoYeKRYuxZv7CnoKanWW8o321vkbIGdbeiwYazQoM1lwgIRYVV+BhpaHWStPajXsb6NZ17OXNUBgSkPk4kLBMPZeSmo17E+sQsTSCM37F1Lc7/fywVe+UsqdEvsf4k7sUN99R83LYSxYDyvRAMk1xYsKBhGBcnxSJEwJjPfay7WQ4t4XGGPltSz2d2oVC5R4eZyRrM365WmLGN8BbuAPweQKkFirjcySIMDq40VMe0q+ooBxqXyxWzyQAEEvFkrEZA0FhgCItnS6TqUWvyMsgRTqCyZLF2a5x8YQC1jXWA89v1Pz4QPYyzpwiRP8pxGwAIkIXrXQsFwUAa1BHZFju+xNrNV0sZRc4Ijl/lkDJDarcjbxgUpETQEQUHG12K5tIZT3ltVGU2eXcYV6EaQOImLEs4gG2TkRAJAUE+ky2edlcNQKmc26xf2RVtlVXqGxCFIHswZISOdiqYbr5AWXCwC9a1uxSjxFs1IZHRfaNyYbJEBCjPSt+ZLIzvkCJNVEuiqwSRQI9bh5WX34vONalopmxQLPtf/X5cI8LVIHswaIb+fSTaSbCvgC3q3W81Kx2awxWhNbZ8g4YgJ1JEDQc5Y0i5U1QAip1Vkc8vy+FkJtQpXyUiFSeuXQIB2pB3kDRAjhsw6Sd/wRRhd8FR1Ns5DK5jOWGMVE9jk0DpoaK9aDeAIE6Vp9JtNalsl7dP2Ip0QnMCdZS4qUV94ASbjVBGE9rcruW4Dhs16XXYpVkM56J6FXxzuIYxIZseOnTMnD92L58tB46+mLgNvlKbNWUy0jPpOs5S5/LZ5i4hlfScbQqmFbWKqNpcb48yCel3chlMN3YqfKpwBH15d4aiQ3Sql7KYXZxxbyM7tzldjZ3l0s1I/9b+IjdhcvbuzDHmcOkJDVVONilVpS7Ta1TThq27atnVvPY+MxPYaoDZmRcUTM2LfP+Z5oPXgQ4GfXQgCi+5BiP5bOeGhrSHEreIjCIOfBt30UXfJtFx03oVkA/NKG2DTbIXBfPOgt6r7CtpXv6AOaItjadX2O5eKurXblsNTEtXU4QDwpvq2fs7z2xyaUVM9jaVZMv33Wr2LauXwXPWb0OGZ9syJyolF1JaFZSeOPuJ0EZ3InGMfBg4A/nuOb6kUpVw31pKFZaeiViX8jt9qc5a+E+Pj6snxE6gENQAh3wCIHn2NdaMrhMkY0LXFpsyuD9Zh4oJN8HwR99YqPwGsoi1Uai0QIaInrHKADdAq9OwEEmeolcHWuQq+hHC/Nwltd1zlAe0t0ileP4/QRz+grMc/F0uIQVzW5LoeOCW/1JOU8IeMPPUYKqnj6RqG+VEzfnQT6UaAZ1LUiqmGhWQnplQnQgazF97CeqxK0z0C7Soq5HA/NSkevSog/zigWGtGpti4w6zFZcxw0K6WXR9MrigD9CiDxO0pbHIJEDJSCXHYsMb1Ce0iK+OPagwAXbQ7zkc6FIxU1VV14KzscSbq5gdMrQrD3MYgWHdqtN5oVBy30fJzBQ6pVql3MeODTgf0MIOg4RNeXMo0Yp555vE1Fs6goiYvU0FSekqlcAaSkzrtMRull8NbWLH7B9yy5yhlOr4jWP7rxXAMEvB6i89Pqk3pEHc90nYhaylEoFKXFtckdDnjC+OMqSO8Gh3broacMbcKey3P0fKSkV+ixUIP9yoOYYB287SSlS68BRFCrS2xxb8kbOo5jQ9RgHwUIehNZC9bjYYqzvHQZH9socWM4tsQA9lGAUGSzmhexqc/t56jkSaqsYqmx1CRA0DSreZFIgCCSJwwWd2qUKIAP66emV5NBuolDwMdwDUCUeNt8W67iVGW+b8dTlDT0isJ7cDGSSQ9CQbOaF4kDd2yQy2Fxx0ZI4T24MqO3AQLfm5V2kSpOPdO/HXdNayLvQcBEqM5+jM3wTYDETci0QnGhP71K43sQ6kVSBefxtHBUbTfrl6ctXrrXNd4EiIlFwGsipgttdT1qbn3nJNW5j1Aw3xQOc6LBDhD9/ZCf8jv+Yuk0Lj9KMzN62QkkgG93hA6ZIjA/9IVXb6wAIfMibadvqO717+lMo1DySQrxZWjAdIZHSPWeaju77iBFYK7r5U40uAGEItA6XKnysb9Tq7aRMRorpgJttXOQJcUSQQrvYfyV69TQBFv8LtN1vK1cmAToqFWas0XOAKGzCjpmV48x37gLm8r2FoUEqKhVqkVmZ4BoYZJ5kZbVotBV9jpJslbHUaRKU3sBhGpdxGR+lXgTn9Q2Bw7NrlkVNEjJMLgzV8Pp8AKI8SIEq+unDvGm8CrQyyyGQBl3cK6ajwnTGyCkVEtnDRLetpGFthXYCaq4I1XmKsqD0HuRNNmKAvUyiy6TgoN51RzmQai9iIlJwB9jzEKbKusEKTjMjqT02c0giqXnmTYoa/u1cseS01aXqEHkEY8GA4SDarVNjVEaRvYyxZ0FZ53NgFp1/YkCCAfVaiAh0/OgisnBkQm1ggGEcm2kn8G2kBikzOiX6GlVfseyoz0IC9UyUXu7oRGt8D71UQfkpi8ZUSuYB+kqYhFgy2756DSsLNvcZpC1uhQaxIOYrBbZwarreW6LiTDdt1bEBY6U20luCQEGEN2ICeD2co0/fTg2BLlRd/v3tnfLquNBBUwaX3/UVYr7oAo8XuK6wsejS31RKEDY4pFj99uBq5Apt79Du9/uov0M445hD+EAMXSL4qKHqXlNeO7armrlleCjVAfZ5LBazkaxhg2RnR2ZHE2jXDFw5KRUXT9zB4fuJ4kH6QTADZJGucIgwkqpjl0sARzkAOHMbA1Vox2+cgMKb1Ll1KeSspCkHsTEI4zp30u1KGki3FQaU0rPyeKXfFX6uiD2Xx6bEF2HTQ4QAxLGlOEVSPTVQkJt26UQB8mkoFN9zFHg7f4sAOknRqklR159zDqY+GTGQGHNLI5MQM5rHUmyWGONpvQkXX/mBBRNpcRPuZZSLF0pBUW5UsFBHqTnCpLjwM31nPvfxEdtq/H9laSJgaHlnOo+KxTQ2SjWsMMpA/db9EvciV3JYEmVlZpWxrIC8gndQGHNr57cQHLqvdwosf9RSlCvQaEvsE6TkZqe81LWOWxam8SDdJ3KFySHswlSil1uNEwDYr+XD5c3utsmmvM5ChwmHf0/8UWPdyHFvRLyQxsvTk+fFCDdpHHv/wlSliFglNhxTNJQQXIGxFCeCHC4ZNy4dk1kAZAc0sAxoNkb8MidsW7d707sek/516r/b/1vJrukf78OW8m1ddR/taU8JhDOvvcR1DfmlxAKq5MLCyHXfnSRdg9eNgAxipNwQZFZnyprLj4Yj1nARIBzakKyAkhnXdNtg6hMbxmGg6BUMeDoh0h0Z0F2AOkGbISWcOWdQbeKbgJltaEXXxOAJFuANMqVM37iKRVZggYMkqwB0ge5+oTixYcqc1afWvuG3qYD9R7nqbSd+qQeEYu+RQCk8yb+GY5aVZV/XBRHByCxx5QoQJ6kGID0Lpn15hR+RcytRcrDZ+TrXwCQFAeQRruYIMRwGcb2+U2RjyYSJMUCpNEuStXCBeG3eskCEN2BCJAUDZDemwStwFIqWJl1U8QZNwHyx9s/bAfoAkFSBUCGQNE7W1vGywOgepvMQm2//r1683gLUpT71psQT1IVQBpQ3PUWnbJ1b/lU0mVTYki9N9/x9CRVAqQHir5R5dfiqa3In1TGZKWkes/hvAvHx3hGweIBkqoBMhROfwx1hguOGhSLhfqRgkbZPAA7zeo65AiS2QDkEixm0VGJe7Yg0aYp4OeaQuV22GtsiKSLhTaZOoBklgAZyq0/sloBWLSnMOdSCvssBPmC4S2gWEAye4BcehYpFg9SqC8leJceEAWdoZ/S1WRUy7JO0gByw7ocvgW/eFBK3Zsz0Sm9jLZ0Qnx0JxdzCLJtDMbnefL7CSY8SQOIzywey5qA31yNf/A2xghp8Bz+MeyLTPqcu1n0FR/6rw6q9d8a7+2aEnmOIGkACQCIyyuX5877d26cVXept/YyuYGkAaR2jStwfMlBIk570RpAClSgOXQ5NUjUnfqsD1w1gMxB2wodY1qQHLxIA0ihyjOXbqcCSXcjfQPIXDSt4HGmAsn6ZSkbQApWnDl1PQVIdBzSADInLSt8rNwgaQApXGHm2H1OkDSKNUcNq2DMXCBpAKlAWeY6BGqQtCzWXDWronHTgqStg1SkKvMdCglIlNitvy0/a6m2LNZ8dauakeNB0vZiVaMcbSAHCaBAcvnZ6uZBmoZVI4FYkIx9070BpBr1aAPpJBDy8aWpL2U1gDS9qlICrt+7HPMaQ4E0gFSpHm1QQwl0dwvo49H6i8T6OLPrUeb/A4ktuQmkKMjrAAAAAElFTkSuQmCC;fontSize=12;" vertex="1" parent="1">
          <mxGeometry x="326" y="514" width="43" height="43" as="geometry" />
        </mxCell>
        <mxCell id="qm9onJdicJjvLXKeHIaW-152" style="rounded=0;orthogonalLoop=1;jettySize=auto;html=1;exitX=0;exitY=1;exitDx=0;exitDy=0;entryX=1;entryY=0;entryDx=0;entryDy=0;" edge="1" parent="1" source="qm9onJdicJjvLXKeHIaW-122" target="qm9onJdicJjvLXKeHIaW-126">
          <mxGeometry relative="1" as="geometry" />
        </mxCell>
        <mxCell id="qm9onJdicJjvLXKeHIaW-155" style="edgeStyle=orthogonalEdgeStyle;rounded=0;orthogonalLoop=1;jettySize=auto;html=1;exitX=1;exitY=0.5;exitDx=0;exitDy=0;entryX=0;entryY=0.5;entryDx=0;entryDy=0;" edge="1" parent="1" source="qm9onJdicJjvLXKeHIaW-122" target="qm9onJdicJjvLXKeHIaW-128">
          <mxGeometry relative="1" as="geometry" />
        </mxCell>
        <mxCell id="qm9onJdicJjvLXKeHIaW-122" value="" style="rounded=0;whiteSpace=wrap;html=1;fillColor=#f8cecc;strokeColor=#b85450;" vertex="1" parent="1">
          <mxGeometry x="413" y="812" width="14" height="14" as="geometry" />
        </mxCell>
        <mxCell id="qm9onJdicJjvLXKeHIaW-124" value="" style="ellipse;whiteSpace=wrap;html=1;fillColor=#dae8fc;strokeColor=#6c8ebf;" vertex="1" parent="1">
          <mxGeometry x="300" y="785" width="14" height="14" as="geometry" />
        </mxCell>
        <mxCell id="qm9onJdicJjvLXKeHIaW-125" style="rounded=0;orthogonalLoop=1;jettySize=auto;html=1;exitX=1;exitY=0;exitDx=0;exitDy=0;entryX=0;entryY=1;entryDx=0;entryDy=0;" edge="1" parent="1" source="qm9onJdicJjvLXKeHIaW-126" target="qm9onJdicJjvLXKeHIaW-122">
          <mxGeometry relative="1" as="geometry" />
        </mxCell>
        <mxCell id="qm9onJdicJjvLXKeHIaW-126" value="" style="rhombus;whiteSpace=wrap;html=1;fillColor=#fff2cc;strokeColor=#d6b656;" vertex="1" parent="1">
          <mxGeometry x="383" y="831" width="17" height="17" as="geometry" />
        </mxCell>
        <mxCell id="qm9onJdicJjvLXKeHIaW-154" style="rounded=0;orthogonalLoop=1;jettySize=auto;html=1;exitX=1;exitY=0.5;exitDx=0;exitDy=0;entryX=0;entryY=0;entryDx=0;entryDy=0;" edge="1" parent="1" source="qm9onJdicJjvLXKeHIaW-127" target="qm9onJdicJjvLXKeHIaW-122">
          <mxGeometry relative="1" as="geometry" />
        </mxCell>
        <mxCell id="qm9onJdicJjvLXKeHIaW-127" value="" style="rounded=0;whiteSpace=wrap;html=1;fillColor=#f8cecc;strokeColor=#b85450;" vertex="1" parent="1">
          <mxGeometry x="386.5" y="799" width="14" height="14" as="geometry" />
        </mxCell>
        <mxCell id="qm9onJdicJjvLXKeHIaW-128" value="" style="ellipse;whiteSpace=wrap;html=1;fillColor=#dae8fc;strokeColor=#6c8ebf;" vertex="1" parent="1">
          <mxGeometry x="440.51" y="812" width="14" height="14" as="geometry" />
        </mxCell>
        <mxCell id="qm9onJdicJjvLXKeHIaW-166" value="" style="group" vertex="1" connectable="0" parent="1">
          <mxGeometry x="540" y="760" width="50.01999999999998" height="32" as="geometry" />
        </mxCell>
        <mxCell id="qm9onJdicJjvLXKeHIaW-156" style="rounded=0;orthogonalLoop=1;jettySize=auto;html=1;exitX=0;exitY=1;exitDx=0;exitDy=0;entryX=1;entryY=0;entryDx=0;entryDy=0;endSize=2;startSize=2;" edge="1" parent="qm9onJdicJjvLXKeHIaW-166" source="qm9onJdicJjvLXKeHIaW-158" target="qm9onJdicJjvLXKeHIaW-160">
          <mxGeometry relative="1" as="geometry" />
        </mxCell>
        <mxCell id="qm9onJdicJjvLXKeHIaW-157" style="edgeStyle=orthogonalEdgeStyle;rounded=0;orthogonalLoop=1;jettySize=auto;html=1;exitX=1;exitY=0.5;exitDx=0;exitDy=0;entryX=0;entryY=0.5;entryDx=0;entryDy=0;endSize=2;startSize=2;" edge="1" parent="qm9onJdicJjvLXKeHIaW-166" source="qm9onJdicJjvLXKeHIaW-158" target="qm9onJdicJjvLXKeHIaW-163">
          <mxGeometry relative="1" as="geometry" />
        </mxCell>
        <mxCell id="qm9onJdicJjvLXKeHIaW-158" value="" style="rounded=0;whiteSpace=wrap;html=1;fillColor=#f8cecc;strokeColor=#b85450;" vertex="1" parent="qm9onJdicJjvLXKeHIaW-166">
          <mxGeometry x="21" y="10" width="10" height="10" as="geometry" />
        </mxCell>
        <mxCell id="qm9onJdicJjvLXKeHIaW-159" style="rounded=0;orthogonalLoop=1;jettySize=auto;html=1;exitX=1;exitY=0;exitDx=0;exitDy=0;entryX=0;entryY=1;entryDx=0;entryDy=0;jumpSize=6;startSize=2;endSize=2;" edge="1" parent="qm9onJdicJjvLXKeHIaW-166" source="qm9onJdicJjvLXKeHIaW-160" target="qm9onJdicJjvLXKeHIaW-158">
          <mxGeometry relative="1" as="geometry" />
        </mxCell>
        <mxCell id="qm9onJdicJjvLXKeHIaW-160" value="" style="rhombus;whiteSpace=wrap;html=1;fillColor=#fff2cc;strokeColor=#d6b656;" vertex="1" parent="qm9onJdicJjvLXKeHIaW-166">
          <mxGeometry y="19" width="13" height="13" as="geometry" />
        </mxCell>
        <mxCell id="qm9onJdicJjvLXKeHIaW-161" style="rounded=0;orthogonalLoop=1;jettySize=auto;html=1;exitX=1;exitY=0.5;exitDx=0;exitDy=0;entryX=0;entryY=0;entryDx=0;entryDy=0;strokeWidth=1;endSize=2;startSize=2;" edge="1" parent="qm9onJdicJjvLXKeHIaW-166" source="qm9onJdicJjvLXKeHIaW-162" target="qm9onJdicJjvLXKeHIaW-158">
          <mxGeometry relative="1" as="geometry" />
        </mxCell>
        <mxCell id="qm9onJdicJjvLXKeHIaW-162" value="" style="rounded=0;whiteSpace=wrap;html=1;fillColor=#f8cecc;strokeColor=#b85450;" vertex="1" parent="qm9onJdicJjvLXKeHIaW-166">
          <mxGeometry x="3" width="10" height="10" as="geometry" />
        </mxCell>
        <mxCell id="qm9onJdicJjvLXKeHIaW-163" value="" style="ellipse;whiteSpace=wrap;html=1;fillColor=#dae8fc;strokeColor=#6c8ebf;" vertex="1" parent="qm9onJdicJjvLXKeHIaW-166">
          <mxGeometry x="40.01999999999998" y="10" width="10" height="10" as="geometry" />
        </mxCell>
        <mxCell id="qm9onJdicJjvLXKeHIaW-178" style="edgeStyle=elbowEdgeStyle;rounded=0;orthogonalLoop=1;jettySize=auto;html=1;exitX=1;exitY=0.5;exitDx=0;exitDy=0;entryX=0;entryY=0.5;entryDx=0;entryDy=0;" edge="1" parent="1" source="qm9onJdicJjvLXKeHIaW-167" target="qm9onJdicJjvLXKeHIaW-176">
          <mxGeometry relative="1" as="geometry">
            <Array as="points">
              <mxPoint x="580" y="550" />
            </Array>
          </mxGeometry>
        </mxCell>
        <mxCell id="qm9onJdicJjvLXKeHIaW-167" value="&lt;font style=&quot;font-size: 11px;&quot;&gt;Tag Propagation&lt;/font&gt;" style="rounded=0;whiteSpace=wrap;html=1;fillColor=#eeeeee;strokeColor=#36393d;" vertex="1" parent="1">
          <mxGeometry x="491.01" y="541" width="80" height="44" as="geometry" />
        </mxCell>
        <mxCell id="qm9onJdicJjvLXKeHIaW-171" value="System Log Collection" style="swimlane;whiteSpace=wrap;html=1;startSize=30;" vertex="1" parent="1">
          <mxGeometry x="120" y="420" width="180.01" height="184" as="geometry">
            <mxRectangle x="40" y="430" width="140" height="30" as="alternateBounds" />
          </mxGeometry>
        </mxCell>
        <mxCell id="qm9onJdicJjvLXKeHIaW-173" style="edgeStyle=orthogonalEdgeStyle;rounded=0;orthogonalLoop=1;jettySize=auto;html=1;exitX=0.5;exitY=1;exitDx=0;exitDy=0;entryX=0.5;entryY=0;entryDx=0;entryDy=0;" edge="1" parent="qm9onJdicJjvLXKeHIaW-171" source="qm9onJdicJjvLXKeHIaW-1" target="qm9onJdicJjvLXKeHIaW-2">
          <mxGeometry relative="1" as="geometry" />
        </mxCell>
        <mxCell id="qm9onJdicJjvLXKeHIaW-1" value="&lt;font&gt;Auditbeat&lt;/font&gt;" style="rounded=1;whiteSpace=wrap;html=1;fillColor=#eeeeee;strokeColor=#36393d;" vertex="1" parent="qm9onJdicJjvLXKeHIaW-171">
          <mxGeometry x="33.230000000000004" y="43" width="60.51" height="27.75" as="geometry" />
        </mxCell>
        <mxCell id="qm9onJdicJjvLXKeHIaW-174" style="edgeStyle=elbowEdgeStyle;rounded=0;orthogonalLoop=1;jettySize=auto;html=1;exitX=1;exitY=0.5;exitDx=0;exitDy=0;entryX=0;entryY=0.5;entryDx=0;entryDy=0;" edge="1" parent="qm9onJdicJjvLXKeHIaW-171" source="qm9onJdicJjvLXKeHIaW-2" target="qm9onJdicJjvLXKeHIaW-14">
          <mxGeometry relative="1" as="geometry">
            <mxPoint x="125.99999999999989" y="102.49499999999989" as="targetPoint" />
          </mxGeometry>
        </mxCell>
        <mxCell id="qm9onJdicJjvLXKeHIaW-2" value="System Audit Log" style="shape=image;verticalLabelPosition=bottom;labelBackgroundColor=none;verticalAlign=top;aspect=fixed;imageAspect=0;image=data:image/png,iVBORw0KGgoAAAANSUhEUgAAAMgAAADICAYAAACtWK6eAAAAAXNSR0IArs4c6QAAFLlJREFUeF7tnQ2MXFd1x//n7ezGsU1IIGmMgyChVA1LAgmkpAaX7O682Y1RP1ClSAVa1W6hoLZq1S9QK1TbFapE6Yda0QoKJXYVglCqitIm8e68Wa8pwaGQhtRh46pATEWMUzs1aWKntWfuqc74veXt7Hy89+Z9vzPSaO2d+3V+9/733Pvm3nsI+opEYOfOnVdt3rz5SmPMlcx8JYAXE9EVAK5g5issy9rKzC8CsMX33gxgG4BJAFMDfkp7LgK4MODnKQDn3ffzAM4R0XPGmOeJ6H+Y+TkAz8qbmZ8lou9t2rTp7P333382kqEVz0QVt98znxYWFrZ1Op1tzHwtgGuJ6AcAXMPM1xDR1QDk/VIAP1RwZv8B4BkAZ5j5DBGdBnCamf8LwNNE9PTExMSpxcVFESIX3Naxm18ZgdTr9VcR0WuI6EZm/kFmfjkRXQfg5QBEDPraSEBE8x1mfoqIvkNE32Tm48z8RKvV+lYVgJVOIAsLCy8zxtxsjLmJiG4C8EYAN7pTmir0aVo2yhTwOIBHmPlxAMc6nc6xlZUV8TyleRVaIAsLC682xtwK4FZjzC1EtKs0PVNsQx4goq8B+Fqn0/nX5eXlbxbVnMIIRDxDp9N5E4AfAXCb6xlkXaCv/BM4A+Cr8iair1iW9ZXFxcXv5r/ZQG4FYtv2rcz8ZiLaAeB2AK8uAlBtY2AC3yCih40xDxPRlxzHeTRwzhQT5kYg9Xp9h2VZb2XmnQB+PEUGWlV+CPwTEX3RGPOFVqt1NA/NykwgjUbjFmPMHBHNA7ABTOQBiLYhNwQ6ABxmXrIsa7nZbMqaJvVXqgKZm5vbZVnWTwL4CQDyiFVfSiAogacA/KMx5vPLy8sPBs00brrEBTI/Pz9njLkLwM8C2DpugzW/EgAgOwjusSzrvqWlpeUkiSQiEHn82ul0RBDvLME3z0ny17LHJyA7A+6dmJi4Z3Fx8RvjF7e+hFgFYtv2TwH4BQAyjdKXEkibwOcBfMpxnH+Iq+I4BEK2bf8KEb2PmV8bV8O0HCUQlQARfZ2ZP+Y4zl+Ou58sskCmp6entm/f/psAft3doRrVHs2nBJIiINte/vzkyZN/urq6KltjQr8iCcS27d8A8AHZ9Rq6Rs2gBNIn8DSADzuO82dhqw4lkEajcRcz7wMwHbYiTa8EckBglZn3tlqtvwvalkACmZ+fv8EY82EA8rhWX0qg6ATusyzrA0tLS0+OMmSkQGzbfg+AjyPH+7ZGGamfK4E+BOQw2Hsdx/nEMDrDBCJPpz7pPrZVwkqgrATksfC7Bz3t6isQd0r1aQCyk1ZfSqDsBI5alvWuflOuDQJZWFh4fbvd/hwRXV92KmqfEvAIMPOJWq329sXFxcf8VNYJxLZtObO9JOe1FZ0SqBoBOXfPzPOO4zzh2b4mkJmZma21Wu0hAK+rGhi1Vwn4CPxbu91+y8rKimyI/P6JQtu27wHwLkWlBJQAPu04jmy2vSSQRqPxDma+V8EoASVwiQARvbPZbH6mKxDbto8BkCty9KUElMAlAo87jnOzfNchW9Q/p1SUgBLYQODtIpBPAdijcJSAEthA4G4RiDzSkpsH9aUElMB6AsdFIJW/oFhHhRIYREAFomNDCQwhoALR4aEEVCA6BpRANALqQaJx01wVIaACqUhHq5nRCKhAonHTXBUhoAKpSEermdEIqECicdNcFSGgAqlIR6uZ0QioQKJx01wVIaACqUhHq5nRCKhAonHTXBUhoAKpSEermdEIqECicdNcFSGgAqlIR6uZ0QioQKJx01wVIaACqUhHq5nRCKhAonHTXBUhoAKpSEermdEIqECicdNcFSGgAqlIR6uZ0QioQKJx01wVIaACqUhHq5nRCKhAonHTXBUhoAKpSEermdEIqECicdNcFSEgAjkN4OqK2KtmKoEwBM6IQJYBzIbJpWmVQEUIHKZ6vf67RPSHFTFYzVQCgQkw8++RGxP9W4FzaUIlUBEClmW9yotR+DFmfm9F7FYzlcBIAkT08Waz+b6uQGZmZrbVarVVAFeNzKkJlED5CZxtt9vTKysrp9bipGuk2/L3uloYjIAX4VZSrwlE/lOv13+fiPYHK0ZTKYHyEWDmva1W6w88y9YJRH5p2/YfAfid8pmuFimBkQQ+4jjO+/2pNgjEFck+AHtHFqcJlEB5COx3HEfG/bpXX4G4061fJKJPlsd+tUQJ9CfAzO9utVp/0+/TgQJxPcmPAvgrALcqXCVQQgKPAvhlx3EeHmTbUIF4mWzb/giA3y4hIDWpugT+2HGckWvtQAIRhnNzc2+1LOtDAH6sukzV8hIQ+GdjzAeXl5e/EMSWwALxeZP3APgggFcEqUDTKIGcEPhPAB9yHOcTYdoTWiBu4dRoNN7PzL8F4JowFWpaJZAygdNE9CfNZlO+vuCwdUcVSLee6enpqe3bt/8agF8F8MqwlWt6JZAggW8D+OjJkyf/YnV19ULUesYSiL/Ser3+8wB+iYjeHLUxmk8JjEuAmb8E4K9brdbBccuS/HTnnXdef+jQoRNxFCZlNBqNtzCziOXnAGyKq1wtRwkMIfB/AP6WiA42m82H4iQlJwpnHMdZibNQKWvHjh2Xb9my5R1E9DPM3Ii7fC1PCRBR0xjz2fPnz9979OjRF+Im0mg0dstie3ez2TwQd+H+8ubm5l5pWdZPA7hLtJNkXVp26QkcBXCfMebvl5eXZZ2R2KsrENu2DzuOk9qZdNu2X0FEb2NmW/ZGAnhxYhZqwWUg8CwAh4gcZn7AcRx5XJvKS7ThXfszm8Q0K4gV8/PztzPzHfIG8LYgeTRN6Qk8QERH5L20tPTlLKyVtXm73X6yKxBmPtBqtfZk0ZDeOl3B7GRmeRom7215aJe2ITECp5j5qGVZDzHzQ8P2RSXWgj4F1+v1u4moO8USgZwgoj1ZeZFhhs/Ozv7wxMTE7QDk/SYAt6UJSuuKlwAzP0JE/8LMXzbGPHz48OF/j7eG8UuTB1cADktJazcrikgmJydn43zkO35TN5awa9euy9rt9m3GmDdalvUGZn4DgJuTqEvLHJvAMQCPiigsy3qkVqt99cEHH5RHsrl9eVMrr4Hrrh4VkbRarRty2/oBDZuZmdlUq9VuYebXE9HrAMh7Z9HsKHh7vwjgGBE9xsyPnTt37rEkHr0mzUgW5nKPSV+ByC/ztB4ZF4bc+dXpdF5rWdY0M98E4EZmvpGIXjRu2VXMz8zPEdFxAMeJ6HFjzOrExMTXl5aWniwDj15xrJti+Q0synQraqfU6/Vrmfk6ANcR0cuIaDsRbWNmeSDwGvk9gC1Ryy9ovnMAngLwBDOfIqLvMnP3Lb8noqdardbTBbVtaLPdadXdfs8x0IN4H5RdJEE6en5+fotlWdd0Op2rjTFywfdLieglAF7CzFcRkdwjdqX7XY58nyPvrKeo8tdcvjvw3t9j5rNEdBbAfwN4Rt5E9MzFixfPTE1NnV5aWhJxVPLVu+bohTA0/IH7dOuA4zh6FVDI4SMPEy5cuLCVmbcSkXgjEdtmY8zllmVdzsyXu3vVLgNwGRFdZoyZkmosy7rAzLKY9d7/S0QvGGNesCxLfp4HcI6ZzxHR81NTU8/nffEbEl8qyW3blotJNlzU4K88UHwQ9Sap9JdWkhKBYVOqUB6kd11CROpNUupErSYZAkG8RmgPokJJprO01PQIiDCYeTcRXR+m1kBTrH4F6vokDGZNmxUB+VacmWXbSChhjHyKFdQgEYplWfuT3jIftD2aTgkIgageI/IaZBR2z6PUarWDed+uMsoW/byYBNzFt5xmHfpkKox1kadYgyoRoQBYkeOPedz8GAaOpi0GARHGxYsX98ru27hbHLtAehf0Kpa4u0zLEwJJeIt+ZBMVSL+nXwCOqGfRQR6FgCeKKE+jotQneVITiHqWqF1U7XxZiMJPPBOB9PEscmDroKxf1LuoINrttiy0Zcv52rbzrKhkLpBew71FvmVZR1QwWQ2L9Or1rSWk0tiePsVlQe4EooKJq2vzWY5PELnwEKMo5V4gAwQjv15RLzOqe7P73BWCfHstt9XIqxCC6CVWOIEM6nJvaiafq3DSE4YIQWrrdDqypUMuMC+kEAYRK41AhgmHiE64W2K66xpJqw8DgovIE0G73S68Rwhu9aWUpRfIMCCeWPwCkvTy+1qtdqIKW2b8g1829LlewJsS+X+GHVulSF9pgQTtwV4hdf+yEMmj6e7dsN7n8m8RlvxMU1zeIJd63b/yl/76rR/w0s7rvV2t/n8H5VDFdCqQFHrdL6ANi0CioaEnZCD3a2LU7dspmFuqKlQgpepONSZuAiqQuIlqeaUioAIpVXeqMXETUIHETVTLKxUBFUipulONiZuACiRuolpeqQh0Q7DlYVtxqaiqMaUg0L1nQQVSir5UIxIgIJEORCAj7ydNoG4tUgkUgcA+GnW7dRGs0DYqgSQI1Gq1G0gK9gIWJlGJlqkEikjACyTVFYh6kSJ2obY5SQLiPWTDaVcg8mo0GrvlDtMkK9WylUBBCMx654XWBCIN1wV7QbpPm5kkgX3+gFHrBBImsEiSLdSylUBGBFYcx5n1171OIL71SKwXAGdkrFarBMIQ2CAOybxBIF6JOt0Kw1bTFpzAumnVUA/i/1BFUvBu1+YHIbC2IO+XeKAH8RInebV8kNZrGiWQEIGVWq22Z9TdASMFolOuhLpHi82EQNjQgYEFogv4TPpTK42XwMC1xqBqQgnEP+1yb+DO3WXD8fLU0kpCYF/U0ICRBKLrk5IMm/KbEWidMQzDWAJRj1L+EVY0C+MOJhuLQPxCcS8x9gKgFI2vtregBMIuvoOaKQemZpK4yFkfDwftAk0XlUDc3qK3HaINkl28zWbzQNRGjsonQhGvYoy5I4kwvaPq18/LRcAThdyLnOS4FWqiDZLDUq1Wa08aGFUsaVAuXx3+sHxJi8JPr3uQsF6vP9lqtW5IG6vv2v3cBGxMm4HWN5iA5ymyDBtu2zZ378Xyjhdm2WE93kVuNM88wmmWPKpWt08QEtxof9b2e/sQPYGcmJycnB21LyXNRqtg0qSdfl15E4SfgP8I+trNitLgLKZaQbvGCwopcTHcBb96maDwMk7nikHioKxkOWUKisF/V9y6q0fzMNUKaoSkU9GEoZVOWm9BLRG4iiCGPo9219002u9u3tAbutJBH6yW3ph7nrfRkGPB+AVJ1eMRJMuRMsR07Hf+adDl1YUWyaBO9ocsljQiHvnpxvJbi98XZJCUOY0/JqM7LRJG35bfJ/Glch5YDrobbuDt7nlfkyQBtdf7SB0S9dWLE1hkIfUM+m7gUXcatDb4y+AFooyLYfdTDw1/IBDz9nQrCoCk8vSLLusPrumFVB4UiNPzXsPaNygAqDe4vbyDIu7m6clkUv0Qtdwgt/iMjA+S1CawqEZpPiUQB4Gg9y2MFIjXGFcoe8o6B40DupaRfwLuJtrDQcNoBxaITygHJicn96vrzv9g0BZ+n4A7nQp931togbgL1+6XPioUHYJ5JxBVGGtrO9mLFdXIpPfjR22X5lMC4wojFoH41yfiUYjooK5RdHBmSSDug3qRplijHksS0YE87MjMsqO07vQIeN6CmXcHXXwHbV3sAun1KpZlHUnzkEtQwzVd8QnIkVgAshsiseunEhOIH79vA5tOwYo/LjO1IK61RVAjUhFIP7GoZwnaRdVO5+3YTtpTDKKcukB6xeJumSjEOYFqD9X0rPd5CZlCZXqyNFOB9CL3H84v887R9IZaMWryCUIanNh6IgqNXAlEBROlC4uXJ08eYhS9XAukn2BkSibeRdYw6mVGdW/2n/d4h8ynTGGJFEog/YzzbQdf8URT1XMNYTs/zvQ9i2kpunBi6Mej8AIZ1Ml+4YjXKfuJuDgH+6Cy/CcyvYNk7hdzmS6kk7S9tAIZBs0vHkknnkd+yu+r7H16BeAy8Y4il1YEw8ZKJQUS5C+O/4iq/9+9J/fyKqje047eFgz/KUff7/Q8/oBBoQIJopYQafxHZL1jsYOOzUqxvUdn+zyYkPu/+r56jvd208W9FymE6aVMqgIpZbeqUXERUIHERVLLKSUBFUgpu1WNiouACiQuklpOKQmoQErZrWpUXARUIHGR1HJKSaAbYUofDZayb9WoGAiIB1l33XsMZWoRSqAUBCQciAhkb9724JeCrhpReAJdgfjDTRXeIjVACcRLYJakPJ1mxUtVSysFgRXHcdYEIjs1ZS2iLyWgBC4RmJVLELsexPUiuhbRoaEELhHoeg/5x5pAggQTUXpKoAIE1sSxTiDyn7CxEyoAS02sEIF+YQfXPIjHQUVSoRGhpq4RGBRucINAfJ5kLxHtVoZKoAIE1k2r/Pb2FYgnkna7HToiTwVgqoklIiBfBrZarT2DTBooEC9Do9HYbYwRbzLw6GeJeKkpFSEQNObmSIGoN6nIiKmQmaO8RqApVj9eEo+Bme9Wb1Kh0VQiU4N6jcgC8bxJp9OZ0WlXiUZOyU3xYmlGiXoWaIrVj1+SYa9K3l9qXkoExhGG18TIAvEKEKGIR2FmeeJVydv3UupvrSYggTiEEZtA/G2OO8JoQB6aTAl4BPbVarWDhw4dOhEXkrE9yLDpV1lu+I4LtpYTP4E4vUW/1iUikF6vIl84JhGiN37cWmIRCHiiiNtbZCKQfmLRI75FGIb5aqMnCgBH5JxGWq1L3IMMMqRIYbjS6gytZz2BrEThb0VmAun1LO53K3eUPSCLimAwAU8QEmKi2WweyAOrXAikF4T36NgYo4LJwyhJqA0+D4EoX+Il1Kx1xeZSIP0E0263ZbPkHfpkLI1hEX8drhjk8ausH1JdR4xjTSEEMuhRskzL5DPxNCIc3SM2zlCIL29RxZD5U6z4uqB/SV6kVRGKb3omifUb/gTg9whBaiiMZwiKo7AeJKiBks4fnNLzOD5vo+IZANMfm9GdGnVFkNe4jGHGRNC0lRDIKBiegGSdI8LpCXEs0W9LFeSyZ+B3o/v6YiVWSgCjxoYKZBShns97xeR97I8e6/2uX5DN3upGrZuCBADtFzhU6umNyJvmF2whseY2+f8DuMalyWfkbTEAAAAASUVORK5CYII=;fontSize=12;" vertex="1" parent="qm9onJdicJjvLXKeHIaW-171">
          <mxGeometry x="42.99" y="95" width="41" height="41" as="geometry" />
        </mxCell>
        <mxCell id="qm9onJdicJjvLXKeHIaW-14" value="Parser" style="shape=image;verticalLabelPosition=bottom;labelBackgroundColor=none;verticalAlign=top;aspect=fixed;imageAspect=0;image=data:image/png,iVBORw0KGgoAAAANSUhEUgAAAMgAAADICAYAAACtWK6eAAAAAXNSR0IArs4c6QAABsdJREFUeF7t3VFqHUcQheFpoX1E3olAetAyopXYO7GyC8FFxFmJnX0ITRB+CQR7cHXTma768nqpnj7/qR9Drn2nbf5DAIEfEmjYIIDAjwkQxHYg8BMCBLEeCBDEDiAQI+BPkBg3U0UIEKRI0WLGCBAkxs1UEQIEKVK0mDECBIlxM1WEAEGKFC1mjABBYtxMFSFAkCJFixkjQJAYN1NFCBCkSNFixggQJMbNVBECBClStJgxAgSJcTNVhABBihQtZowAQWLcTBUhQJAiRYsZI0CQGDdTRQgQpEjRYsYIECTGzVQRAgQpUrSYMQIEiXEzVYRAWJC7u7uvrbWbIpzEXJjAvu/fXl5ePkQiECRCzcxSBAiyVF0uO5sAQWYT97ylCBBkqbpcdjYBgswm7nlLESDIUnW57GwCBJlN3POWIkCQpepy2dkECDKbuOctRYAgS9XlsrMJEGQ2cc9bigBBlqrLZWcTIMhs4p63FAGCLFWXy84mQJDZxD1vKQIEWaoul51NgCCziXveUgQIslRdLjubAEFmE/e8pQgQZKm6XHY2AYLMJu55SxEgyFJ1uexsAgSZTdzzliJAkKXqctnZBAgym7jnLUWAIEvV5bKzCRBkNnHPW4oAQZaqy2VnEyDIbOKetxQBgixVl8vOJrC6IJ9aa3/3Qnt7e/vodQy9FHPOLy3I9fX1h+fn52+91dzf3/+5bdtt7znm8xEgyLZtBMm32KMSEYQgo3Yp5TkEIUjKxR4ViiAEGbVLKc8hCEFSLvaoUAQhyKhdSnkOQQiScrFHhSLIQEH2fX+6urr6a1Q5zokT2Pf9t23bPsVP+D5JkIGCtNYeL5fLU28p5vsJPDw83Ly+vn7tPYkgBOndoVPOE2TbtrP9VRN/gpzHFYIQ5DzbeMKbEIQgJ1zL81yJIAQ5zzae8CYEIcgJ1/I8VyIIQc6zjSe8CUG+f4kz6juH20H/ovDL+/83P+G+lLxSa+333uBLfw/SG948AkcECHJEyOelCRCkdP3CHxEgyBEhn5cmQJDS9Qt/RIAgR4R8XpoAQUrXL/wRAYIcEfJ5aQIEKV2/8EcECHJEyOelCRCkdP3CHxEgyBEhn5cmQJDS9Qt/RIAgR4R8XpoAQUrXL/wRAYIcEfJ5aQIEKV2/8EcEVhfEOwqPGvZ5F4GlBTnbD8d1NWH4lAQIMvCnR0/ZsEt1ESAIQboWKPswQQiSfce78hGEIF0LlH2YIATJvuNd+QhCkK4Fyj5MEIJk3/GufAQZKIh3FHbt4tBh7yj049VDFyrbYX68miDZdnpoHoIQZOhCZTuMIATJttND8xCEIEMXKtthBCFItp0emocgBBm6UNkOIwhBsu300DwE8Y7CoQuV8TDvKMzYqkynIrD0XzU5FUmXSUmAIClrFWoUAYKMIumclAQIkrJWoUYRIMgoks5JSYAgKWsVahQBgowi6ZyUBAiSslahRhEgyCiSzklJgCApaxVqFAGCjCLpnJQECJKyVqFGESDIKJLOSUmAIClrFWoUAYKMIumclAQIkrJWoUYRWFqQ1trje4ABMD5u23Y74BxHJCOwtCDeUZhsG08YhyADf7z6hP26UicBghCkc4VyjxOEILk3vDMdQQjSuUK5xwlCkNwb3pmOIATpXKHc4wQhSO4N70xHkIGCvL+jsLX2R2cnxgcQaK3d7Pv+ufcoggwU5P2b/cvl8tRbivl+An682q+7929R4hMIQpDE690fjSAE6d+ixCcQhCCJ17s/GkEI0r9FiU8gCEESr3d/NIIQpH+LEp9AkH+9o/D9S6HOrkf9a8IvnfcwPpZAd69Lf1E4lqXTEPgvAYLYCgR+QoAg1gMBgtgBBGIE/AkS42aqCAGCFClazBgBgsS4mSpCgCBFihYzRoAgMW6mihAgSJGixYwRIEiMm6kiBAhSpGgxYwQIEuNmqggBghQpWswYAYLEuJkqQoAgRYoWM0aAIDFupooQIEiRosWMESBIjJupIgQIUqRoMWMECBLjZqoIAYIUKVrMGAGCxLiZKkKAIEWKFjNGgCAxbqaKECBIkaLFjBEgSIybqSIECFKkaDFjBAgS42aqCAGCFClazBiB/0uQ7vdXx+KaQuDXCby8vDz++tS2tciQGQSqECBIlablDBEgSAiboSoECFKlaTlDBAgSwmaoCgGCVGlazhABgoSwGapCgCBVmpYzRIAgIWyGqhAgSJWm5QwRIEgIm6EqBAhSpWk5QwQIEsJmqAoBglRpWs4QAYKEsBmqQoAgVZqWM0SAICFshqoQIEiVpuUMESBICJuhKgQIUqVpOUMECBLCZqgKgX8AepHCI5BhnMkAAAAASUVORK5CYII=;fontSize=12;spacing=0;" vertex="1" parent="qm9onJdicJjvLXKeHIaW-171">
          <mxGeometry x="116" y="93" width="44.99" height="44.99" as="geometry" />
        </mxCell>
        <mxCell id="qm9onJdicJjvLXKeHIaW-172" value="&lt;font style=&quot;font-size: 11px;&quot;&gt;Alert&amp;nbsp;&lt;/font&gt;&lt;span style=&quot;background-color: initial; font-size: 11px;&quot;&gt;Backward Analysis&lt;/span&gt;" style="swimlane;whiteSpace=wrap;html=1;startSize=30;" vertex="1" parent="1">
          <mxGeometry x="300" y="420" width="180" height="184" as="geometry">
            <mxRectangle x="40" y="430" width="140" height="30" as="alternateBounds" />
          </mxGeometry>
        </mxCell>
        <mxCell id="qm9onJdicJjvLXKeHIaW-175" value="Forward Analysis" style="swimlane;whiteSpace=wrap;html=1;startSize=30;" vertex="1" parent="1">
          <mxGeometry x="480" y="420" width="210" height="184" as="geometry">
            <mxRectangle x="40" y="430" width="140" height="30" as="alternateBounds" />
          </mxGeometry>
        </mxCell>
        <mxCell id="qm9onJdicJjvLXKeHIaW-176" value="" style="rounded=0;whiteSpace=wrap;html=1;dashed=1;fillColor=none;" vertex="1" parent="qm9onJdicJjvLXKeHIaW-175">
          <mxGeometry x="116" y="69" width="84" height="70" as="geometry" />
        </mxCell>
        <mxCell id="qm9onJdicJjvLXKeHIaW-165" value="" style="group" vertex="1" connectable="0" parent="qm9onJdicJjvLXKeHIaW-175">
          <mxGeometry x="122.99999999999999" y="76" width="68" height="57" as="geometry" />
        </mxCell>
        <mxCell id="qm9onJdicJjvLXKeHIaW-133" value="" style="rounded=0;whiteSpace=wrap;html=1;fillColor=#f8cecc;strokeColor=#b85450;" vertex="1" parent="qm9onJdicJjvLXKeHIaW-165">
          <mxGeometry x="26" y="22" width="14" height="14" as="geometry" />
        </mxCell>
        <mxCell id="qm9onJdicJjvLXKeHIaW-135" value="" style="ellipse;whiteSpace=wrap;html=1;fillColor=#dae8fc;strokeColor=#6c8ebf;" vertex="1" parent="qm9onJdicJjvLXKeHIaW-165">
          <mxGeometry y="22" width="14" height="14" as="geometry" />
        </mxCell>
        <mxCell id="qm9onJdicJjvLXKeHIaW-137" value="" style="rhombus;whiteSpace=wrap;html=1;fillColor=#fff2cc;strokeColor=#d6b656;" vertex="1" parent="qm9onJdicJjvLXKeHIaW-165">
          <mxGeometry x="51" y="40" width="17" height="17" as="geometry" />
        </mxCell>
        <mxCell id="qm9onJdicJjvLXKeHIaW-138" value="" style="rounded=0;whiteSpace=wrap;html=1;fillColor=#f8cecc;strokeColor=#b85450;" vertex="1" parent="qm9onJdicJjvLXKeHIaW-165">
          <mxGeometry x="52.5" width="14" height="14" as="geometry" />
        </mxCell>
        <mxCell id="qm9onJdicJjvLXKeHIaW-139" value="" style="ellipse;whiteSpace=wrap;html=1;fillColor=#dae8fc;strokeColor=#6c8ebf;" vertex="1" parent="qm9onJdicJjvLXKeHIaW-165">
          <mxGeometry x="53.5" y="22" width="14" height="14" as="geometry" />
        </mxCell>
        <mxCell id="qm9onJdicJjvLXKeHIaW-134" style="edgeStyle=orthogonalEdgeStyle;rounded=0;orthogonalLoop=1;jettySize=auto;html=1;exitX=1;exitY=0.5;exitDx=0;exitDy=0;entryX=0;entryY=0.5;entryDx=0;entryDy=0;endSize=4;startSize=4;" edge="1" parent="qm9onJdicJjvLXKeHIaW-165" source="qm9onJdicJjvLXKeHIaW-135" target="qm9onJdicJjvLXKeHIaW-133">
          <mxGeometry relative="1" as="geometry" />
        </mxCell>
        <mxCell id="qm9onJdicJjvLXKeHIaW-131" style="rounded=0;orthogonalLoop=1;jettySize=auto;html=1;exitX=1;exitY=1;exitDx=0;exitDy=0;entryX=0;entryY=0.5;entryDx=0;entryDy=0;endArrow=classic;endFill=1;endSize=4;startSize=4;" edge="1" parent="qm9onJdicJjvLXKeHIaW-165" source="qm9onJdicJjvLXKeHIaW-133" target="qm9onJdicJjvLXKeHIaW-137">
          <mxGeometry relative="1" as="geometry" />
        </mxCell>
        <mxCell id="qm9onJdicJjvLXKeHIaW-136" style="rounded=0;orthogonalLoop=1;jettySize=auto;html=1;exitX=0;exitY=0.5;exitDx=0;exitDy=0;entryX=1;entryY=1;entryDx=0;entryDy=0;endSize=4;startSize=4;" edge="1" parent="qm9onJdicJjvLXKeHIaW-165" source="qm9onJdicJjvLXKeHIaW-137" target="qm9onJdicJjvLXKeHIaW-133">
          <mxGeometry relative="1" as="geometry" />
        </mxCell>
        <mxCell id="qm9onJdicJjvLXKeHIaW-130" style="rounded=0;orthogonalLoop=1;jettySize=auto;html=1;exitX=1;exitY=0;exitDx=0;exitDy=0;entryX=0;entryY=1;entryDx=0;entryDy=0;endSize=4;startSize=4;" edge="1" parent="qm9onJdicJjvLXKeHIaW-165" source="qm9onJdicJjvLXKeHIaW-133" target="qm9onJdicJjvLXKeHIaW-138">
          <mxGeometry relative="1" as="geometry">
            <mxPoint x="73.5" y="12" as="targetPoint" />
          </mxGeometry>
        </mxCell>
        <mxCell id="qm9onJdicJjvLXKeHIaW-132" style="rounded=0;orthogonalLoop=1;jettySize=auto;html=1;exitX=1;exitY=0.5;exitDx=0;exitDy=0;entryX=0;entryY=0.5;entryDx=0;entryDy=0;endSize=4;startSize=4;" edge="1" parent="qm9onJdicJjvLXKeHIaW-165" source="qm9onJdicJjvLXKeHIaW-133" target="qm9onJdicJjvLXKeHIaW-139">
          <mxGeometry relative="1" as="geometry">
            <mxPoint x="73.5" y="32" as="targetPoint" />
          </mxGeometry>
        </mxCell>
        <mxCell id="qm9onJdicJjvLXKeHIaW-179" value="Scenario Graph" style="text;html=1;align=center;verticalAlign=middle;whiteSpace=wrap;rounded=0;" vertex="1" parent="1">
          <mxGeometry x="593.02" y="560" width="90" height="30" as="geometry" />
        </mxCell>
        <mxCell id="qm9onJdicJjvLXKeHIaW-182" style="rounded=0;orthogonalLoop=1;jettySize=auto;html=1;entryX=0;entryY=0.5;entryDx=0;entryDy=0;exitX=0.812;exitY=0.25;exitDx=0;exitDy=0;exitPerimeter=0;edgeStyle=elbowEdgeStyle;" edge="1" parent="1" source="qm9onJdicJjvLXKeHIaW-189" target="qm9onJdicJjvLXKeHIaW-188">
          <mxGeometry relative="1" as="geometry">
            <mxPoint x="448.5" y="1030" as="sourcePoint" />
            <Array as="points">
              <mxPoint x="458.5" y="1010" />
            </Array>
          </mxGeometry>
        </mxCell>
        <mxCell id="qm9onJdicJjvLXKeHIaW-183" style="edgeStyle=orthogonalEdgeStyle;rounded=0;orthogonalLoop=1;jettySize=auto;html=1;exitX=1;exitY=0.5;exitDx=0;exitDy=0;entryX=0;entryY=0.5;entryDx=0;entryDy=0;" edge="1" parent="1" source="qm9onJdicJjvLXKeHIaW-200" target="qm9onJdicJjvLXKeHIaW-192">
          <mxGeometry relative="1" as="geometry">
            <mxPoint x="318.5" y="1042" as="targetPoint" />
          </mxGeometry>
        </mxCell>
        <mxCell id="qm9onJdicJjvLXKeHIaW-184" style="edgeStyle=orthogonalEdgeStyle;rounded=0;orthogonalLoop=1;jettySize=auto;html=1;exitX=1.003;exitY=0.438;exitDx=0;exitDy=0;exitPerimeter=0;" edge="1" parent="1">
          <mxGeometry relative="1" as="geometry">
            <mxPoint x="361.6289999999999" y="1041.8339999999998" as="sourcePoint" />
            <mxPoint x="410.01" y="1041.7931034482758" as="targetPoint" />
            <Array as="points">
              <mxPoint x="386.5" y="1042" />
              <mxPoint x="386.5" y="1042" />
            </Array>
          </mxGeometry>
        </mxCell>
        <mxCell id="qm9onJdicJjvLXKeHIaW-185" value="&lt;font style=&quot;font-size: 11px;&quot;&gt;generate&lt;/font&gt;" style="edgeLabel;html=1;align=center;verticalAlign=middle;resizable=0;points=[];labelBackgroundColor=none;fontSize=8;" vertex="1" connectable="0" parent="qm9onJdicJjvLXKeHIaW-184">
          <mxGeometry x="-0.2113" relative="1" as="geometry">
            <mxPoint x="5" y="-15" as="offset" />
          </mxGeometry>
        </mxCell>
        <mxCell id="qm9onJdicJjvLXKeHIaW-186" value="" style="shape=image;verticalLabelPosition=bottom;labelBackgroundColor=default;verticalAlign=top;aspect=fixed;imageAspect=0;image=data:image/png,iVBORw0KGgoAAAANSUhEUgAAAMgAAADICAYAAACtWK6eAAAAAXNSR0IArs4c6QAAEmVJREFUeF7tXe2RGzcMpSpxUkniLuRfjitJXImdX94uYlcSp5LLQEeeaZ2kJR4ALnf5NJOJZ45f+4BHgCBInhJ/RIAI3EXgRGyIABG4jwAJQu0gAg8QIEGoHkSABKEOEAEMAVoQDDfWmgQBEmQSQfMzMQRIEAw31poEARJkEkHzMzEESBAMN9aaBAESZBJB8zMxBEgQDDfWmgQBEmQSQfMzMQRIEAw31poEARJkEkHzMzEESBAMN9aaBAESZBJB8zMxBEgQDDfWmgQBEqRB0Ofz+ZeUkvz3vRRfluXl3w1NsMhOESBBrgR3Pp//SCn9dkrp90yKR6L9+pTS15TSNyEPSbNTFjwYNgmSUhJSnFJ6n55JYfkJYT6SLBYIx6o7NUEyMf5ssBRaqQlR/l6W5bO2IsuPhcCUBDmfz7+fUvoUQIxr6QpRPtD1GkvpNaOZjiDvzud/HFwpDcbpKaW/0rNF4cJehdz2hachiESistWwrjNQqdGaoMhtWG8KgmRy/LshzqXr708pvaUlGUASjUM4PEEGIgdJ0qiUIxU7NEEGJAdJMpL2N4zl0ATZYkHegPmliCzcl2WRPRP+BkbgsAQ5n89/np6jR8P+SJJhRfMysEMSZGDX6pVGPKX0Kxft4xLlkAR5dz5LxEqSC02/p5TKTrjkWslP9jGk3TenlCRny6MPulomKcVWPhxBPFyrTIyPazO77MinlN43JjbelSStSKySW1o/HEGM1gPazLOmrgghl2X5YBEk68YgcCiCGNceX78sy1sLzOfz+VN2vdTN0IqoIetS4WgEQSNXZnIUaaEkYUSri76rOzkUQd6dz09qBFL6/mVZfgXq3a0CunluJPX8ltnbOgxBUPcq50bJqUC3X16TSNaw6kc3SwVXl8JHIgjiXoXN2oirlc+O8JBVF9Vv6+QwBEHSSiKsR7UWkUNZKivCaFab0vYsNTNB3Nce14LTrkVIkJ6q39bXkQiiXaCHuVcFesCqhY+pTS1YqiAwLUF6zNbAOiTcqlH1dQjMTJDwHCgSRKeMI5aemSDh6R1AXhgtyGAsIUECBUILEghup6aPRBBtinv4glgbxUophY+pk14dppuZCSLHXsMOKyE7+8zHGo9XhyEI4M6EngsH1h+h4xlP9fYxoiMRRC6glutENb+Qe6oQ6yGDjtzZ14DCsj8QOBJB1KkdWSndw72I9ZDjvN5ZxVR0OwKHIYhAASyKLwh6ztxoJi8X6HZljmjhUAQBZ+5CEvOCHXWtMknlFnhm8kZouaHNoxFELqiWDFrothFLurnBcoj46F4ZlDiy6qEIIkAh0awa4NYbTUqd/H6hnEWRa4CgH8O7EGxdKh2RICYrUlDPRPn73nNq1VuGMDFyX7QeXVQd6+RwBMlWBDld+AhBuTCuXBon5SAX7lYHR7YeeRJ5U/A6XeGWH0D9TwIUa3eQYeptr3VIglgiWnZIVS0cLrUku7gtLwTfAmq4R1APSxDrZW4qNccKh2xSYkOx1XJ8JfhlINq1oO0L7tc+LEGCXC03OXjuvbgNStlQnoTkleCwZ+22ft/x0AQZlSSWcLJSh8OKA8eJLWMRayv7RK7XM7UM6PAEySSBrwRtAVFTZu+L8h5W4x6eW1iTKQgyiiXZu+UwboZq5pFHZaELxtHOpyFIRRKXdz20gPe4JEI7Jk35QchRhtyNJFMRJJNEsn4lLd5tL6NV0SIPaLWOASk3GDm6kmQ6ghR0c2hSIjDdiLLH9YclARMho6ZODzynJchWRNmTFcnkgJM/NcqOlo0myfQEqYji8pzamqD3tFC3HB9Yw8Hz75GTDglyQ1L57UH5y2/igtU5RE/POVny+w4+5LmL5MQg1yokpy0yAEKCGKYydIbdgxVBT2fWcOZ0EXkh+GYyYp6IfgMnmp8kF5WZQIIYCCJVQUUaOknRwXpckg41O9/GJEcRRQimJIiRIAYrYj7iaxz63eqWNBLLotmaYBqxFiFBjFqGRnosimQc8sPqFuvh5eaAVlku33C/b5kEcdA29JhvxIxn/RyDRXS7PgmddOTbvTElQawa9XwOfpg7uayfA7pX7pG5vJGrvQjQ9QonwZIEsWpUrm9xC04/zlPIrn4JI19CyflYqkSCvkcfS0XdKy/X6loUCKberisJ4kQQdMZTdi/RIblIIuQMN2gJ3a1HwQQcj2s0iwRRauij4siMh3YfcSQVWX94z9geVuTLsrjptVtDqKCPVA9RMOv3exIFGb+nMt7CAgmAeC7USRCrhl7V72lFqq5djqQCyhjmXlVulvrWfhLEWak9mwOjQC5DsB5JBcY+KkHeanbxH4FPC+Kims+NAArm2PtzUxaSAON3XRDfcbHUIXTPqBoJ4qSigHI59fy6GZQkwDfQgoRJ8UANA4oV/vUaklgufvP09+9YEPU1sp6BA1oQo6oikR9jl83VH4VgLaSoBxBNEGTyIUGaVSS2ILiRFTuoq9Zrf9yLFFcEccvBugYG3Nl3dftoQUB1BYUH9maqVk7xRV0PGnbHMGKdvTN6SRBQ9xDhPehKUkhejvJWx3wlN6vbrSsgFCHPV6MTkPfOPgkCaAUqvKuumvKqrIeIgM+DqnivRYBNyxLmdj2IRoIA6mC1HsiZ9C3u8VJC4+ZqGRI/Xdcf8v0kiFILjNbDlBJiOUik/Ey0uPlKUMvk4+1ekSCAGhgE6Da7bZTv1YoWPAkgId16UJ7h3dIuLUir2HM5UIhu7ocMYweWRIbZbE0MLtWL9CKsBy2IkhyoexUhPIMlU361ubgQRR6+kcc6S6TuEpk7pfTe6XUqN+t8/bW0IAr5g0oZJrwOrlb9sq8Cqb5FIyYguliADBGCRArPwzW5hqG+DTHvx2zyVIRCPKEZxbQgCkkgsfmIhWM9ZA8r8uiKUGRSUEBqLRpmnWlBANEAC/RwAaIEWbs3t4YHmRgAeNVVPM993OucFkQhlnfn85OieMhNf9f9I8qL7HqjRNTgpSnbgxyMYmkk8nxiUEuQsEzXMnSEIKjbh/SlhLipeC9ykCBN4vhRSDuLemeW3housEYwuX0bkwTehFSK+qU4XSwFcoMSRPsGvIkgAtdGeWGh0SquQRREuFcUWKSHC3WrMeVNUwkBR50zeREDktzpIO5LE7QgCiQBZXS/bfwquiTPw/2r+AT3wEFOx5fXgt2J0sNFXcOOBFlDqPo74n9Hzn7A+iPkcFN2u1weQS3h52VZPitEE1aUBFFAC55Bd01UrIerXRNJ3cid/SqyJmSRtwfl/2unIstpyrtvGSpE5F6UBFFCqg31ZqX84D0jItZDxoKGeJUwvSoua5ZMlpfnHaKfc7COmWsQAEFk1s4kcTsKimYVRz10CcC4myq0IEpRoTN3fgxH7oytH8hR9v5cHAkW9HKvoA8auBIJAggHtSKaQ0S3hmUNrW7lXgEQD1OFBAFEgUSz6m4ksqV9Jcojtd3zLREAtl1WIUEAsXkoa7YmH9feHgy4DbH5KCwAzeGqkCBKkRrWII96KqHOlxN8VYhUOcK24pH7M20j2EcpEkQhJ6trpeiqS1HNDfBdBjRgJyRIo1DQyFFj81sWo8v1AH0SpEE1D0yO8vVhu/0N8A5dhAR5IB5rWHVoyd8YHNclr0EhQe5oMZh3tTdOvBov1yU/Q0KC3FDpWclRQeG+LqlysaSbSzaBR1ZB9IxEglwhTHL8AAR1uWTvJqX0Joeq186JXB74eUppdU8omgy32idBKlSc9zi63kooFxmIop1S+sfz0Z1Wl0smlpTS+1NKQg7Lr+ndFEsHmrokSEbLc4+jKGtKSV5oLWciNHJpLnvr1J3nt+SB3HW5Ak8UFqvydUtXjAQxZMfe0OJXt25UCrR2cKiZFFJwLa8q4GKFV6HgTuHvTYkyPUEchfzwSpq8SC0uCPTuYCaF8ONjy6wa8XxbTrSUywzkwoZuv7UJIWog0xLEeY9DdXtJ9tdFpvWx1CLjQh4hnDwbID/TcdQAlytKH9fa7b6hOSRBchSkViD5dz3rlqeNxdUQJRIF+t4yq0pDzpEqFTnWNCDq7zkAIQtoyHpFjQtpd8qbFTMpbs2oGgxXIyAzkqMAGOFyaYTjWbYXSTa3IAHnHS5yuBWe9CRHj9tBPBWqIoncpeUaCo4YZ0ubyCXcLe3WZTYjSGB48CcMyum9HKP/SwvQrfLoBppH315tHGRdEr4m2YQgGwjHbdOul2n3IsKjdo6wLmndyETx7EoQ58gR+s1ove43i6MD1dQ7wrok0qJ3I4in/69RAKeyhyRHjU2kVa9es5IuizUvuVoeG6hhrlYXguycHLsI43pMBM4ul0QUZUOz7OXcHaJHv1FBk3CCGG4B9JC5tY1pyOEYCoatrdGKhViRUIJkcuw1pDgdOQpJkPuHc13zORKLNYmwIqEEccxzsloCVf0IoFUD2LCwweKbX66qrJhkQSMhefdJLYwgTperdVeVI4VxEfDQMzHeuBnG4XZJuOAXQhDDLHRTplUW6+WoZuO7E2r98BayegADVEDuHY6yuOBYXJ+aiCIIaiJrFVmNguSsWMnfMifhRcbSB9D7piGAE5uba3U9SMSKeD/b5k4QEOQaGygKkiMg8Ok9EgTLco6yHlXAQN5g1GQguxI2giAW62FaZBl3hU19N03RgxcCZ2x582R1rwP9dCTQ4/nMgztBEL9RwPMyjZbQco/sUFRRetRDCOKpjLe+ERmTpxxdCWJwr1zNIgJqJulfy7LI9TNT/oCNOle53SHIH9rjvSMTBHKvPD+oiqV/Aq6gmdrNAtyZcLyQNCXPaKSrBQEADnuWGHW1Isi6F3MEWJAeBEEsiNu6yJsgT1pliPRhAYELYd3A1WKxdXkArx4ultor8dQpN4KA649QgJHd/JnDvcjaLdriImM6DEGiY+gyI2sT77yiaVtbA6T/EScUrfzkvMmXZfkV+f5bdTwtyO/5MoDmsfWYrbVh58kJgsjw87Is8mqv+28Er8STIJsupu5JR0sQeX32y7LIRdBT/gC8ZN3mmiBYgB8h6DMDQeQ8ytoV/DUZpiYIsFAX7MznQK5nIyS8m/eyXIMsngRBzLNr5uWtKV87I87sYgl+yDokK6bbJivoWskwXNcf0uDWBAnzX7Ow5ZI0SXZr/pEgZ/VEV8D1WlMirpU3Scs3uRFEGgQiDqHuDGKme0TWmtm6UUHQzbqM1nJPlfVaqIg9LG+CaFOTwxZ42YKoN5kiQN5Iz+FukYnlqrPVszw31hxqWV33GRFc8SaIdkEcnWqicq8EcM9NJlhDB6hosSLV8C9EuXfzvtOF5cVyhUTSXAmC7Hpms+z+ceBY3Bd5A+g6NAQ0l+1BZy9PVuQDUJpDUGvfEOaqexMEXeC53mmEughcf/ysh+Aks6bM7n+P2oeRgboSJC/U1esQzwiEIUQ4daLiPa3VhsndtX+lweg1oztBLLOO9R061HJkGdC9uqGMAa6WG4d6WHx3glisSEZOHQFBI1a1pHqA7aYZnRsalCRh644a3hCCWKxIawSklEN3fq90jNZjhXSWK0ED+NyFHCFrkAKGs+8qVqVEQS7Rj+ryODP+tB5tEBpvjWnrZH3NEZp9cd19iAXxcHlc0GxrpNts1DacsUtt6W5FL8hvIR9GkLwWUW8c9laPyBBh72/p2Z/1oj7lWKHLBJV93CweSpAtZ5sWcLaYkVrGtZcyPR5i9UqARDENJUh2tYZ8dpjrDlRlXteLIMrWxChfGU6QTBLZYf+kvGPVT4JXLc2e0h4FbHWZeLkjWZVOkvfB/o68ylT77V0IMhJJaDm0KoKXz4QRkryRyfGU0i85GimNSlTyv9z612VZLk9bjPbrRpARSDKK2R5NCTie+wh0JUgZhlMqtUaum0VBNINk2fEQ2IQgPa0JXarxlG5PI9qMIJU1keuC/vRewFsTH/ckRI41DoHNCVIRRSJdhSiq6EdpI5Pi27Isn+MgY8szITAMQWrQb4QL5c/XpJF1RXnZ6JvczTRqJGQmhTratw5JkKOBzO/ZLwIkyH5lx5F3QIAE6QAyu9gvAiTIfmXHkXdAgATpADK72C8CJMh+ZceRd0CABOkAMrvYLwIkyH5lx5F3QIAE6QAyu9gvAiTIfmXHkXdAgATpADK72C8CJMh+ZceRd0CABOkAMrvYLwIkyH5lx5F3QIAE6QAyu9gvAiTIfmXHkXdAgATpADK72C8CJMh+ZceRd0CABOkAMrvYLwIkyH5lx5F3QIAE6QAyu9gvAiTIfmXHkXdAgATpADK72C8CJMh+ZceRd0CABOkAMrvYLwL/A/4dLlASUPl7AAAAAElFTkSuQmCC;" vertex="1" parent="1">
          <mxGeometry x="300.5" y="968" width="30" height="30" as="geometry" />
        </mxCell>
        <mxCell id="qm9onJdicJjvLXKeHIaW-189" value="Alert" style="shape=image;verticalLabelPosition=bottom;labelBackgroundColor=none;verticalAlign=top;aspect=fixed;imageAspect=0;image=data:image/png,iVBORw0KGgoAAAANSUhEUgAAAMgAAADICAYAAACtWK6eAAAAAXNSR0IArs4c6QAACmxJREFUeF7tnW2S2zYMhqlJe4+4uUhyknbPEe/EGTvn6PYkzUWazUHaccder9dfMiQKFAHi2b8mZfIFHkN4RSVd4g8FUKBXgQ5tUAAF+hUAELIDBe4oACCkBwoACDmAAnkKUEHydGNWEAUAJEig2WaeAgCSpxuzgigAIEECzTbzFACQPN2YFUQBAAkSaLaZpwCA5OnGrCAKAEiQQLPNPAUAJE83ZgVRAECCBJpt5ikAIHm6MSuIAgBiLNDPq9X7xWr109iywi4HQAyF/nm5/LJbzmKz+WpoWaGXAiBGwr+rHNt//3veLaf75d2CKmIjMABiIw5pVz22qVvtAUnbFVXERmAAxEAcTqvH63KoIgYCs/+x4q+6Aj+Wj3+nlD5eLOT7b5v1p+qLC74AAKmcAKe3VpdL6br0sFivnyovMfTXA0jF8N+6tTpbzjb97H5994mGvV6QAKSe9meNed8yaNgrBogepJ74YvU4WRoNe704UUEqad/TmN9czXabnj58Wz9UWmrorwWQCuF/Xi4/blO3c64G/1FFBkulOhBAVOUcdrEfnx+fU5feDxt9GEXDPkourcEAoqXkwOvcs3WlS9CwSwrpfw4g+pr2XnFMY97ranFOa8aI8SR9VrGnVI/XhVJFZg0ZR03mklujehwhoYrMFTYAmUvpMbbugDVxTmuASBpD6EE0VBSukWPrSsvinJakkM7nAKKj492rZNm60rqwfSWFVD4HEBUZ+y+i0Zj3Olq8WFU4erhYRQXWbMyxfYuGqvfiVJCCupesHti+BQN3cmkAKaTzHNUD27dQ8ACkvLDKtq60YGxfSaHMz6kgmcLdmzbHrdXl92P7FggkL0zpizrnrdXZ6rF99YMJIPqa1qgeNOz6cXzTtNy1w125WvU4bSo5p6Wad/QginLO3JjfXDmv5yoGlFssPTFLnLfKXR2v5+Yqdz2PCqKkZZHzVrlro2HPVe5qHoAoSFmzMe9bPi9WKQSWW6zpIlpozHshoWGfHGAqyEQJLVYPbN+JQT11BfUuFe9KlqvHERKqyKTEpIJMkM+CrTtg+ZzTGiBSfy83YXLkqZZsXSkOnNOSFOr/nAqSqZ0pW1faA7avpFDv5wCSIZ3lxhzbNyOgd6YAyEg9PTTm2L4jgwogeoJ5rB7Yvvnxp4KM0M5z9cD2HRFonoPkieXE1pU2h+0rKQQgIxQ6DPV8a3W5W2zf4fHnFmuAVi3cWp1tE9t3QNRfhgDIAKlaqh407AMCzi3WcJGaqx6nweeclpgIVBBBokYa85u75PVckQ9use5J5Om8lRzq2yN4Pfe+clSQO/q4Om+VSwgN+13lAKRHnhYb875M4PXcfkYA5IY2LTfmvZDQsN+UBkBuAbJcftmmbpV71+JxHlWkp0fzGMySa45YPY7PRqgiV6lFBbmQpGVbd8APC+e0LkQCkBNBIti6EiSc0zpXCEBO9Ahh60qEYPueKQQgBzki2boSIzTsbwoBSEopcmOO7cuTdOkHM1E9riWiirxoEr6CUD3uPEXG9gWQ4LauVF3D276hKwi3VhIfKUW3fcMCwq2VDMd+RHDbNy4gAc9bDUTixnGL7Wqx2XzNne95XkhAqB7jUzbqi1UhAanYmH/vuvTX+PR8m7Hdpt9TSh+nXCNnbtTXc8MBUvO8lUaS/fP58c+uS3/kJPnUORGrSDhAap638g5IxIY9FCC1bV33gOyfLMdq2MMAYqExbwGQ/fGLQE/Y4wBiwNZtBpBAVSQEIBaqx/6Z2zY9ffi2fpjSLNds0k/XHaWKhACkoq17xkJLgKSUQpzTah6QmrbuZaVoDJAQ57SaB6Smrds6IBFs36YBqW3rNg9IANu3WUCsNOankLR2i/W6t5Yb9nYBMWDrRqggL6+ltvvwsElALFaP1mzeS/hbrSJNAmLF1o1SQQ77bNL2bQ4Qa415hB7k2It06WGxXj9NeRBqbW5TgFi9tXoNeqtN+jGpG3w9ty1ADDbmkSpIiw17M4BYrx6tN+mtntNqBhCrjXm0CqL1Q2ClF2kCEEvnre4Ftvke5GTzrdi+TQBi6bwVgBwUaKRhdw+IZVs32HOQq9+GFp6wuwbEQ2MesQdpqWH3DYhxWzd6BWnB9nULiLfqoeXuWHnldozL5LlhdwuIB1uXCnJUwO05LZeAeLF1AeRNAa//jYJLQLzYugByooBT29cdIJ5sXQA5V8Cj7esKEI+NeXSb9/JHwlvD7gsQZ7YuFeTa6/JWRdwA4r16RLZ5PVcRN4B4tHVvPCtw+x/ojHnuMWCsG9vXBSCeG/MByRJyiBfb1zwgLdxahSRA2rQT29c+IM4bcylPIn/uoWE3DQjVo318rNu+pgFppDFvP8sn7FDjLcsJXy9ONQuI1/NWouIMuFLAchUxC4jX81bkf4YChht2k4Bg62YkmfMpVht2c4DQmDvP9AnLt3irZQ8QbN0JKeZ7qsUqYgoQqofvBNdYvbUqYgoQbF2NFHN/DVPntMwAgq3rPrHVNmDpnJYZQLB11fLL/4UM2b4mAMHW9Z/T2juw0rBXB4TGXDu12rmehYa9PiCxbF1emBrBr4UqUhWQaNVD42Cex39ZcQQT5s5pVQUkmq0LIFmoVLV9qwESsTEHkCxAUk3btwog0W6tXtMCQPIASRVt3zqAxGrMj1kBIJmApJRqNeyzAxK1euxSA0DyAdnNrGH7zg5ItMb8NCUAZBogGvqNXcGsgEQ/b6UR4Gg272VCz11FZgUk+nkrABn7+31j/MwN+2yARLR1L8MLIAqAzNywzwJI5MacHkQHilq3WvMAEtTWpYKUgWPvaKXtarHZfC33DS9XLg4I1eMthNxi6abzHA17cUAi27pUEF0gblyt+DmtooBEt3UBpDggxc9pFQUkuq0LIOUBKX1Oqxgg2LozJAdfcWikyzXsRQChMSdz51agVMNeBhBs3bnzI/z3lbJ91QGheoTP1WoClKgi6oBg61bLD744JXXbVxUQGnNytLYC2q/nqgHCrVXt1OD79woon/bVA4TGnAw1ooBmw64CCNXDSGawjKMCWg27CiA05mSmNQU0Dobu9jQZEM5bWUsN1vOqgEYVmQwI561ISLMKKDTskwDB1jWbGizsoMDUhj0bEBpzctCLAlNutfIBwdb1kh/h1zmlimQBQvUIn3PuBMitIlmAYOu6yw8WnHlOazQg2LrkmlcFcs5pjQYEW9drerDunHNaowDB1iXJvCswtmEfDAiNuffUYP05T9iHA4KtS4Y1osCYKjIIEKpHI5nBNo4KDLV9BwGCrUtmNajAoNdzRUBozBtMDba0V2CI7SsCgpYoEFkBAIkcffYuKgAgokQMiKwAgESOPnsXFQAQUSIGRFYAQCJHn72LCgCIKBEDIisAIJGjz95FBQBElIgBkRUAkMjRZ++iAgAiSsSAyAoASOTos3dRAQARJWJAZAUAJHL02buoAICIEjEgsgIAEjn67F1UAEBEiRgQWQEAiRx99i4qACCiRAyIrACARI4+excVABBRIgZEVgBAIkefvYsKAIgoEQMiKwAgkaPP3kUFAESUiAGRFfgfBzC3FBgjFbYAAAAASUVORK5CYII=;fontSize=12;" vertex="1" parent="1">
          <mxGeometry x="410.01" y="1023" width="40" height="40" as="geometry" />
        </mxCell>
        <mxCell id="qm9onJdicJjvLXKeHIaW-190" style="edgeStyle=orthogonalEdgeStyle;rounded=0;orthogonalLoop=1;jettySize=auto;html=1;spacingBottom=0;" edge="1" parent="1">
          <mxGeometry relative="1" as="geometry">
            <mxPoint x="432" y="1020" as="sourcePoint" />
            <mxPoint x="332" y="1020" as="targetPoint" />
            <Array as="points">
              <mxPoint x="432" y="996" />
              <mxPoint x="332" y="996" />
              <mxPoint x="332" y="1018" />
            </Array>
          </mxGeometry>
        </mxCell>
        <mxCell id="qm9onJdicJjvLXKeHIaW-191" value="&lt;span&gt;&lt;font style=&quot;font-size: 11px;&quot;&gt;Backward Search&amp;nbsp;&lt;/font&gt;&lt;/span&gt;" style="edgeLabel;html=1;align=center;verticalAlign=middle;resizable=0;points=[];labelBackgroundColor=none;fontSize=8;" vertex="1" connectable="0" parent="qm9onJdicJjvLXKeHIaW-190">
          <mxGeometry x="-0.0842" y="-1" relative="1" as="geometry">
            <mxPoint x="-4" y="-15" as="offset" />
          </mxGeometry>
        </mxCell>
        <mxCell id="qm9onJdicJjvLXKeHIaW-192" value="Alert Detector" style="shape=image;verticalLabelPosition=bottom;labelBackgroundColor=none;verticalAlign=top;aspect=fixed;imageAspect=0;image=data:image/png,iVBORw0KGgoAAAANSUhEUgAAAMgAAADICAYAAACtWK6eAAAAAXNSR0IArs4c6QAAFMlJREFUeF7tXVtyG7cSBRh5HZFXImslItcQ3ar7ZZL5SlXkNUhaieWVhFmHfYlbADnDITlDvE43HgP+KPFg8Gj06T7deIwU7RctgT//87ocVqLU4nf9/0qp++7fF1KY/94rsdN/pZTm7+G/9//2z+4Ozzd/rfrn0R1sFQRLQAa/ObMXN8+vX7SSa+XXii+F+CKOSk8iCiV2UoqdEvLDgE3sf4g7sWvAIZH2ZKUNIBOi0V5hv5cP5EAImG8pxIcGjrrbvzfABAjQ45UGkKOwcgaEbT4bYGwSCn8+a4BoUKi9XJNSpfC5CX5TKfEmpHpvlCxYhP2LswOICaiVfFI6hqj81zxL/ATPAiA9fZLiLNsUL75yamhgCZurqgGy+ePtVc4YFFMqocGyF2q7eVmZDFn7TUugOoBs/vt6L37KdQOGXe0bUJxkZC9UQokGjPBZ6oDSgvprGRbvQcwCnpDrOQTd4RBwe1MDRWe/9r+Jj7a+cpBZ0QD58/ntewOGm/L7lGrU6yStIgFi1i+UfPWZ9FbWXwIGKHdqNWdvUhRAGp3yV3LEG1Kq1VxpVzEAaXQKoerhdcyVdmUPkEanwpWa4k2zjeWT2s6FdmUNkOY1KFQcUKcSOyXVag4LjVkCRMcaUgfhlOctAHrSqpCb2rfcZweQ7fP7Wgi1acpXhgRqz3RlBZAqKNXxJKBW7+547aWqd8dv9b8rdTiKW7S3rJhyZQGQ0iiVsZoGCHKnz5PrFKjW8djAVcvhgJXFgz7WezjiK+7LAU99lCs5QAw4hPyeM6HQmRsNBn0uPEVg2gHHbKnJHjB1gSQpQHIFR392IhEgbMYid8DUFJckA0iO6xul5vj7HQYZeZdaQJIEIDkdZOrOb6egTjZP4ftcb/mXvxZPQqllFnGLDt4/qcfY2MxXDsjy7ADJJVOl9xd9/Xv1hhRmTnVls2+tcJCwAiQ5OHTmaaG2NQPjEqRZ0K+CQcIGkJTg6A4CzQkYY0DRt7mkvAhP3anPpdEtFoCkjDmUUI81xBco+paUehXoScgBkmrriA6+N9+WK5Ri1VZPskvzCgMJKUBSpHLnem4hFMDGu1NfxH3RuZJSwGQASbEIWHtmKhQEtvfSbPUpY8WdBCDc4GhewwYBt+f8saLcrF+etm69S1MKDpDDYpX8h2s4LdbASpo/NskbJHCAcKZzW4YKC46uNmPkfsrvXKvxOad/oQDhylg1SkUDjKu1E667jTPObMEAwhV3aHB8fVk+8qhIa4XL6OVKlSEA4Yo7GjjSANaAhGUDZH7xCAQgHHFHA0cacPRxCdNFGrnFI9EA4XDBubrftCrL3zrLeklm8UgUQHjijvzcLr9q5tMiT4YrnzmPAsj2j7d/KFOBzXPkA4xhTzhAksuuiGCAUFOrFnPkCY6uV+QLiplQrSCAUGetagKH+fLV8VfaWQgbRKmNpBDpqVYYQCgXkJTYrb8tP9smJ+fnU1/VrfELTtQgSZ3V8gYIqfcoHBxaNotf8tX61avKbiKkBUlaL+INEMrAvOS9VSGGI7V1RHphUr1IeFTXCyA1W4pYZQldLK0FJKSZrYQBuzNAQiykq9KVHpTHGY60FMJ1jlzKxcnB1kIaOTkDhGzwpccdgLuFa/EiWsUp9STFJXQeAHlTNoyHPC857jAKAVksTWMdQ+bL5R2MTK5bSrF46AQQMquQQZ7bZcKnyiDlUpMXoYpHUlBxN4BArOSFmpVOrcBHi1NYxxjjYHsXaTyGbXHLyQoQqqt7SqdWoVmrKcWqcd8ZBdXi9iJWgNQwSJu1831OZR1rollapmTGlXFd5CZAqFK7JSsClUy0QnHTB1/DEFIe7Wl1Hzi97W2AkOy5KjtjQzHhneJxTnyIsoe8QxWwcxnZSYCQWMrSA3PAmodNybgm3tYP5HMaSspjaCcBUvKgkJM7rGv7TLMWlDJLQyWrYb0UXoQrWJ8GCDq1W7j3oDEYI4thlV5rRHGtKYe3HQUICb0qeFGQRh7Ttptj4jk8B7UX4ThQNQoQCmu5fllaU8rck+baHmVgPt4HHn7tOn5UObgXYdjlOw4QNL0q2HtQGAubwnHxa1s/0M8pbsGhXnC+AggFnSiVMlDIwlXpSpWZbXxob0ydGr8CCNxiFhycoyfTpjznz+ukWRSr65TG5BogjV4ZPaWgA14AKdiw2MaJ3r5ESbPOAEJBKUoMzinkYFOaseeUljGkP6h34ME6YYx7DhDwSnGpwSacZgZrVp00C+2dKfXsDCB4xShvgmHe43i1jxTyezA+9MY8xp2rMf30fRdOs4jkdAYQaFBaKIdGTVyn2LH1UfJrX6VGlkfTLCo59QCBWc6jFCndHnKihnXhPOjJc8bWSZ3GpJKlrV44zZJq9fXv1ZutXd/nJ4CA4w+ObQC+g71VHmYgLjwnQhEazbLPNJVB7gESa+kuh0Dl8uyiCiuBopdj446lWTUepNKzhJJ5N+MUhqQHCLSzhcUfqMWrKToUa3xqpVmxcrkyygSB+sCD4M46ULm7MN9w+y0qajVsFdEGhXWkkKdPnQj6OWyPwtMagCAm8Fww5aR3cVbs9pgbzRqHTqxcigRIKfEHyoK5eMxYILq04WO9cymLBAgFFTUeBMXBO6GXsr0ENTmu9Ce2Pdd2clF+l34g10MojIgBSKx1OxNEIQE6bszudDI+EeLeloty5lAmd+N8iEGA1/tQoBg9kbCYy9MYxCpDCbL1nSsUzaVK9R4o1vPbd+tnw5xHnr+VQ403JNZqNOtckWDG6lgtmoYeKRYuxZv7CnoKanWW8o321vkbIGdbeiwYazQoM1lwgIRYVV+BhpaHWStPajXsb6NZ17OXNUBgSkPk4kLBMPZeSmo17E+sQsTSCM37F1Lc7/fywVe+UsqdEvsf4k7sUN99R83LYSxYDyvRAMk1xYsKBhGBcnxSJEwJjPfay7WQ4t4XGGPltSz2d2oVC5R4eZyRrM365WmLGN8BbuAPweQKkFirjcySIMDq40VMe0q+ooBxqXyxWzyQAEEvFkrEZA0FhgCItnS6TqUWvyMsgRTqCyZLF2a5x8YQC1jXWA89v1Pz4QPYyzpwiRP8pxGwAIkIXrXQsFwUAa1BHZFju+xNrNV0sZRc4Ijl/lkDJDarcjbxgUpETQEQUHG12K5tIZT3ltVGU2eXcYV6EaQOImLEs4gG2TkRAJAUE+ky2edlcNQKmc26xf2RVtlVXqGxCFIHswZISOdiqYbr5AWXCwC9a1uxSjxFs1IZHRfaNyYbJEBCjPSt+ZLIzvkCJNVEuiqwSRQI9bh5WX34vONalopmxQLPtf/X5cI8LVIHswaIb+fSTaSbCvgC3q3W81Kx2awxWhNbZ8g4YgJ1JEDQc5Y0i5U1QAip1Vkc8vy+FkJtQpXyUiFSeuXQIB2pB3kDRAjhsw6Sd/wRRhd8FR1Ns5DK5jOWGMVE9jk0DpoaK9aDeAIE6Vp9JtNalsl7dP2Ip0QnMCdZS4qUV94ASbjVBGE9rcruW4Dhs16XXYpVkM56J6FXxzuIYxIZseOnTMnD92L58tB46+mLgNvlKbNWUy0jPpOs5S5/LZ5i4hlfScbQqmFbWKqNpcb48yCel3chlMN3YqfKpwBH15d4aiQ3Sql7KYXZxxbyM7tzldjZ3l0s1I/9b+IjdhcvbuzDHmcOkJDVVONilVpS7Ta1TThq27atnVvPY+MxPYaoDZmRcUTM2LfP+Z5oPXgQ4GfXQgCi+5BiP5bOeGhrSHEreIjCIOfBt30UXfJtFx03oVkA/NKG2DTbIXBfPOgt6r7CtpXv6AOaItjadX2O5eKurXblsNTEtXU4QDwpvq2fs7z2xyaUVM9jaVZMv33Wr2LauXwXPWb0OGZ9syJyolF1JaFZSeOPuJ0EZ3InGMfBg4A/nuOb6kUpVw31pKFZaeiViX8jt9qc5a+E+Pj6snxE6gENQAh3wCIHn2NdaMrhMkY0LXFpsyuD9Zh4oJN8HwR99YqPwGsoi1Uai0QIaInrHKADdAq9OwEEmeolcHWuQq+hHC/Nwltd1zlAe0t0ileP4/QRz+grMc/F0uIQVzW5LoeOCW/1JOU8IeMPPUYKqnj6RqG+VEzfnQT6UaAZ1LUiqmGhWQnplQnQgazF97CeqxK0z0C7Soq5HA/NSkevSog/zigWGtGpti4w6zFZcxw0K6WXR9MrigD9CiDxO0pbHIJEDJSCXHYsMb1Ce0iK+OPagwAXbQ7zkc6FIxU1VV14KzscSbq5gdMrQrD3MYgWHdqtN5oVBy30fJzBQ6pVql3MeODTgf0MIOg4RNeXMo0Yp555vE1Fs6goiYvU0FSekqlcAaSkzrtMRull8NbWLH7B9yy5yhlOr4jWP7rxXAMEvB6i89Pqk3pEHc90nYhaylEoFKXFtckdDnjC+OMqSO8Gh3broacMbcKey3P0fKSkV+ixUIP9yoOYYB287SSlS68BRFCrS2xxb8kbOo5jQ9RgHwUIehNZC9bjYYqzvHQZH9socWM4tsQA9lGAUGSzmhexqc/t56jkSaqsYqmx1CRA0DSreZFIgCCSJwwWd2qUKIAP66emV5NBuolDwMdwDUCUeNt8W67iVGW+b8dTlDT0isJ7cDGSSQ9CQbOaF4kDd2yQy2Fxx0ZI4T24MqO3AQLfm5V2kSpOPdO/HXdNayLvQcBEqM5+jM3wTYDETci0QnGhP71K43sQ6kVSBefxtHBUbTfrl6ctXrrXNd4EiIlFwGsipgttdT1qbn3nJNW5j1Aw3xQOc6LBDhD9/ZCf8jv+Yuk0Lj9KMzN62QkkgG93hA6ZIjA/9IVXb6wAIfMibadvqO717+lMo1DySQrxZWjAdIZHSPWeaju77iBFYK7r5U40uAGEItA6XKnysb9Tq7aRMRorpgJttXOQJcUSQQrvYfyV69TQBFv8LtN1vK1cmAToqFWas0XOAKGzCjpmV48x37gLm8r2FoUEqKhVqkVmZ4BoYZJ5kZbVotBV9jpJslbHUaRKU3sBhGpdxGR+lXgTn9Q2Bw7NrlkVNEjJMLgzV8Pp8AKI8SIEq+unDvGm8CrQyyyGQBl3cK6ajwnTGyCkVEtnDRLetpGFthXYCaq4I1XmKsqD0HuRNNmKAvUyiy6TgoN51RzmQai9iIlJwB9jzEKbKusEKTjMjqT02c0giqXnmTYoa/u1cseS01aXqEHkEY8GA4SDarVNjVEaRvYyxZ0FZ53NgFp1/YkCCAfVaiAh0/OgisnBkQm1ggGEcm2kn8G2kBikzOiX6GlVfseyoz0IC9UyUXu7oRGt8D71UQfkpi8ZUSuYB+kqYhFgy2756DSsLNvcZpC1uhQaxIOYrBbZwarreW6LiTDdt1bEBY6U20luCQEGEN2ICeD2co0/fTg2BLlRd/v3tnfLquNBBUwaX3/UVYr7oAo8XuK6wsejS31RKEDY4pFj99uBq5Apt79Du9/uov0M445hD+EAMXSL4qKHqXlNeO7armrlleCjVAfZ5LBazkaxhg2RnR2ZHE2jXDFw5KRUXT9zB4fuJ4kH6QTADZJGucIgwkqpjl0sARzkAOHMbA1Vox2+cgMKb1Ll1KeSspCkHsTEI4zp30u1KGki3FQaU0rPyeKXfFX6uiD2Xx6bEF2HTQ4QAxLGlOEVSPTVQkJt26UQB8mkoFN9zFHg7f4sAOknRqklR159zDqY+GTGQGHNLI5MQM5rHUmyWGONpvQkXX/mBBRNpcRPuZZSLF0pBUW5UsFBHqTnCpLjwM31nPvfxEdtq/H9laSJgaHlnOo+KxTQ2SjWsMMpA/db9EvciV3JYEmVlZpWxrIC8gndQGHNr57cQHLqvdwosf9RSlCvQaEvsE6TkZqe81LWOWxam8SDdJ3KFySHswlSil1uNEwDYr+XD5c3utsmmvM5ChwmHf0/8UWPdyHFvRLyQxsvTk+fFCDdpHHv/wlSliFglNhxTNJQQXIGxFCeCHC4ZNy4dk1kAZAc0sAxoNkb8MidsW7d707sek/516r/b/1vJrukf78OW8m1ddR/taU8JhDOvvcR1DfmlxAKq5MLCyHXfnSRdg9eNgAxipNwQZFZnyprLj4Yj1nARIBzakKyAkhnXdNtg6hMbxmGg6BUMeDoh0h0Z0F2AOkGbISWcOWdQbeKbgJltaEXXxOAJFuANMqVM37iKRVZggYMkqwB0ge5+oTixYcqc1afWvuG3qYD9R7nqbSd+qQeEYu+RQCk8yb+GY5aVZV/XBRHByCxx5QoQJ6kGID0Lpn15hR+RcytRcrDZ+TrXwCQFAeQRruYIMRwGcb2+U2RjyYSJMUCpNEuStXCBeG3eskCEN2BCJAUDZDemwStwFIqWJl1U8QZNwHyx9s/bAfoAkFSBUCGQNE7W1vGywOgepvMQm2//r1683gLUpT71psQT1IVQBpQ3PUWnbJ1b/lU0mVTYki9N9/x9CRVAqQHir5R5dfiqa3In1TGZKWkes/hvAvHx3hGweIBkqoBMhROfwx1hguOGhSLhfqRgkbZPAA7zeo65AiS2QDkEixm0VGJe7Yg0aYp4OeaQuV22GtsiKSLhTaZOoBklgAZyq0/sloBWLSnMOdSCvssBPmC4S2gWEAye4BcehYpFg9SqC8leJceEAWdoZ/S1WRUy7JO0gByw7ocvgW/eFBK3Zsz0Sm9jLZ0Qnx0JxdzCLJtDMbnefL7CSY8SQOIzywey5qA31yNf/A2xghp8Bz+MeyLTPqcu1n0FR/6rw6q9d8a7+2aEnmOIGkACQCIyyuX5877d26cVXept/YyuYGkAaR2jStwfMlBIk570RpAClSgOXQ5NUjUnfqsD1w1gMxB2wodY1qQHLxIA0ihyjOXbqcCSXcjfQPIXDSt4HGmAsn6ZSkbQApWnDl1PQVIdBzSADInLSt8rNwgaQApXGHm2H1OkDSKNUcNq2DMXCBpAKlAWeY6BGqQtCzWXDWronHTgqStg1SkKvMdCglIlNitvy0/a6m2LNZ8dauakeNB0vZiVaMcbSAHCaBAcvnZ6uZBmoZVI4FYkIx9070BpBr1aAPpJBDy8aWpL2U1gDS9qlICrt+7HPMaQ4E0gFSpHm1QQwl0dwvo49H6i8T6OLPrUeb/A4ktuQmkKMjrAAAAAElFTkSuQmCC;fontSize=12;" vertex="1" parent="1">
          <mxGeometry x="314.5" y="1025" width="40" height="40" as="geometry" />
        </mxCell>
        <mxCell id="qm9onJdicJjvLXKeHIaW-215" value="Scenario Graph" style="text;html=1;align=center;verticalAlign=middle;whiteSpace=wrap;rounded=0;" vertex="1" parent="1">
          <mxGeometry x="599.52" y="1070" width="90" height="30" as="geometry" />
        </mxCell>
        <mxCell id="qm9onJdicJjvLXKeHIaW-216" value="&lt;span style=&quot;font-weight: 700;&quot;&gt;System Log Collection&lt;/span&gt;" style="rounded=0;whiteSpace=wrap;html=1;" vertex="1" parent="1">
          <mxGeometry x="105.79" y="923" width="184.21" height="30" as="geometry" />
        </mxCell>
        <mxCell id="qm9onJdicJjvLXKeHIaW-197" value="&lt;font&gt;Auditbeat&lt;/font&gt;" style="rounded=1;whiteSpace=wrap;html=1;fillColor=#eeeeee;strokeColor=#36393d;" vertex="1" parent="1">
          <mxGeometry x="137.01" y="973" width="60.51" height="27.75" as="geometry" />
        </mxCell>
        <mxCell id="qm9onJdicJjvLXKeHIaW-199" value="System Audit Log" style="shape=image;verticalLabelPosition=bottom;labelBackgroundColor=none;verticalAlign=top;aspect=fixed;imageAspect=0;image=data:image/png,iVBORw0KGgoAAAANSUhEUgAAAMgAAADICAYAAACtWK6eAAAAAXNSR0IArs4c6QAAFLlJREFUeF7tnQ2MXFd1x//n7ezGsU1IIGmMgyChVA1LAgmkpAaX7O682Y1RP1ClSAVa1W6hoLZq1S9QK1TbFapE6Yda0QoKJXYVglCqitIm8e68Wa8pwaGQhtRh46pATEWMUzs1aWKntWfuqc74veXt7Hy89+Z9vzPSaO2d+3V+9/733Pvm3nsI+opEYOfOnVdt3rz5SmPMlcx8JYAXE9EVAK5g5issy9rKzC8CsMX33gxgG4BJAFMDfkp7LgK4MODnKQDn3ffzAM4R0XPGmOeJ6H+Y+TkAz8qbmZ8lou9t2rTp7P333382kqEVz0QVt98znxYWFrZ1Op1tzHwtgGuJ6AcAXMPM1xDR1QDk/VIAP1RwZv8B4BkAZ5j5DBGdBnCamf8LwNNE9PTExMSpxcVFESIX3Naxm18ZgdTr9VcR0WuI6EZm/kFmfjkRXQfg5QBEDPraSEBE8x1mfoqIvkNE32Tm48z8RKvV+lYVgJVOIAsLCy8zxtxsjLmJiG4C8EYAN7pTmir0aVo2yhTwOIBHmPlxAMc6nc6xlZUV8TyleRVaIAsLC682xtwK4FZjzC1EtKs0PVNsQx4goq8B+Fqn0/nX5eXlbxbVnMIIRDxDp9N5E4AfAXCb6xlkXaCv/BM4A+Cr8iair1iW9ZXFxcXv5r/ZQG4FYtv2rcz8ZiLaAeB2AK8uAlBtY2AC3yCih40xDxPRlxzHeTRwzhQT5kYg9Xp9h2VZb2XmnQB+PEUGWlV+CPwTEX3RGPOFVqt1NA/NykwgjUbjFmPMHBHNA7ABTOQBiLYhNwQ6ABxmXrIsa7nZbMqaJvVXqgKZm5vbZVnWTwL4CQDyiFVfSiAogacA/KMx5vPLy8sPBs00brrEBTI/Pz9njLkLwM8C2DpugzW/EgAgOwjusSzrvqWlpeUkiSQiEHn82ul0RBDvLME3z0ny17LHJyA7A+6dmJi4Z3Fx8RvjF7e+hFgFYtv2TwH4BQAyjdKXEkibwOcBfMpxnH+Iq+I4BEK2bf8KEb2PmV8bV8O0HCUQlQARfZ2ZP+Y4zl+Ou58sskCmp6entm/f/psAft3doRrVHs2nBJIiINte/vzkyZN/urq6KltjQr8iCcS27d8A8AHZ9Rq6Rs2gBNIn8DSADzuO82dhqw4lkEajcRcz7wMwHbYiTa8EckBglZn3tlqtvwvalkACmZ+fv8EY82EA8rhWX0qg6ATusyzrA0tLS0+OMmSkQGzbfg+AjyPH+7ZGGamfK4E+BOQw2Hsdx/nEMDrDBCJPpz7pPrZVwkqgrATksfC7Bz3t6isQd0r1aQCyk1ZfSqDsBI5alvWuflOuDQJZWFh4fbvd/hwRXV92KmqfEvAIMPOJWq329sXFxcf8VNYJxLZtObO9JOe1FZ0SqBoBOXfPzPOO4zzh2b4mkJmZma21Wu0hAK+rGhi1Vwn4CPxbu91+y8rKimyI/P6JQtu27wHwLkWlBJQAPu04jmy2vSSQRqPxDma+V8EoASVwiQARvbPZbH6mKxDbto8BkCty9KUElMAlAo87jnOzfNchW9Q/p1SUgBLYQODtIpBPAdijcJSAEthA4G4RiDzSkpsH9aUElMB6AsdFIJW/oFhHhRIYREAFomNDCQwhoALR4aEEVCA6BpRANALqQaJx01wVIaACqUhHq5nRCKhAonHTXBUhoAKpSEermdEIqECicdNcFSGgAqlIR6uZ0QioQKJx01wVIaACqUhHq5nRCKhAonHTXBUhoAKpSEermdEIqECicdNcFSGgAqlIR6uZ0QioQKJx01wVIaACqUhHq5nRCKhAonHTXBUhoAKpSEermdEIqECicdNcFSGgAqlIR6uZ0QioQKJx01wVIaACqUhHq5nRCKhAonHTXBUhoAKpSEermdEIqECicdNcFSEgAjkN4OqK2KtmKoEwBM6IQJYBzIbJpWmVQEUIHKZ6vf67RPSHFTFYzVQCgQkw8++RGxP9W4FzaUIlUBEClmW9yotR+DFmfm9F7FYzlcBIAkT08Waz+b6uQGZmZrbVarVVAFeNzKkJlED5CZxtt9vTKysrp9bipGuk2/L3uloYjIAX4VZSrwlE/lOv13+fiPYHK0ZTKYHyEWDmva1W6w88y9YJRH5p2/YfAfid8pmuFimBkQQ+4jjO+/2pNgjEFck+AHtHFqcJlEB5COx3HEfG/bpXX4G4061fJKJPlsd+tUQJ9CfAzO9utVp/0+/TgQJxPcmPAvgrALcqXCVQQgKPAvhlx3EeHmTbUIF4mWzb/giA3y4hIDWpugT+2HGckWvtQAIRhnNzc2+1LOtDAH6sukzV8hIQ+GdjzAeXl5e/EMSWwALxeZP3APgggFcEqUDTKIGcEPhPAB9yHOcTYdoTWiBu4dRoNN7PzL8F4JowFWpaJZAygdNE9CfNZlO+vuCwdUcVSLee6enpqe3bt/8agF8F8MqwlWt6JZAggW8D+OjJkyf/YnV19ULUesYSiL/Ser3+8wB+iYjeHLUxmk8JjEuAmb8E4K9brdbBccuS/HTnnXdef+jQoRNxFCZlNBqNtzCziOXnAGyKq1wtRwkMIfB/AP6WiA42m82H4iQlJwpnHMdZibNQKWvHjh2Xb9my5R1E9DPM3Ii7fC1PCRBR0xjz2fPnz9979OjRF+Im0mg0dstie3ez2TwQd+H+8ubm5l5pWdZPA7hLtJNkXVp26QkcBXCfMebvl5eXZZ2R2KsrENu2DzuOk9qZdNu2X0FEb2NmW/ZGAnhxYhZqwWUg8CwAh4gcZn7AcRx5XJvKS7ThXfszm8Q0K4gV8/PztzPzHfIG8LYgeTRN6Qk8QERH5L20tPTlLKyVtXm73X6yKxBmPtBqtfZk0ZDeOl3B7GRmeRom7215aJe2ITECp5j5qGVZDzHzQ8P2RSXWgj4F1+v1u4moO8USgZwgoj1ZeZFhhs/Ozv7wxMTE7QDk/SYAt6UJSuuKlwAzP0JE/8LMXzbGPHz48OF/j7eG8UuTB1cADktJazcrikgmJydn43zkO35TN5awa9euy9rt9m3GmDdalvUGZn4DgJuTqEvLHJvAMQCPiigsy3qkVqt99cEHH5RHsrl9eVMrr4Hrrh4VkbRarRty2/oBDZuZmdlUq9VuYebXE9HrAMh7Z9HsKHh7vwjgGBE9xsyPnTt37rEkHr0mzUgW5nKPSV+ByC/ztB4ZF4bc+dXpdF5rWdY0M98E4EZmvpGIXjRu2VXMz8zPEdFxAMeJ6HFjzOrExMTXl5aWniwDj15xrJti+Q0synQraqfU6/Vrmfk6ANcR0cuIaDsRbWNmeSDwGvk9gC1Ryy9ovnMAngLwBDOfIqLvMnP3Lb8noqdardbTBbVtaLPdadXdfs8x0IN4H5RdJEE6en5+fotlWdd0Op2rjTFywfdLieglAF7CzFcRkdwjdqX7XY58nyPvrKeo8tdcvjvw3t9j5rNEdBbAfwN4Rt5E9MzFixfPTE1NnV5aWhJxVPLVu+bohTA0/IH7dOuA4zh6FVDI4SMPEy5cuLCVmbcSkXgjEdtmY8zllmVdzsyXu3vVLgNwGRFdZoyZkmosy7rAzLKY9d7/S0QvGGNesCxLfp4HcI6ZzxHR81NTU8/nffEbEl8qyW3blotJNlzU4K88UHwQ9Sap9JdWkhKBYVOqUB6kd11CROpNUupErSYZAkG8RmgPokJJprO01PQIiDCYeTcRXR+m1kBTrH4F6vokDGZNmxUB+VacmWXbSChhjHyKFdQgEYplWfuT3jIftD2aTgkIgageI/IaZBR2z6PUarWDed+uMsoW/byYBNzFt5xmHfpkKox1kadYgyoRoQBYkeOPedz8GAaOpi0GARHGxYsX98ru27hbHLtAehf0Kpa4u0zLEwJJeIt+ZBMVSL+nXwCOqGfRQR6FgCeKKE+jotQneVITiHqWqF1U7XxZiMJPPBOB9PEscmDroKxf1LuoINrttiy0Zcv52rbzrKhkLpBew71FvmVZR1QwWQ2L9Or1rSWk0tiePsVlQe4EooKJq2vzWY5PELnwEKMo5V4gAwQjv15RLzOqe7P73BWCfHstt9XIqxCC6CVWOIEM6nJvaiafq3DSE4YIQWrrdDqypUMuMC+kEAYRK41AhgmHiE64W2K66xpJqw8DgovIE0G73S68Rwhu9aWUpRfIMCCeWPwCkvTy+1qtdqIKW2b8g1829LlewJsS+X+GHVulSF9pgQTtwV4hdf+yEMmj6e7dsN7n8m8RlvxMU1zeIJd63b/yl/76rR/w0s7rvV2t/n8H5VDFdCqQFHrdL6ANi0CioaEnZCD3a2LU7dspmFuqKlQgpepONSZuAiqQuIlqeaUioAIpVXeqMXETUIHETVTLKxUBFUipulONiZuACiRuolpeqQh0Q7DlYVtxqaiqMaUg0L1nQQVSir5UIxIgIJEORCAj7ydNoG4tUgkUgcA+GnW7dRGs0DYqgSQI1Gq1G0gK9gIWJlGJlqkEikjACyTVFYh6kSJ2obY5SQLiPWTDaVcg8mo0GrvlDtMkK9WylUBBCMx654XWBCIN1wV7QbpPm5kkgX3+gFHrBBImsEiSLdSylUBGBFYcx5n1171OIL71SKwXAGdkrFarBMIQ2CAOybxBIF6JOt0Kw1bTFpzAumnVUA/i/1BFUvBu1+YHIbC2IO+XeKAH8RInebV8kNZrGiWQEIGVWq22Z9TdASMFolOuhLpHi82EQNjQgYEFogv4TPpTK42XwMC1xqBqQgnEP+1yb+DO3WXD8fLU0kpCYF/U0ICRBKLrk5IMm/KbEWidMQzDWAJRj1L+EVY0C+MOJhuLQPxCcS8x9gKgFI2vtregBMIuvoOaKQemZpK4yFkfDwftAk0XlUDc3qK3HaINkl28zWbzQNRGjsonQhGvYoy5I4kwvaPq18/LRcAThdyLnOS4FWqiDZLDUq1Wa08aGFUsaVAuXx3+sHxJi8JPr3uQsF6vP9lqtW5IG6vv2v3cBGxMm4HWN5iA5ymyDBtu2zZ378Xyjhdm2WE93kVuNM88wmmWPKpWt08QEtxof9b2e/sQPYGcmJycnB21LyXNRqtg0qSdfl15E4SfgP8I+trNitLgLKZaQbvGCwopcTHcBb96maDwMk7nikHioKxkOWUKisF/V9y6q0fzMNUKaoSkU9GEoZVOWm9BLRG4iiCGPo9219002u9u3tAbutJBH6yW3ph7nrfRkGPB+AVJ1eMRJMuRMsR07Hf+adDl1YUWyaBO9ocsljQiHvnpxvJbi98XZJCUOY0/JqM7LRJG35bfJ/Glch5YDrobbuDt7nlfkyQBtdf7SB0S9dWLE1hkIfUM+m7gUXcatDb4y+AFooyLYfdTDw1/IBDz9nQrCoCk8vSLLusPrumFVB4UiNPzXsPaNygAqDe4vbyDIu7m6clkUv0Qtdwgt/iMjA+S1CawqEZpPiUQB4Gg9y2MFIjXGFcoe8o6B40DupaRfwLuJtrDQcNoBxaITygHJicn96vrzv9g0BZ+n4A7nQp931togbgL1+6XPioUHYJ5JxBVGGtrO9mLFdXIpPfjR22X5lMC4wojFoH41yfiUYjooK5RdHBmSSDug3qRplijHksS0YE87MjMsqO07vQIeN6CmXcHXXwHbV3sAun1KpZlHUnzkEtQwzVd8QnIkVgAshsiseunEhOIH79vA5tOwYo/LjO1IK61RVAjUhFIP7GoZwnaRdVO5+3YTtpTDKKcukB6xeJumSjEOYFqD9X0rPd5CZlCZXqyNFOB9CL3H84v887R9IZaMWryCUIanNh6IgqNXAlEBROlC4uXJ08eYhS9XAukn2BkSibeRdYw6mVGdW/2n/d4h8ynTGGJFEog/YzzbQdf8URT1XMNYTs/zvQ9i2kpunBi6Mej8AIZ1Ml+4YjXKfuJuDgH+6Cy/CcyvYNk7hdzmS6kk7S9tAIZBs0vHkknnkd+yu+r7H16BeAy8Y4il1YEw8ZKJQUS5C+O/4iq/9+9J/fyKqje047eFgz/KUff7/Q8/oBBoQIJopYQafxHZL1jsYOOzUqxvUdn+zyYkPu/+r56jvd208W9FymE6aVMqgIpZbeqUXERUIHERVLLKSUBFUgpu1WNiouACiQuklpOKQmoQErZrWpUXARUIHGR1HJKSaAbYUofDZayb9WoGAiIB1l33XsMZWoRSqAUBCQciAhkb9724JeCrhpReAJdgfjDTRXeIjVACcRLYJakPJ1mxUtVSysFgRXHcdYEIjs1ZS2iLyWgBC4RmJVLELsexPUiuhbRoaEELhHoeg/5x5pAggQTUXpKoAIE1sSxTiDyn7CxEyoAS02sEIF+YQfXPIjHQUVSoRGhpq4RGBRucINAfJ5kLxHtVoZKoAIE1k2r/Pb2FYgnkna7HToiTwVgqoklIiBfBrZarT2DTBooEC9Do9HYbYwRbzLw6GeJeKkpFSEQNObmSIGoN6nIiKmQmaO8RqApVj9eEo+Bme9Wb1Kh0VQiU4N6jcgC8bxJp9OZ0WlXiUZOyU3xYmlGiXoWaIrVj1+SYa9K3l9qXkoExhGG18TIAvEKEKGIR2FmeeJVydv3UupvrSYggTiEEZtA/G2OO8JoQB6aTAl4BPbVarWDhw4dOhEXkrE9yLDpV1lu+I4LtpYTP4E4vUW/1iUikF6vIl84JhGiN37cWmIRCHiiiNtbZCKQfmLRI75FGIb5aqMnCgBH5JxGWq1L3IMMMqRIYbjS6gytZz2BrEThb0VmAun1LO53K3eUPSCLimAwAU8QEmKi2WweyAOrXAikF4T36NgYo4LJwyhJqA0+D4EoX+Il1Kx1xeZSIP0E0263ZbPkHfpkLI1hEX8drhjk8ausH1JdR4xjTSEEMuhRskzL5DPxNCIc3SM2zlCIL29RxZD5U6z4uqB/SV6kVRGKb3omifUb/gTg9whBaiiMZwiKo7AeJKiBks4fnNLzOD5vo+IZANMfm9GdGnVFkNe4jGHGRNC0lRDIKBiegGSdI8LpCXEs0W9LFeSyZ+B3o/v6YiVWSgCjxoYKZBShns97xeR97I8e6/2uX5DN3upGrZuCBADtFzhU6umNyJvmF2whseY2+f8DuMalyWfkbTEAAAAASUVORK5CYII=;fontSize=12;" vertex="1" parent="1">
          <mxGeometry x="150.01000000000002" y="1028" width="35" height="35" as="geometry" />
        </mxCell>
        <mxCell id="qm9onJdicJjvLXKeHIaW-200" value="Parser" style="shape=image;verticalLabelPosition=bottom;labelBackgroundColor=none;verticalAlign=top;aspect=fixed;imageAspect=0;image=data:image/png,iVBORw0KGgoAAAANSUhEUgAAAMgAAADICAYAAACtWK6eAAAAAXNSR0IArs4c6QAABsdJREFUeF7t3VFqHUcQheFpoX1E3olAetAyopXYO7GyC8FFxFmJnX0ITRB+CQR7cHXTma768nqpnj7/qR9Drn2nbf5DAIEfEmjYIIDAjwkQxHYg8BMCBLEeCBDEDiAQI+BPkBg3U0UIEKRI0WLGCBAkxs1UEQIEKVK0mDECBIlxM1WEAEGKFC1mjABBYtxMFSFAkCJFixkjQJAYN1NFCBCkSNFixggQJMbNVBECBClStJgxAgSJcTNVhABBihQtZowAQWLcTBUhQJAiRYsZI0CQGDdTRQgQpEjRYsYIECTGzVQRAgQpUrSYMQIEiXEzVYRAWJC7u7uvrbWbIpzEXJjAvu/fXl5ePkQiECRCzcxSBAiyVF0uO5sAQWYT97ylCBBkqbpcdjYBgswm7nlLESDIUnW57GwCBJlN3POWIkCQpepy2dkECDKbuOctRYAgS9XlsrMJEGQ2cc9bigBBlqrLZWcTIMhs4p63FAGCLFWXy84mQJDZxD1vKQIEWaoul51NgCCziXveUgQIslRdLjubAEFmE/e8pQgQZKm6XHY2AYLMJu55SxEgyFJ1uexsAgSZTdzzliJAkKXqctnZBAgym7jnLUWAIEvV5bKzCRBkNnHPW4oAQZaqy2VnEyDIbOKetxQBgixVl8vOJrC6IJ9aa3/3Qnt7e/vodQy9FHPOLy3I9fX1h+fn52+91dzf3/+5bdtt7znm8xEgyLZtBMm32KMSEYQgo3Yp5TkEIUjKxR4ViiAEGbVLKc8hCEFSLvaoUAQhyKhdSnkOQQiScrFHhSLIQEH2fX+6urr6a1Q5zokT2Pf9t23bPsVP+D5JkIGCtNYeL5fLU28p5vsJPDw83Ly+vn7tPYkgBOndoVPOE2TbtrP9VRN/gpzHFYIQ5DzbeMKbEIQgJ1zL81yJIAQ5zzae8CYEIcgJ1/I8VyIIQc6zjSe8CUG+f4kz6juH20H/ovDL+/83P+G+lLxSa+333uBLfw/SG948AkcECHJEyOelCRCkdP3CHxEgyBEhn5cmQJDS9Qt/RIAgR4R8XpoAQUrXL/wRAYIcEfJ5aQIEKV2/8EcECHJEyOelCRCkdP3CHxEgyBEhn5cmQJDS9Qt/RIAgR4R8XpoAQUrXL/wRAYIcEfJ5aQIEKV2/8EcEVhfEOwqPGvZ5F4GlBTnbD8d1NWH4lAQIMvCnR0/ZsEt1ESAIQboWKPswQQiSfce78hGEIF0LlH2YIATJvuNd+QhCkK4Fyj5MEIJk3/GufAQZKIh3FHbt4tBh7yj049VDFyrbYX68miDZdnpoHoIQZOhCZTuMIATJttND8xCEIEMXKtthBCFItp0emocgBBm6UNkOIwhBsu300DwE8Y7CoQuV8TDvKMzYqkynIrD0XzU5FUmXSUmAIClrFWoUAYKMIumclAQIkrJWoUYRIMgoks5JSYAgKWsVahQBgowi6ZyUBAiSslahRhEgyCiSzklJgCApaxVqFAGCjCLpnJQECJKyVqFGESDIKJLOSUmAIClrFWoUAYKMIumclAQIkrJWoUYRWFqQ1trje4ABMD5u23Y74BxHJCOwtCDeUZhsG08YhyADf7z6hP26UicBghCkc4VyjxOEILk3vDMdQQjSuUK5xwlCkNwb3pmOIATpXKHc4wQhSO4N70xHkIGCvL+jsLX2R2cnxgcQaK3d7Pv+ufcoggwU5P2b/cvl8tRbivl+An682q+7929R4hMIQpDE690fjSAE6d+ixCcQhCCJ17s/GkEI0r9FiU8gCEESr3d/NIIQpH+LEp9AkH+9o/D9S6HOrkf9a8IvnfcwPpZAd69Lf1E4lqXTEPgvAYLYCgR+QoAg1gMBgtgBBGIE/AkS42aqCAGCFClazBgBgsS4mSpCgCBFihYzRoAgMW6mihAgSJGixYwRIEiMm6kiBAhSpGgxYwQIEuNmqggBghQpWswYAYLEuJkqQoAgRYoWM0aAIDFupooQIEiRosWMESBIjJupIgQIUqRoMWMECBLjZqoIAYIUKVrMGAGCxLiZKkKAIEWKFjNGgCAxbqaKECBIkaLFjBEgSIybqSIECFKkaDFjBAgS42aqCAGCFClazBiB/0uQ7vdXx+KaQuDXCby8vDz++tS2tciQGQSqECBIlablDBEgSAiboSoECFKlaTlDBAgSwmaoCgGCVGlazhABgoSwGapCgCBVmpYzRIAgIWyGqhAgSJWm5QwRIEgIm6EqBAhSpWk5QwQIEsJmqAoBglRpWs4QAYKEsBmqQoAgVZqWM0SAICFshqoQIEiVpuUMESBICJuhKgQIUqVpOUMECBLCZqgKgX8AepHCI5BhnMkAAAAASUVORK5CYII=;fontSize=12;spacing=0;" vertex="1" parent="1">
          <mxGeometry x="226" y="1026.5" width="37.99" height="37.99" as="geometry" />
        </mxCell>
        <mxCell id="qm9onJdicJjvLXKeHIaW-196" style="edgeStyle=orthogonalEdgeStyle;rounded=0;orthogonalLoop=1;jettySize=auto;html=1;exitX=0.5;exitY=1;exitDx=0;exitDy=0;entryX=0.5;entryY=0;entryDx=0;entryDy=0;" edge="1" parent="1" source="qm9onJdicJjvLXKeHIaW-197" target="qm9onJdicJjvLXKeHIaW-199">
          <mxGeometry relative="1" as="geometry" />
        </mxCell>
        <mxCell id="qm9onJdicJjvLXKeHIaW-198" style="edgeStyle=elbowEdgeStyle;rounded=0;orthogonalLoop=1;jettySize=auto;html=1;exitX=1;exitY=0.5;exitDx=0;exitDy=0;entryX=0;entryY=0.5;entryDx=0;entryDy=0;" edge="1" parent="1" source="qm9onJdicJjvLXKeHIaW-199" target="qm9onJdicJjvLXKeHIaW-200">
          <mxGeometry relative="1" as="geometry">
            <mxPoint x="107.50999999999989" y="815.4949999999999" as="targetPoint" />
          </mxGeometry>
        </mxCell>
        <mxCell id="qm9onJdicJjvLXKeHIaW-218" value="&lt;font style=&quot;font-size: 11px; font-weight: 700;&quot;&gt;Alert&amp;nbsp;&lt;/font&gt;&lt;span style=&quot;font-size: 11px; font-weight: 700; background-color: initial;&quot;&gt;Backward Analysis&lt;/span&gt;" style="rounded=0;whiteSpace=wrap;html=1;" vertex="1" parent="1">
          <mxGeometry x="290.01" y="923" width="189.99" height="30" as="geometry" />
        </mxCell>
        <mxCell id="qm9onJdicJjvLXKeHIaW-222" value="&lt;span style=&quot;font-weight: 700;&quot;&gt;Forward Analysis&lt;/span&gt;" style="rounded=0;whiteSpace=wrap;html=1;" vertex="1" parent="1">
          <mxGeometry x="478" y="923" width="222" height="30" as="geometry" />
        </mxCell>
        <mxCell id="qm9onJdicJjvLXKeHIaW-236" value="" style="group" vertex="1" connectable="0" parent="1">
          <mxGeometry x="490.51" y="974" width="189.49" height="121" as="geometry" />
        </mxCell>
        <mxCell id="qm9onJdicJjvLXKeHIaW-188" value="&lt;font style=&quot;font-size: 11px;&quot;&gt;Forward Search&lt;/font&gt;" style="rounded=0;whiteSpace=wrap;html=1;fillColor=#eeeeee;strokeColor=#36393d;" vertex="1" parent="qm9onJdicJjvLXKeHIaW-236">
          <mxGeometry x="7" width="80" height="44" as="geometry" />
        </mxCell>
        <mxCell id="qm9onJdicJjvLXKeHIaW-194" value="&lt;font style=&quot;font-size: 11px;&quot;&gt;Tag Propagation&lt;/font&gt;" style="rounded=0;whiteSpace=wrap;html=1;fillColor=#eeeeee;strokeColor=#36393d;" vertex="1" parent="qm9onJdicJjvLXKeHIaW-236">
          <mxGeometry x="6" y="77" width="80" height="44" as="geometry" />
        </mxCell>
        <mxCell id="qm9onJdicJjvLXKeHIaW-234" value="" style="rounded=0;whiteSpace=wrap;html=1;dashed=1;fillColor=none;" vertex="1" parent="qm9onJdicJjvLXKeHIaW-236">
          <mxGeometry x="112.49000000000001" y="22.75" width="84" height="70" as="geometry" />
        </mxCell>
        <mxCell id="qm9onJdicJjvLXKeHIaW-223" value="" style="group" vertex="1" connectable="0" parent="qm9onJdicJjvLXKeHIaW-236">
          <mxGeometry x="119.49000000000001" y="29" width="68" height="57" as="geometry" />
        </mxCell>
        <mxCell id="qm9onJdicJjvLXKeHIaW-224" value="" style="rounded=0;whiteSpace=wrap;html=1;fillColor=#f8cecc;strokeColor=#b85450;" vertex="1" parent="qm9onJdicJjvLXKeHIaW-223">
          <mxGeometry x="26" y="22" width="14" height="14" as="geometry" />
        </mxCell>
        <mxCell id="qm9onJdicJjvLXKeHIaW-225" value="" style="ellipse;whiteSpace=wrap;html=1;fillColor=#dae8fc;strokeColor=#6c8ebf;" vertex="1" parent="qm9onJdicJjvLXKeHIaW-223">
          <mxGeometry y="22" width="14" height="14" as="geometry" />
        </mxCell>
        <mxCell id="qm9onJdicJjvLXKeHIaW-226" value="" style="rhombus;whiteSpace=wrap;html=1;fillColor=#fff2cc;strokeColor=#d6b656;" vertex="1" parent="qm9onJdicJjvLXKeHIaW-223">
          <mxGeometry x="51" y="40" width="17" height="17" as="geometry" />
        </mxCell>
        <mxCell id="qm9onJdicJjvLXKeHIaW-227" value="" style="rounded=0;whiteSpace=wrap;html=1;fillColor=#f8cecc;strokeColor=#b85450;" vertex="1" parent="qm9onJdicJjvLXKeHIaW-223">
          <mxGeometry x="52.5" width="14" height="14" as="geometry" />
        </mxCell>
        <mxCell id="qm9onJdicJjvLXKeHIaW-228" value="" style="ellipse;whiteSpace=wrap;html=1;fillColor=#dae8fc;strokeColor=#6c8ebf;" vertex="1" parent="qm9onJdicJjvLXKeHIaW-223">
          <mxGeometry x="53.5" y="22" width="14" height="14" as="geometry" />
        </mxCell>
        <mxCell id="qm9onJdicJjvLXKeHIaW-229" style="edgeStyle=orthogonalEdgeStyle;rounded=0;orthogonalLoop=1;jettySize=auto;html=1;exitX=1;exitY=0.5;exitDx=0;exitDy=0;entryX=0;entryY=0.5;entryDx=0;entryDy=0;endSize=4;startSize=4;" edge="1" parent="qm9onJdicJjvLXKeHIaW-223" source="qm9onJdicJjvLXKeHIaW-225" target="qm9onJdicJjvLXKeHIaW-224">
          <mxGeometry relative="1" as="geometry" />
        </mxCell>
        <mxCell id="qm9onJdicJjvLXKeHIaW-230" style="rounded=0;orthogonalLoop=1;jettySize=auto;html=1;exitX=1;exitY=1;exitDx=0;exitDy=0;entryX=0;entryY=0.5;entryDx=0;entryDy=0;endArrow=classic;endFill=1;endSize=4;startSize=4;" edge="1" parent="qm9onJdicJjvLXKeHIaW-223" source="qm9onJdicJjvLXKeHIaW-224" target="qm9onJdicJjvLXKeHIaW-226">
          <mxGeometry relative="1" as="geometry" />
        </mxCell>
        <mxCell id="qm9onJdicJjvLXKeHIaW-231" style="rounded=0;orthogonalLoop=1;jettySize=auto;html=1;exitX=0;exitY=0.5;exitDx=0;exitDy=0;entryX=1;entryY=1;entryDx=0;entryDy=0;endSize=4;startSize=4;" edge="1" parent="qm9onJdicJjvLXKeHIaW-223" source="qm9onJdicJjvLXKeHIaW-226" target="qm9onJdicJjvLXKeHIaW-224">
          <mxGeometry relative="1" as="geometry" />
        </mxCell>
        <mxCell id="qm9onJdicJjvLXKeHIaW-232" style="rounded=0;orthogonalLoop=1;jettySize=auto;html=1;exitX=1;exitY=0;exitDx=0;exitDy=0;entryX=0;entryY=1;entryDx=0;entryDy=0;endSize=4;startSize=4;" edge="1" parent="qm9onJdicJjvLXKeHIaW-223" source="qm9onJdicJjvLXKeHIaW-224" target="qm9onJdicJjvLXKeHIaW-227">
          <mxGeometry relative="1" as="geometry">
            <mxPoint x="73.5" y="12" as="targetPoint" />
          </mxGeometry>
        </mxCell>
        <mxCell id="qm9onJdicJjvLXKeHIaW-233" style="rounded=0;orthogonalLoop=1;jettySize=auto;html=1;exitX=1;exitY=0.5;exitDx=0;exitDy=0;entryX=0;entryY=0.5;entryDx=0;entryDy=0;endSize=4;startSize=4;" edge="1" parent="qm9onJdicJjvLXKeHIaW-223" source="qm9onJdicJjvLXKeHIaW-224" target="qm9onJdicJjvLXKeHIaW-228">
          <mxGeometry relative="1" as="geometry">
            <mxPoint x="73.5" y="32" as="targetPoint" />
          </mxGeometry>
        </mxCell>
        <mxCell id="qm9onJdicJjvLXKeHIaW-187" style="edgeStyle=orthogonalEdgeStyle;rounded=0;orthogonalLoop=1;jettySize=auto;html=1;exitX=0.5;exitY=1;exitDx=0;exitDy=0;entryX=0.5;entryY=0;entryDx=0;entryDy=0;" edge="1" parent="qm9onJdicJjvLXKeHIaW-236" source="qm9onJdicJjvLXKeHIaW-188" target="qm9onJdicJjvLXKeHIaW-194">
          <mxGeometry relative="1" as="geometry" />
        </mxCell>
        <mxCell id="qm9onJdicJjvLXKeHIaW-235" style="edgeStyle=elbowEdgeStyle;rounded=0;orthogonalLoop=1;jettySize=auto;html=1;exitX=1;exitY=0.5;exitDx=0;exitDy=0;entryX=0.003;entryY=0.435;entryDx=0;entryDy=0;entryPerimeter=0;" edge="1" parent="qm9onJdicJjvLXKeHIaW-236" source="qm9onJdicJjvLXKeHIaW-194" target="qm9onJdicJjvLXKeHIaW-234">
          <mxGeometry relative="1" as="geometry" />
        </mxCell>
      </root>
    </mxGraphModel>
  </diagram>
</mxfile>
